<svg width="502" height="404" viewBox="0 0 502 404" fill="none" xmlns="http://www.w3.org/2000/svg">
<g opacity="0.4">
<path d="M25.9922 141.906L6.6777 53.0466L93.7049 34.1311L93.833 34.7558C94.0278 37.0009 94.4408 39.2216 95.0662 41.3866C97.7791 50.457 103.952 58.0953 112.251 62.6507C120.55 67.206 130.308 68.3124 139.416 65.7307C148.524 63.149 156.25 57.0866 160.924 48.8538C165.599 40.6211 166.846 30.8794 164.397 21.7344L163.964 18.8674L250.815 0L302.272 236.772L301.792 236.884C288.339 289.018 252.385 330.42 202.721 343.057C149.871 356.495 95.1143 333.928 58.1029 289.354L41.2067 211.994L39.3169 212.411C30.411 213.196 21.5314 210.641 14.4033 205.245C7.27525 199.848 2.40779 191.994 0.746674 183.208C-0.914438 174.423 0.749429 165.334 5.41499 157.707C10.0805 150.08 17.4146 144.459 25.9922 141.938V141.906Z" fill="#4BC3B5"/>
<path d="M176.04 193.399C176.04 193.399 145.739 191.205 135.009 215.982C124.278 240.76 98.1733 228.251 98.1733 228.251C98.1733 228.251 136.13 245.052 143.881 237.172C151.632 229.292 185.777 224.311 176.04 193.399Z" fill="#CDF0EA"/>
<path d="M177.769 192.983C177.769 192.983 206.965 184.67 222.612 206.725C238.259 228.78 261.049 211.241 261.049 211.241C261.049 211.241 227.417 235.442 218.096 229.276C208.775 223.11 174.566 225.208 177.769 192.983Z" fill="#CDF0EA"/>
<path d="M474.757 193.8L490.853 104.267L403.185 88.5072L403.089 89.1318C402.961 91.3783 402.629 93.6085 402.096 95.7947C399.826 105.08 393.96 113.084 385.789 118.045C377.618 123.005 367.811 124.516 358.526 122.246C349.241 119.975 341.238 114.109 336.278 105.938C331.318 97.7662 329.807 87.9588 332.077 78.673L332.413 75.7901L244.938 60.0779L202.081 298.563L202.577 298.66C217.904 350.265 255.331 390.354 305.427 401.165C358.71 412.681 412.618 388.144 447.964 342.256L461.977 264.32L463.867 264.673C472.781 265.129 481.548 262.261 488.469 256.623C495.39 250.986 499.972 242.98 501.328 234.156C502.683 225.333 500.716 216.321 495.808 208.865C490.899 201.409 483.398 196.041 474.757 193.8Z" fill="#CDF0EA"/>
<path d="M322.618 198.715C326.109 185.987 315.801 172.065 299.595 167.619C283.388 163.173 267.419 169.886 263.928 182.614C260.437 195.341 270.745 209.264 286.952 213.71C303.159 218.156 319.127 211.442 322.618 198.715Z" stroke="#4BC3B5" stroke-miterlimit="10"/>
<path d="M417.626 224.77C421.119 212.034 410.813 198.105 394.606 193.659C378.4 189.213 362.429 195.933 358.936 208.669C355.442 221.405 365.749 235.334 381.955 239.78C398.162 244.226 414.132 237.506 417.626 224.77Z" stroke="#4BC3B5" stroke-miterlimit="10"/>
<path d="M324.326 192.406C324.326 192.406 349.951 181.387 360.649 202.368" stroke="#4BC3B5" stroke-miterlimit="10"/>
<path d="M330.124 245.292C330.124 245.292 360.281 248.768 366.238 275.099C372.196 301.43 400.223 294.031 400.223 294.031C400.223 294.031 359.8 303.496 353.586 294.271C347.372 285.045 314.861 273.882 330.124 245.292Z" fill="#4BC3B5"/>
<path d="M328.57 244.556C328.57 244.556 301.424 230.958 282.03 249.745C262.635 268.532 243.225 246.99 243.225 246.99C243.225 246.99 271.876 277.037 282.126 272.713C292.376 268.388 325.703 276.813 328.57 244.556Z" fill="#4BC3B5"/>
</g>
</svg>
