<svg width="316" height="316" viewBox="0 0 316 316" fill="none" xmlns="http://www.w3.org/2000/svg">
<mask id="mask0_325_95" style="mask-type:alpha" maskUnits="userSpaceOnUse" x="0" y="0" width="316" height="316">
<rect width="316" height="316" fill="#FADA5E"/>
</mask>
<g mask="url(#mask0_325_95)">
<path d="M-162.216 152.29L-158.793 149.313C-158.774 149.305 -158.67 149.454 -158.481 149.76C-158.272 150.058 -157.977 150.434 -157.595 150.887C-157.193 151.333 -156.71 151.814 -156.147 152.329C-155.583 152.844 -154.893 153.31 -154.077 153.725C-153.242 154.133 -152.343 154.448 -151.38 154.67C-149.246 155.188 -146.814 154.904 -144.085 153.817C-141.355 152.731 -139.62 151.177 -138.877 149.155C-138.135 147.133 -138.195 145.038 -139.058 142.87C-139.929 140.683 -141.037 139.139 -142.381 138.239C-143.715 137.312 -145.609 136.833 -148.066 136.802C-148.785 136.797 -149.718 136.821 -150.863 136.873L-154.003 137.013C-159.416 137.329 -163.438 136.575 -166.069 134.753C-167.897 133.484 -169.269 131.699 -170.186 129.395C-171.272 126.666 -171.202 123.689 -169.974 120.465C-169.379 118.972 -168.423 117.572 -167.106 116.262C-165.788 114.953 -164.259 113.952 -162.516 113.258C-160.755 112.557 -159.11 112.183 -157.582 112.135C-156.042 112.06 -154.727 112.21 -153.637 112.583C-152.527 112.948 -151.462 113.455 -150.442 114.103C-149.422 114.75 -148.624 115.375 -148.048 115.975L-146.351 117.789C-145.83 118.366 -145.517 118.701 -145.413 118.794L-148.609 121.748C-148.687 121.667 -148.903 121.405 -149.258 120.964C-149.601 120.495 -149.897 120.119 -150.144 119.837C-150.372 119.546 -150.737 119.164 -151.239 118.692C-151.722 118.211 -152.185 117.835 -152.63 117.563C-153.062 117.265 -153.604 116.976 -154.253 116.696C-154.891 116.389 -155.529 116.195 -156.167 116.113C-157.722 115.924 -159.303 116.15 -160.909 116.789C-163.29 117.737 -164.944 119.214 -165.872 121.22C-166.808 123.207 -166.814 125.362 -165.889 127.685C-164.88 130.22 -163.513 131.739 -161.788 132.241C-160.849 132.517 -160.087 132.685 -159.503 132.744C-158.899 132.795 -158.218 132.816 -157.46 132.806C-156.69 132.768 -156.123 132.756 -155.76 132.768C-155.404 132.761 -154.717 132.711 -153.699 132.62L-150.96 132.404C-145.922 131.991 -142.022 132.804 -139.26 134.844C-137.386 136.228 -135.928 138.227 -134.888 140.84C-134.133 142.737 -133.944 144.96 -134.319 147.509C-134.762 150.734 -136.333 153.378 -139.033 155.439C-140.052 156.203 -141.326 156.89 -142.855 157.499C-144.365 158.1 -145.936 158.49 -147.569 158.669C-149.202 158.848 -150.652 158.809 -151.921 158.551C-153.17 158.286 -154.359 157.918 -155.488 157.448C-156.597 156.971 -157.552 156.431 -158.352 155.83C-159.82 154.733 -160.95 153.725 -161.741 152.807L-162.216 152.29ZM-127.964 140.236C-129.606 138.648 -131.046 136.889 -132.285 134.96C-133.531 133.012 -134.597 130.925 -135.483 128.699C-136.369 126.473 -137.048 124.232 -137.52 121.976C-137.992 119.72 -138.205 117.439 -138.159 115.133C-138.112 112.827 -137.768 110.706 -137.127 108.769C-136.473 106.805 -135.391 105.017 -133.88 103.407C-132.376 101.777 -130.511 100.518 -128.285 99.6324C-126.04 98.7386 -123.846 98.3922 -121.703 98.5931C-119.548 98.7669 -117.584 99.3641 -115.81 100.385C-114.024 101.378 -112.332 102.7 -110.733 104.351C-107.725 107.458 -105.296 111.335 -103.447 115.98C-100.064 124.478 -99.7494 131.662 -102.502 137.534C-103.989 140.727 -106.591 143.064 -110.307 144.543C-112.456 145.398 -114.609 145.762 -116.768 145.635C-118.934 145.488 -120.931 144.949 -122.76 144.017C-124.576 143.059 -126.311 141.798 -127.964 140.236ZM-133.917 115.395C-133.843 117.272 -133.569 119.17 -133.097 121.09C-132.632 122.99 -131.941 125.092 -131.024 127.395C-130.107 129.698 -128.991 131.855 -127.675 133.865C-126.348 135.848 -124.878 137.539 -123.268 138.939C-121.637 140.33 -119.834 141.227 -117.858 141.629C-115.87 142.003 -113.928 141.813 -112.031 141.058C-110.114 140.295 -108.629 139.267 -107.575 137.973C-106.509 136.651 -105.802 135.215 -105.455 133.665C-105.108 132.114 -104.999 130.389 -105.127 128.489C-105.346 125.123 -106.218 121.523 -107.744 117.691C-110.279 111.323 -113.414 106.853 -117.151 104.282C-118.484 103.355 -119.982 102.774 -121.645 102.539C-123.316 102.285 -125.023 102.505 -126.765 103.198C-128.507 103.891 -129.936 104.864 -131.052 106.115C-132.149 107.359 -132.918 108.753 -133.357 110.296C-133.785 111.811 -133.972 113.511 -133.917 115.395ZM-88.4842 135.318L-105.993 91.3309L-92.2602 85.8643C-88.718 84.4543 -85.3907 84.3071 -82.2783 85.4226C-79.1736 86.5188 -77.028 88.5573 -75.8414 91.5382C-73.8767 96.474 -74.3435 100.315 -77.2419 103.061C-77.7417 103.551 -78.3868 104.099 -79.177 104.705C-75.679 104.255 -72.5393 105.214 -69.7578 107.582C-68.2512 108.888 -67.0819 110.587 -66.2497 112.677C-64.8089 116.297 -64.7894 119.641 -66.1911 122.711C-67.6006 125.761 -70.4538 128.141 -74.7509 129.851L-88.4842 135.318ZM-85.6202 130.007L-76.184 126.251C-73.029 124.995 -70.9875 123.42 -70.0597 121.526C-69.6638 120.718 -69.4589 119.684 -69.4452 118.423C-69.4315 117.161 -69.7213 115.786 -70.3145 114.295C-71.4086 111.547 -73.1328 109.665 -75.4871 108.652C-77.8415 107.638 -80.3929 107.678 -83.1415 108.772L-92.5776 112.529L-85.6202 130.007ZM-94.0454 108.841L-84.6093 105.085C-81.8994 104.006 -80.1211 102.503 -79.2745 100.573C-78.9173 99.781 -78.753 98.729 -78.7818 97.4175C-78.7912 96.0982 -79.1079 94.6547 -79.732 93.0869C-80.6335 90.8222 -82.0354 89.3845 -83.9378 88.774C-85.8208 88.1557 -88.1172 88.3859 -90.8271 89.4646L-100.263 93.2207L-94.0454 108.841ZM-55.6173 122.235L-73.1265 78.2481L-58.319 72.3539C-53.6929 70.5124 -49.5116 70.9334 -45.7751 73.6168C-43.7387 75.0709 -42.293 76.8723 -41.4377 79.0208C-40.4053 81.6146 -40.0808 84.2323 -40.4644 86.8739C-40.8793 89.7747 -42.485 92.1628 -45.2813 94.0383L-28.7025 111.522L-33.406 113.394L-49.4171 96.4918L-59.3178 100.433L-51.3202 120.525L-55.6173 122.235ZM-60.7509 96.8326L-49.834 92.4871C-47.8016 91.6781 -46.3235 90.3497 -45.3997 88.5021C-44.3749 86.4573 -44.4597 83.9348 -45.6539 80.9345C-47.2411 76.9472 -50.4067 75.2474 -55.1506 75.8352C-56.5591 76.0147 -58.0183 76.4049 -59.5281 77.0059L-67.3964 80.1379L-60.7509 96.8326ZM-23.8537 109.591L-41.363 65.6045L-17.5258 56.1159L-16.0927 59.7162L-35.6328 67.4942L-29.4728 82.9695L-15.4492 77.3874L-14.0161 80.9876L-28.0397 86.5698L-21.0938 104.019L-0.450364 95.8022L1.08675 99.6638L-23.8537 109.591ZM21.6431 91.4812L4.13381 47.4942L10.9859 44.7667L42.063 71.2108L28.7259 37.7052L33.023 35.9948L50.5322 79.9818L46.8449 81.4495L10.1298 50.0518L25.9401 89.7708L21.6431 91.4812ZM53.1584 22.6991L58.3142 10.7246L61.8456 12.2451L55.8259 23.8235L53.1584 22.6991ZM55.4165 67.2408C53.775 65.6519 52.3349 63.8931 51.0963 61.9644C49.85 60.0164 48.7838 57.9294 47.8978 55.7035C47.0117 53.4775 46.3327 51.2364 45.8606 48.9802C45.3885 46.724 45.1757 44.443 45.2221 42.1374C45.2686 39.8317 45.6126 37.7104 46.2542 35.7732C46.9074 33.8091 47.9897 32.0216 49.5012 30.4109C51.005 28.7809 52.8699 27.5228 55.0958 26.6368C57.3411 25.743 59.5353 25.3966 61.6782 25.5975C63.8327 25.7713 65.797 26.3684 67.571 27.3889C69.3566 28.3822 71.0489 29.7043 72.6478 31.355C75.6562 34.4627 78.085 38.3393 79.9342 42.9848C83.3166 51.4822 83.6315 58.6668 80.8787 64.5387C79.3917 67.7317 76.79 70.0679 73.0736 71.5472C70.925 72.4025 68.7715 72.7664 66.613 72.639C64.4468 72.4922 62.4495 71.953 60.6212 71.0215C58.8046 70.0629 57.0697 68.8026 55.4165 67.2408ZM49.4637 42.3998C49.5379 44.2763 49.8113 46.1743 50.284 48.0939C50.7489 49.9942 51.4398 52.0961 52.3567 54.3995C53.2735 56.7028 54.3899 58.8596 55.7057 60.8696C57.0332 62.8526 58.5024 64.5437 60.1133 65.943C61.7435 67.3346 63.5468 68.2313 65.523 68.6331C67.5108 69.0078 69.4532 68.8176 71.3501 68.0625C73.2664 67.2998 74.7517 66.2713 75.8062 64.977C76.8723 63.6557 77.5788 62.2197 77.9257 60.669C78.2726 59.1182 78.3819 57.393 78.2536 55.4933C78.0348 52.1272 77.1627 48.5278 75.6371 44.6953C73.1022 38.3271 69.9664 33.8574 66.2298 31.2862C64.8966 30.3594 63.3985 29.7785 61.7354 29.5436C60.0645 29.2893 58.3581 29.5089 56.616 30.2023C54.874 30.8958 53.4448 31.8683 52.3285 33.1199C51.2316 34.3637 50.4633 35.7571 50.0235 37.2999C49.5954 38.8157 49.4088 40.5157 49.4637 42.3998ZM87.8853 52.7356L91.3083 49.7586C91.3276 49.7509 91.4319 49.9 91.6209 50.2059C91.8293 50.5042 92.1246 50.8799 92.5069 51.3332C92.9085 51.7788 93.3912 52.2593 93.9552 52.7748C94.5192 53.2903 95.2089 53.7557 96.0245 54.171C96.8595 54.5786 97.7584 54.8935 98.7213 55.1156C100.856 55.6337 103.288 55.3496 106.017 54.2632C108.746 53.1768 110.482 51.6226 111.224 49.6005C111.967 47.5785 111.906 45.4835 111.043 43.3156C110.173 41.1283 109.065 39.5848 107.72 38.685C106.387 37.7582 104.492 37.2791 102.036 37.2479C101.316 37.2429 100.384 37.2665 99.2386 37.3187L96.099 37.4585C90.6862 37.7744 86.6641 37.021 84.0326 35.1983C82.2048 33.9302 80.8325 32.1444 79.9156 29.841C78.8292 27.1118 78.9 24.135 80.1279 20.9106C80.7223 19.4183 81.6783 18.0175 82.9958 16.7082C84.3134 15.399 85.8432 14.3976 87.5852 13.7042C89.3467 13.003 90.9915 12.6286 92.5197 12.5809C94.0595 12.5061 95.3746 12.6553 96.4649 13.0285C97.5746 13.394 98.6396 13.9007 99.6598 14.5485C100.68 15.1963 101.478 15.8204 102.053 16.4211L103.751 18.2344C104.272 18.8117 104.585 19.1469 104.689 19.2399L101.492 22.1941C101.415 22.1127 101.199 21.8512 100.844 21.4096C100.5 20.9409 100.205 20.5652 99.9578 20.2823C99.73 19.9918 99.3651 19.6101 98.8629 19.1373C98.3802 18.6568 97.9166 18.2807 97.4721 18.0092C97.0393 17.7106 96.4982 17.4215 95.8487 17.1418C95.2109 16.8351 94.5729 16.6406 93.9347 16.5583C92.3798 16.37 90.7991 16.5956 89.1925 17.2351C86.8117 18.1828 85.1573 19.6598 84.2294 21.6661C83.2937 23.653 83.2881 25.8078 84.2127 28.1306C85.222 30.6662 86.589 32.185 88.3136 32.687C89.2532 32.9632 90.015 33.1309 90.5991 33.1899C91.2025 33.2412 91.8834 33.2617 92.6417 33.2513C93.4116 33.2139 93.9784 33.2013 94.342 33.2136C94.6979 33.2064 95.3847 33.1573 96.4023 33.0661L99.1417 32.8502C104.179 32.437 108.08 33.2502 110.842 35.2897C112.716 36.674 114.173 38.6726 115.213 41.2857C115.968 43.1826 116.158 45.4055 115.783 47.9543C115.34 51.18 113.769 53.8236 111.069 55.8849C110.05 56.6492 108.776 57.3357 107.247 57.9443C105.737 58.5453 104.166 58.9353 102.533 59.1144C100.9 59.2935 99.4494 59.2543 98.1809 58.9969C96.9318 58.7317 95.7428 58.3641 94.614 57.8941C93.5044 57.4164 92.5498 56.8771 91.75 56.2761C90.2817 55.1788 89.1518 54.171 88.3603 53.2528L87.8853 52.7356ZM132.772 34.8681L136.195 31.8911C136.215 31.8834 136.319 32.0325 136.508 32.3384C136.716 32.6367 137.012 33.0124 137.394 33.4657C137.796 33.9113 138.278 34.3918 138.842 34.9073C139.406 35.4227 140.096 35.8881 140.912 36.3035C141.747 36.7111 142.645 37.0259 143.608 37.2481C145.743 37.7662 148.175 37.482 150.904 36.3957C153.633 35.3093 155.369 33.7551 156.111 31.733C156.854 29.7109 156.793 27.616 155.931 25.4481C155.06 23.2608 153.952 21.7173 152.607 20.8175C151.274 19.8907 149.379 19.4116 146.923 19.3804C146.203 19.3753 145.271 19.3989 144.126 19.4512L140.986 19.591C135.573 19.9069 131.551 19.1535 128.92 17.3308C127.092 16.0627 125.72 14.2769 124.803 11.9735C123.716 9.24429 123.787 6.26747 125.015 3.04307C125.609 1.55077 126.565 0.149984 127.883 -1.15928C129.2 -2.46854 130.73 -3.46989 132.472 -4.16333C134.234 -4.86447 135.879 -5.2389 137.407 -5.28663C138.947 -5.36142 140.262 -5.21221 141.352 -4.83899C142.462 -4.47347 143.527 -3.96682 144.547 -3.31905C145.567 -2.67127 146.365 -2.04707 146.94 -1.44647L148.638 0.366913C149.159 0.944218 149.472 1.27938 149.576 1.3724L146.379 4.32656C146.302 4.24519 146.086 3.9837 145.731 3.54207C145.387 3.07339 145.092 2.69763 144.845 2.41481C144.617 2.12427 144.252 1.7426 143.75 1.26978C143.267 0.789257 142.804 0.413219 142.359 0.141667C141.926 -0.156946 141.385 -0.446069 140.736 -0.725702C140.098 -1.0324 139.46 -1.2269 138.822 -1.30921C137.267 -1.49752 135.686 -1.27192 134.08 -0.632417C131.699 0.315278 130.044 1.79226 129.116 3.79854C128.181 5.78546 128.175 7.94029 129.1 10.263C130.109 12.7987 131.476 14.3175 133.201 14.8195C134.14 15.0957 134.902 15.2633 135.486 15.3224C136.09 15.3737 136.77 15.3941 137.529 15.3838C138.299 15.3464 138.865 15.3338 139.229 15.346C139.585 15.3389 140.272 15.2898 141.289 15.1986L144.029 14.9827C149.066 14.5695 152.967 15.3826 155.729 17.4222C157.603 18.8064 159.06 20.8051 160.1 23.4182C160.856 25.3151 161.045 27.538 160.67 30.0868C160.227 33.3125 158.656 35.956 155.956 38.0174C154.937 38.7817 153.663 39.4681 152.134 40.0768C150.624 40.6778 149.053 41.0678 147.42 41.2469C145.787 41.426 144.336 41.3868 143.068 41.1294C141.819 40.8642 140.63 40.4966 139.501 40.0266C138.392 39.5489 137.437 39.0096 136.637 38.4086C135.169 37.3113 134.039 36.3035 133.247 35.3853L132.772 34.8681ZM167.024 22.8147C165.383 21.2258 163.943 19.467 162.704 17.5383C161.458 15.5903 160.392 13.5033 159.506 11.2774C158.62 9.05139 157.941 6.8103 157.469 4.55408C156.997 2.29786 156.784 0.0169275 156.83 -2.28871C156.877 -4.59436 157.221 -6.71574 157.862 -8.65286C158.515 -10.617 159.598 -12.4045 161.109 -14.0152C162.613 -15.6452 164.478 -16.9033 166.704 -17.7893C168.949 -18.6831 171.143 -19.0295 173.286 -18.8286C175.441 -18.6548 177.405 -18.0577 179.179 -17.0372C180.965 -16.0439 182.657 -14.7218 184.256 -13.0711C187.264 -9.96336 189.693 -6.08676 191.542 -1.44126C194.925 7.05612 195.239 14.2407 192.487 20.1126C191 23.3056 188.398 25.6418 184.682 27.1211C182.533 27.9764 180.379 28.3403 178.221 28.2129C176.055 28.0661 174.058 27.5269 172.229 26.5954C170.413 25.6368 168.678 24.3765 167.024 22.8147ZM161.072 -2.02627C161.146 -0.149843 161.419 1.74819 161.892 3.66784C162.357 5.56813 163.048 7.66997 163.965 9.97336C164.881 12.2768 165.998 14.4335 167.314 16.4435C168.641 18.4265 170.11 20.1176 171.721 21.5169C173.351 22.9085 175.155 23.8052 177.131 24.207C179.119 24.5817 181.061 24.3915 182.958 23.6365C184.874 22.8737 186.36 21.8452 187.414 20.5509C188.48 19.2296 189.187 17.7936 189.534 16.2429C189.881 14.6921 189.99 12.9669 189.862 11.0672C189.643 7.70106 188.771 4.10174 187.245 0.26921C184.71 -6.09899 181.574 -10.5687 177.838 -13.1399C176.505 -14.0667 175.006 -14.6476 173.343 -14.8825C171.673 -15.1368 169.966 -14.9172 168.224 -14.2238C166.482 -13.5303 165.053 -12.5578 163.936 -11.3062C162.84 -10.0624 162.071 -8.66901 161.631 -7.12615C161.203 -5.61036 161.017 -3.9104 161.072 -2.02627ZM206.505 17.8962L188.995 -26.0908L202.729 -31.5574C206.271 -32.9674 209.598 -33.1146 212.711 -31.9991C215.815 -30.9029 217.961 -28.8644 219.147 -25.8836C221.112 -20.9477 220.645 -17.1069 217.747 -14.3612C217.247 -13.8707 216.602 -13.3224 215.812 -12.7164C219.31 -13.167 222.45 -12.2081 225.231 -9.83969C226.738 -8.53342 227.907 -6.83505 228.739 -4.74458C230.18 -1.12497 230.199 2.21952 228.798 5.28888C227.388 8.33889 224.535 10.7191 220.238 12.4296L206.505 17.8962ZM209.369 12.5855L218.805 8.82935C221.96 7.57346 224.001 5.99847 224.929 4.10438C225.325 3.2965 225.53 2.26198 225.544 1.00082C225.557 -0.260343 225.268 -1.63614 224.674 -3.12657C223.58 -5.87515 221.856 -7.75628 219.502 -8.76995C217.147 -9.78362 214.596 -9.74341 211.847 -8.64932L202.411 -4.89321L209.369 12.5855ZM200.943 -8.58057L210.38 -12.3367C213.089 -13.4154 214.868 -14.9192 215.714 -16.8483C216.071 -17.6407 216.236 -18.6927 216.207 -20.0043C216.198 -21.3235 215.881 -22.767 215.257 -24.3349C214.355 -26.5996 212.953 -28.0372 211.051 -28.6478C209.168 -29.266 206.872 -29.0358 204.162 -27.9572L194.726 -24.201L200.943 -8.58057ZM239.371 4.81337L221.862 -39.1736L236.67 -45.0678C241.296 -46.9093 245.477 -46.4883 249.214 -43.805C251.25 -42.3508 252.696 -40.5494 253.551 -38.4009C254.584 -35.8072 254.908 -33.1895 254.524 -30.5478C254.109 -27.647 252.504 -25.2589 249.708 -23.3834L266.286 -5.90021L261.583 -4.02793L245.572 -20.9299L235.671 -16.9889L243.669 3.1029L239.371 4.81337ZM234.238 -20.5891L245.155 -24.9346C247.187 -25.7437 248.665 -27.072 249.589 -28.9197C250.614 -30.9645 250.529 -33.487 249.335 -36.4872C247.748 -40.4746 244.582 -42.1743 239.838 -41.5865C238.43 -41.4071 236.971 -41.0169 235.461 -40.4159L227.592 -37.2839L234.238 -20.5891ZM271.135 -7.83027L253.626 -51.8173L277.463 -61.3058L278.896 -57.7055L259.356 -49.9275L265.516 -34.4522L279.54 -40.0344L280.973 -36.4341L266.949 -30.8519L273.895 -13.4023L294.538 -21.6195L296.076 -17.758L271.135 -7.83027ZM316.632 -25.9405L299.123 -69.9275L305.975 -72.655L337.052 -46.2109L323.715 -79.7165L328.012 -81.427L345.521 -37.44L341.834 -35.9722L305.119 -67.3699L320.929 -27.651L316.632 -25.9405ZM348.147 -94.7226L353.303 -106.697L356.834 -105.177L350.815 -93.5982L348.147 -94.7226ZM350.405 -50.1809C348.764 -51.7698 347.324 -53.5286 346.085 -55.4573C344.839 -57.4053 343.773 -59.4923 342.887 -61.7183C342.001 -63.9442 341.321 -66.1853 340.849 -68.4416C340.377 -70.6978 340.165 -72.9787 340.211 -75.2843C340.257 -77.59 340.601 -79.7114 341.243 -81.6485C341.896 -83.6127 342.979 -85.4001 344.49 -87.0108C345.994 -88.6409 347.859 -89.8989 350.085 -90.785C352.33 -91.6787 354.524 -92.0252 356.667 -91.8243C358.821 -91.6504 360.786 -91.0533 362.56 -90.0329C364.345 -89.0395 366.038 -87.7174 367.637 -86.0667C370.645 -82.959 373.074 -79.0824 374.923 -74.4369C378.305 -65.9395 378.62 -58.7549 375.868 -52.883C374.38 -49.69 371.779 -47.3538 368.062 -45.8745C365.914 -45.0193 363.76 -44.6554 361.602 -44.7828C359.436 -44.9295 357.438 -45.4687 355.61 -46.4003C353.793 -47.3589 352.058 -48.6191 350.405 -50.1809ZM344.452 -75.0219C344.527 -73.1455 344.8 -71.2474 345.273 -69.3278C345.738 -67.4275 346.429 -65.3257 347.345 -63.0223C348.262 -60.7189 349.379 -58.5622 350.695 -56.5521C352.022 -54.5691 353.491 -52.878 355.102 -51.4787C356.732 -50.0871 358.536 -49.1905 360.512 -48.7887C362.5 -48.4139 364.442 -48.6041 366.339 -49.3592C368.255 -50.122 369.741 -51.1505 370.795 -52.4447C371.861 -53.766 372.568 -55.202 372.914 -56.7528C373.261 -58.3035 373.371 -60.0288 373.242 -61.9285C373.024 -65.2946 372.151 -68.8939 370.626 -72.7264C368.091 -79.0946 364.955 -83.5643 361.219 -86.1355C359.885 -87.0623 358.387 -87.6432 356.724 -87.8781C355.053 -88.1324 353.347 -87.9128 351.605 -87.2194C349.863 -86.5259 348.434 -85.5534 347.317 -84.3019C346.22 -83.058 345.452 -81.6646 345.012 -80.1218C344.584 -78.606 344.398 -76.906 344.452 -75.0219ZM382.874 -64.6861L386.297 -67.6631C386.316 -67.6708 386.421 -67.5217 386.61 -67.2158C386.818 -66.9175 387.113 -66.5418 387.496 -66.0885C387.897 -65.6429 388.38 -65.1624 388.944 -64.6469C389.508 -64.1315 390.198 -63.6661 391.013 -63.2508C391.848 -62.8431 392.747 -62.5283 393.71 -62.3061C395.845 -61.788 398.277 -62.0722 401.006 -63.1585C403.735 -64.2449 405.471 -65.7992 406.213 -67.8212C406.956 -69.8433 406.895 -71.9383 406.032 -74.1062C405.162 -76.2934 404.054 -77.8369 402.709 -78.7367C401.376 -79.6636 399.481 -80.1426 397.025 -80.1738C396.305 -80.1789 395.373 -80.1553 394.227 -80.103L391.088 -79.9632C385.675 -79.6473 381.653 -80.4007 379.021 -82.2234C377.194 -83.4916 375.821 -85.2773 374.904 -87.5807C373.818 -90.3099 373.889 -93.2867 375.117 -96.5111C375.711 -98.0034 376.667 -99.4042 377.985 -100.713C379.302 -102.023 380.832 -103.024 382.574 -103.718C384.335 -104.419 385.98 -104.793 387.508 -104.841C389.048 -104.916 390.363 -104.766 391.454 -104.393C392.563 -104.028 393.628 -103.521 394.649 -102.873C395.669 -102.225 396.467 -101.601 397.042 -101.001L398.739 -99.1873C399.261 -98.61 399.573 -98.2748 399.678 -98.1818L396.481 -95.2276C396.404 -95.309 396.188 -95.5705 395.833 -96.0121C395.489 -96.4808 395.194 -96.8566 394.947 -97.1394C394.719 -97.4299 394.354 -97.8116 393.852 -98.2844C393.369 -98.765 392.905 -99.141 392.461 -99.4125C392.028 -99.7112 391.487 -100 390.838 -100.28C390.2 -100.587 389.562 -100.781 388.924 -100.863C387.369 -101.052 385.788 -100.826 384.181 -100.187C381.801 -99.2389 380.146 -97.7619 379.218 -95.7557C378.282 -93.7687 378.277 -91.6139 379.202 -89.2912C380.211 -86.7555 381.578 -85.2367 383.302 -84.7347C384.242 -84.4585 385.004 -84.2909 385.588 -84.2319C386.191 -84.1805 386.872 -84.1601 387.63 -84.1704C388.4 -84.2078 388.967 -84.2204 389.331 -84.2082C389.687 -84.2153 390.373 -84.2644 391.391 -84.3556L394.13 -84.5715C399.168 -84.9847 403.068 -84.1716 405.831 -82.132C407.705 -80.7478 409.162 -78.7491 410.202 -76.136C410.957 -74.2391 411.147 -72.0162 410.771 -69.4674C410.329 -66.2417 408.757 -63.5982 406.058 -61.5368C405.039 -60.7726 403.765 -60.0861 402.236 -59.4774C400.726 -58.8764 399.155 -58.4864 397.522 -58.3073C395.889 -58.1282 394.438 -58.1674 393.17 -58.4249C391.921 -58.69 390.732 -59.0576 389.603 -59.5276C388.493 -60.0053 387.539 -60.5447 386.739 -61.1456C385.271 -62.2429 384.141 -63.2507 383.349 -64.1689L382.874 -64.6861ZM24.1104 191.134L27.5334 188.157C27.5527 188.15 27.6569 188.299 27.846 188.605C28.0544 188.903 28.3497 189.279 28.7319 189.732C29.1335 190.177 29.6163 190.658 30.1803 191.173C30.7442 191.689 31.434 192.154 32.2496 192.57C33.0845 192.977 33.9835 193.292 34.9464 193.514C37.081 194.032 39.5129 193.748 42.2422 192.662C44.9714 191.575 46.7072 190.021 47.4495 187.999C48.1918 185.977 48.1315 183.882 47.2685 181.714C46.3979 179.527 45.2902 177.983 43.9454 177.084C42.6122 176.157 40.7174 175.678 38.2609 175.647C37.5413 175.642 36.6089 175.665 35.4637 175.717L32.324 175.857C26.9113 176.173 22.8891 175.42 20.2576 173.597C18.4299 172.329 17.0576 170.543 16.1407 168.24C15.0543 165.51 15.1251 162.534 16.353 159.309C16.9474 157.817 17.9034 156.416 19.2209 155.107C20.5384 153.798 22.0682 152.796 23.8103 152.103C25.5717 151.402 27.2165 151.027 28.7447 150.98C30.2846 150.905 31.5997 151.054 32.69 151.427C33.7997 151.793 34.8647 152.299 35.8849 152.947C36.9051 153.595 37.703 154.219 38.2784 154.82L39.9756 156.633C40.4969 157.21 40.8097 157.546 40.914 157.639L37.7174 160.593C37.6402 160.511 37.424 160.25 37.0688 159.808C36.7253 159.34 36.43 158.964 36.1828 158.681C35.9551 158.39 35.5901 158.009 35.088 157.536C34.6052 157.055 34.1416 156.679 33.6972 156.408C33.2644 156.109 32.7233 155.82 32.0738 155.541C31.436 155.234 30.798 155.039 30.1598 154.957C28.6049 154.769 27.0242 154.994 25.4176 155.634C23.0368 156.581 21.3824 158.058 20.4544 160.065C19.5187 162.052 19.5132 164.207 20.4378 166.529C21.4471 169.065 22.8141 170.584 24.5386 171.086C25.4783 171.362 26.2401 171.53 26.8242 171.589C27.4276 171.64 28.1085 171.66 28.8667 171.65C29.6367 171.613 30.2034 171.6 30.5671 171.612C30.923 171.605 31.6098 171.556 32.6274 171.465L35.3667 171.249C40.4044 170.836 44.3046 171.649 47.0673 173.688C48.9413 175.073 50.3983 177.071 51.4385 179.684C52.1935 181.581 52.3832 183.804 52.0076 186.353C51.565 189.579 49.9938 192.222 47.2939 194.284C46.2751 195.048 45.0012 195.734 43.472 196.343C41.9622 196.944 40.3909 197.334 38.758 197.513C37.1252 197.692 35.6745 197.653 34.406 197.396C33.1569 197.13 31.9679 196.763 30.839 196.293C29.7295 195.815 28.7749 195.276 27.9751 194.675C26.5068 193.577 25.3769 192.57 24.5854 191.652L24.1104 191.134ZM58.3624 179.081C56.7209 177.492 55.2809 175.733 54.0423 173.805C52.796 171.857 51.7298 169.77 50.8437 167.544C49.9577 165.318 49.2786 163.077 48.8066 160.82C48.3345 158.564 48.1217 156.283 48.1681 153.977C48.2145 151.672 48.5585 149.55 49.2001 147.613C49.8533 145.649 50.9357 143.862 52.4472 142.251C53.9509 140.621 55.8158 139.363 58.0418 138.477C60.2871 137.583 62.4812 137.237 64.6241 137.438C66.7787 137.611 68.7429 138.209 70.5169 139.229C72.3026 140.222 73.9948 141.544 75.5937 143.195C78.6022 146.303 81.031 150.179 82.8801 154.825C86.2626 163.322 86.5774 170.507 83.8247 176.379C82.3376 179.572 79.7359 181.908 76.0195 183.387C73.871 184.243 71.7175 184.606 69.559 184.479C67.3928 184.332 65.3955 183.793 63.5672 182.862C61.7505 181.903 60.0156 180.643 58.3624 179.081ZM52.4096 154.24C52.4839 156.116 52.7573 158.014 53.2299 159.934C53.6948 161.834 54.3857 163.936 55.3026 166.24C56.2195 168.543 57.3358 170.7 58.6517 172.71C59.9792 174.693 61.4484 176.384 63.0592 177.783C64.6895 179.175 66.4927 180.071 68.4689 180.473C70.4568 180.848 72.3992 180.658 74.2961 179.903C76.2123 179.14 77.6977 178.111 78.7521 176.817C79.8182 175.496 80.5247 174.06 80.8717 172.509C81.2186 170.958 81.3279 169.233 81.1995 167.333C80.9808 163.967 80.1086 160.368 78.5831 156.535C76.0482 150.167 72.9124 145.698 69.1757 143.126C67.8426 142.199 66.3445 141.619 64.6813 141.384C63.0105 141.129 61.304 141.349 59.562 142.042C57.8199 142.736 56.3908 143.708 55.2745 144.96C54.1776 146.204 53.4092 147.597 52.9695 149.14C52.5414 150.656 52.3548 152.356 52.4096 154.24ZM97.8426 174.162L80.3334 130.175L94.0666 124.709C97.6088 123.299 100.936 123.152 104.048 124.267C107.153 125.363 109.299 127.402 110.485 130.383C112.45 135.318 111.983 139.159 109.085 141.905C108.585 142.396 107.94 142.944 107.15 143.55C110.648 143.099 113.788 144.058 116.569 146.427C118.076 147.733 119.245 149.431 120.077 151.522C121.518 155.141 121.537 158.486 120.136 161.555C118.726 164.605 115.873 166.985 111.576 168.696L97.8426 174.162ZM100.707 168.852L110.143 165.096C113.298 163.84 115.339 162.265 116.267 160.371C116.663 159.563 116.868 158.528 116.882 157.267C116.895 156.006 116.606 154.63 116.012 153.14C114.918 150.391 113.194 148.51 110.84 147.496C108.485 146.483 105.934 146.523 103.185 147.617L93.7491 151.373L100.707 168.852ZM92.2814 147.686L101.718 143.93C104.427 142.851 106.206 141.347 107.052 139.418C107.409 138.625 107.574 137.573 107.545 136.262C107.536 134.943 107.219 133.499 106.595 131.931C105.693 129.667 104.291 128.229 102.389 127.618C100.506 127 98.2096 127.23 95.4997 128.309L86.0636 132.065L92.2814 147.686ZM130.709 161.08L113.2 117.093L128.008 111.198C132.634 109.357 136.815 109.778 140.552 112.461C142.588 113.915 144.034 115.717 144.889 117.865C145.922 120.459 146.246 123.077 145.862 125.718C145.447 128.619 143.842 131.007 141.045 132.883L157.624 150.366L152.921 152.238L136.91 135.336L127.009 139.277L135.007 159.369L130.709 161.08ZM125.576 135.677L136.493 131.332C138.525 130.523 140.003 129.194 140.927 127.347C141.952 125.302 141.867 122.779 140.673 119.779C139.086 115.792 135.92 114.092 131.176 114.68C129.768 114.859 128.309 115.249 126.799 115.85L118.93 118.982L125.576 135.677ZM162.473 148.436L144.964 104.449L168.801 94.9604L170.234 98.5607L150.694 106.339L156.854 121.814L170.878 116.232L172.311 119.832L158.287 125.414L165.233 142.864L185.876 134.647L187.414 138.508L162.473 148.436ZM207.97 130.326L190.461 86.3387L197.313 83.6112L228.39 110.055L215.053 76.5497L219.35 74.8392L236.859 118.826L233.172 120.294L196.457 88.8963L212.267 128.615L207.97 130.326ZM239.485 61.5436L244.641 49.569L248.172 51.0896L242.153 62.668L239.485 61.5436ZM241.743 106.085C240.102 104.496 238.662 102.738 237.423 100.809C236.177 98.8609 235.111 96.7739 234.225 94.5479C233.338 92.322 232.659 90.0809 232.187 87.8247C231.715 85.5684 231.503 83.2875 231.549 80.9819C231.595 78.6762 231.939 76.5548 232.581 74.6177C233.234 72.6535 234.317 70.8661 235.828 69.2554C237.332 67.6254 239.197 66.3673 241.423 65.4812C243.668 64.5875 245.862 64.241 248.005 64.4419C250.159 64.6158 252.124 65.2129 253.898 66.2334C255.683 67.2267 257.376 68.5488 258.975 70.1995C261.983 73.3072 264.412 77.1838 266.261 81.8293C269.643 90.3267 269.958 97.5113 267.206 103.383C265.718 106.576 263.117 108.912 259.4 110.392C257.252 111.247 255.098 111.611 252.94 111.483C250.774 111.337 248.776 110.798 246.948 109.866C245.131 108.907 243.396 107.647 241.743 106.085ZM235.79 81.2443C235.865 83.1207 236.138 85.0188 236.611 86.9384C237.076 88.8387 237.767 90.9406 238.683 93.2439C239.6 95.5473 240.717 97.704 242.033 99.7141C243.36 101.697 244.829 103.388 246.44 104.787C248.07 106.179 249.874 107.076 251.85 107.478C253.838 107.852 255.78 107.662 257.677 106.907C259.593 106.144 261.079 105.116 262.133 103.822C263.199 102.5 263.906 101.064 264.252 99.5134C264.599 97.9627 264.709 96.2375 264.58 94.3377C264.362 90.9716 263.489 87.3723 261.964 83.5398C259.429 77.1716 256.293 72.7019 252.557 70.1307C251.223 69.2039 249.725 68.623 248.062 68.3881C246.391 68.1338 244.685 68.3534 242.943 69.0468C241.201 69.7403 239.772 70.7128 238.655 71.9643C237.558 73.2082 236.79 74.6016 236.35 76.1444C235.922 77.6602 235.736 79.3602 235.79 81.2443ZM274.212 91.5801L277.635 88.6031C277.654 88.5954 277.759 88.7445 277.948 89.0504C278.156 89.3487 278.451 89.7244 278.834 90.1777C279.235 90.6233 279.718 91.1038 280.282 91.6193C280.846 92.1347 281.536 92.6001 282.351 93.0155C283.186 93.4231 284.085 93.7379 285.048 93.9601C287.183 94.4782 289.615 94.194 292.344 93.1077C295.073 92.0213 296.809 90.4671 297.551 88.445C298.293 86.4229 298.233 84.328 297.37 82.1601C296.5 79.9728 295.392 78.4293 294.047 77.5295C292.714 76.6027 290.819 76.1236 288.363 76.0924C287.643 76.0874 286.711 76.1109 285.565 76.1632L282.426 76.303C277.013 76.6189 272.991 75.8655 270.359 74.0428C268.532 72.7747 267.159 70.9889 266.242 68.6855C265.156 65.9563 265.227 62.9795 266.455 59.7551C267.049 58.2628 268.005 56.862 269.323 55.5527C270.64 54.2435 272.17 53.2421 273.912 52.5487C275.673 51.8475 277.318 51.4731 278.846 51.4254C280.386 51.3506 281.701 51.4998 282.792 51.873C283.901 52.2385 284.966 52.7452 285.987 53.393C287.007 54.0407 287.805 54.6649 288.38 55.2655L290.077 57.0789C290.599 57.6562 290.911 57.9914 291.016 58.0844L287.819 61.0386C287.742 60.9572 287.526 60.6957 287.171 60.2541C286.827 59.7854 286.532 59.4096 286.285 59.1268C286.057 58.8363 285.692 58.4546 285.19 57.9818C284.707 57.5013 284.243 57.1252 283.799 56.8537C283.366 56.5551 282.825 56.2659 282.176 55.9863C281.538 55.6796 280.9 55.4851 280.262 55.4028C278.707 55.2145 277.126 55.4401 275.519 56.0796C273.139 57.0273 271.484 58.5043 270.556 60.5105C269.62 62.4975 269.615 64.6523 270.539 66.975C271.549 69.5107 272.916 71.0295 274.64 71.5315C275.58 71.8077 276.342 71.9753 276.926 72.0344C277.529 72.0857 278.21 72.1061 278.968 72.0958C279.738 72.0584 280.305 72.0458 280.669 72.058C281.025 72.0509 281.711 72.0018 282.729 71.9106L285.468 71.6947C290.506 71.2815 294.406 72.0946 297.169 74.1342C299.043 75.5184 300.5 77.5171 301.54 80.1302C302.295 82.0271 302.485 84.25 302.109 86.7988C301.667 90.0245 300.095 92.668 297.396 94.7294C296.377 95.4937 295.103 96.1801 293.574 96.7888C292.064 97.3898 290.493 97.7798 288.86 97.9589C287.227 98.138 285.776 98.0988 284.508 97.8414C283.259 97.5762 282.07 97.2086 280.941 96.7386C279.831 96.2609 278.877 95.7216 278.077 95.1206C276.609 94.0233 275.479 93.0155 274.687 92.0973L274.212 91.5801ZM-84.5516 347.4L-81.1287 344.423C-81.1093 344.416 -81.0051 344.565 -80.816 344.871C-80.6076 345.169 -80.3123 345.545 -79.9301 345.998C-79.5285 346.444 -79.0457 346.924 -78.4818 347.44C-77.9178 347.955 -77.228 348.421 -76.4124 348.836C-75.5775 349.243 -74.6785 349.558 -73.7156 349.78C-71.581 350.299 -69.1491 350.014 -66.4198 348.928C-63.6906 347.842 -61.9548 346.287 -61.2125 344.265C-60.4702 342.243 -60.5305 340.148 -61.3935 337.98C-62.2641 335.793 -63.3719 334.25 -64.7166 333.35C-66.0498 332.423 -67.9446 331.944 -70.4012 331.913C-71.1207 331.908 -72.0531 331.931 -73.1983 331.984L-76.338 332.123C-81.7507 332.439 -85.7729 331.686 -88.4044 329.863C-90.2321 328.595 -91.6044 326.809 -92.5213 324.506C-93.6077 321.777 -93.5369 318.8 -92.309 315.575C-91.7146 314.083 -90.7586 312.682 -89.4411 311.373C-88.1236 310.064 -86.5938 309.063 -84.8517 308.369C-83.0903 307.668 -81.4455 307.294 -79.9173 307.246C-78.3774 307.171 -77.0623 307.32 -75.972 307.693C-74.8623 308.059 -73.7973 308.566 -72.7771 309.213C-71.7569 309.861 -70.959 310.485 -70.3836 311.086L-68.6864 312.899C-68.1651 313.477 -67.8523 313.812 -67.748 313.905L-70.9446 316.859C-71.0218 316.778 -71.238 316.516 -71.5932 316.074C-71.9367 315.606 -72.232 315.23 -72.4792 314.947C-72.7069 314.657 -73.0719 314.275 -73.574 313.802C-74.0568 313.322 -74.5204 312.946 -74.9648 312.674C-75.3976 312.375 -75.9388 312.086 -76.5882 311.807C-77.226 311.5 -77.864 311.306 -78.5022 311.223C-80.0571 311.035 -81.6378 311.261 -83.2444 311.9C-85.6252 312.848 -87.2796 314.325 -88.2076 316.331C-89.1433 318.318 -89.1488 320.473 -88.2242 322.795C-87.2149 325.331 -85.8479 326.85 -84.1234 327.352C-83.1837 327.628 -82.4219 327.796 -81.8378 327.855C-81.2344 327.906 -80.5536 327.927 -79.7953 327.916C-79.0254 327.879 -78.4586 327.866 -78.0949 327.878C-77.739 327.871 -77.0522 327.822 -76.0346 327.731L-73.2953 327.515C-68.2576 327.102 -64.3574 327.915 -61.5947 329.955C-59.7208 331.339 -58.2637 333.338 -57.2235 335.951C-56.4685 337.848 -56.2788 340.07 -56.6544 342.619C-57.097 345.845 -58.6682 348.488 -61.3682 350.55C-62.3869 351.314 -63.6608 352.001 -65.19 352.609C-66.6998 353.21 -68.2711 353.6 -69.904 353.779C-71.5368 353.958 -72.9875 353.919 -74.256 353.662C-75.5051 353.397 -76.6941 353.029 -77.823 352.559C-78.9325 352.081 -79.8872 351.542 -80.687 350.941C-82.1552 349.844 -83.2851 348.836 -84.0766 347.918L-84.5516 347.4ZM-50.2996 335.347C-51.9411 333.758 -53.3811 331.999 -54.6197 330.071C-55.866 328.123 -56.9322 326.036 -57.8183 323.81C-58.7043 321.584 -59.3834 319.343 -59.8555 317.087C-60.3275 314.83 -60.5403 312.549 -60.4939 310.244C-60.4475 307.938 -60.1035 305.817 -59.4619 303.88C-58.8087 301.915 -57.7263 300.128 -56.2148 298.517C-54.7111 296.887 -52.8462 295.629 -50.6202 294.743C-48.3749 293.849 -46.1808 293.503 -44.0379 293.704C-41.8833 293.878 -39.9191 294.475 -38.1451 295.495C-36.3594 296.489 -34.6672 297.811 -33.0683 299.461C-30.0598 302.569 -27.631 306.446 -25.7819 311.091C-22.3994 319.589 -22.0846 326.773 -24.8373 332.645C-26.3244 335.838 -28.9261 338.174 -32.6425 339.654C-34.791 340.509 -36.9446 340.873 -39.1031 340.745C-41.2693 340.599 -43.2665 340.059 -45.0948 339.128C-46.9115 338.169 -48.6464 336.909 -50.2996 335.347ZM-56.2524 310.506C-56.1781 312.383 -55.9047 314.281 -55.4321 316.2C-54.9672 318.101 -54.2763 320.202 -53.3594 322.506C-52.4425 324.809 -51.3262 326.966 -50.0103 328.976C-48.6828 330.959 -47.2137 332.65 -45.6028 334.049C-43.9725 335.441 -42.1693 336.338 -40.1931 336.739C-38.2052 337.114 -36.2628 336.924 -34.3659 336.169C-32.4497 335.406 -30.9643 334.378 -29.9099 333.083C-28.8438 331.762 -28.1373 330.326 -27.7904 328.775C-27.4434 327.225 -27.3342 325.499 -27.4625 323.6C-27.6812 320.233 -28.5534 316.634 -30.0789 312.802C-32.6138 306.433 -35.7496 301.964 -39.4863 299.393C-40.8194 298.466 -42.3176 297.885 -43.9807 297.65C-45.6515 297.396 -47.358 297.615 -49.1 298.309C-50.8421 299.002 -52.2713 299.975 -53.3875 301.226C-54.4844 302.47 -55.2528 303.863 -55.6925 305.406C-56.1206 306.922 -56.3072 308.622 -56.2524 310.506ZM-10.8194 330.429L-28.3286 286.442L-14.5954 280.975C-11.0532 279.565 -7.72591 279.418 -4.61352 280.533C-1.50882 281.63 0.636796 283.668 1.82334 286.649C3.78807 291.585 3.32126 295.426 0.422896 298.171C-0.0769839 298.662 -0.722035 299.21 -1.51226 299.816C1.98576 299.365 5.12551 300.324 7.90697 302.693C9.41355 303.999 10.5829 305.697 11.415 307.788C12.8558 311.407 12.8754 314.752 11.4736 317.821C10.0642 320.871 7.21093 323.252 2.91385 324.962L-10.8194 330.429ZM-7.95541 325.118L1.48075 321.362C4.63581 320.106 6.67724 318.531 7.60503 316.637C8.00098 315.829 8.20582 314.794 8.21955 313.533C8.23327 312.272 7.94349 310.896 7.35022 309.406C6.25613 306.657 4.53193 304.776 2.17762 303.762C-0.17669 302.749 -2.72814 302.789 -5.47672 303.883L-14.9129 307.639L-7.95541 325.118ZM-16.3806 303.952L-6.94449 300.196C-4.23462 299.117 -2.45638 297.613 -1.60978 295.684C-1.25253 294.892 -1.08828 293.84 -1.11703 292.528C-1.12643 291.209 -1.44317 289.765 -2.06726 288.198C-2.96873 285.933 -4.37064 284.495 -6.27299 283.885C-8.15599 283.266 -10.4524 283.497 -13.1623 284.575L-22.5985 288.331L-16.3806 303.952ZM22.0475 317.346L4.53823 273.359L19.3457 267.465C23.9719 265.623 28.1532 266.044 31.8897 268.727C33.926 270.182 35.3718 271.983 36.227 274.132C37.2595 276.725 37.5839 279.343 37.2004 281.985C36.7854 284.885 35.1798 287.274 32.3835 289.149L48.9623 306.632L44.2587 308.504L28.2476 291.603L18.3469 295.544L26.3446 315.635L22.0475 317.346ZM16.9138 291.943L27.8307 287.598C29.8631 286.789 31.3413 285.46 32.2651 283.613C33.2899 281.568 33.2051 279.045 32.0109 276.045C30.4237 272.058 27.2581 270.358 22.5141 270.946C21.1056 271.125 19.6465 271.516 18.1367 272.117L10.2684 275.249L16.9138 291.943ZM53.811 304.702L36.3018 260.715L60.139 251.227L61.5721 254.827L42.032 262.605L48.192 278.08L62.2156 272.498L63.6487 276.098L49.6251 281.68L56.571 299.13L77.2144 290.913L78.7515 294.774L53.811 304.702ZM99.3078 286.592L81.7986 242.605L88.6507 239.877L119.728 266.322L106.391 232.816L110.688 231.105L128.197 275.092L124.51 276.56L87.7946 245.162L103.605 284.881L99.3078 286.592ZM130.823 217.81L135.979 205.835L139.51 207.356L133.491 218.934L130.823 217.81ZM133.081 262.351C131.44 260.763 130 259.004 128.761 257.075C127.515 255.127 126.449 253.04 125.563 250.814C124.676 248.588 123.997 246.347 123.525 244.091C123.053 241.835 122.84 239.554 122.887 237.248C122.933 234.942 123.277 232.821 123.919 230.884C124.572 228.92 125.655 227.132 127.166 225.522C128.67 223.892 130.535 222.634 132.761 221.747C135.006 220.854 137.2 220.507 139.343 220.708C141.497 220.882 143.462 221.479 145.236 222.5C147.021 223.493 148.714 224.815 150.313 226.466C153.321 229.573 155.75 233.45 157.599 238.096C160.981 246.593 161.296 253.778 158.544 259.649C157.056 262.842 154.455 265.179 150.738 266.658C148.59 267.513 146.436 267.877 144.278 267.75C142.112 267.603 140.114 267.064 138.286 266.132C136.469 265.174 134.734 263.913 133.081 262.351ZM127.128 237.511C127.203 239.387 127.476 241.285 127.949 243.205C128.414 245.105 129.105 247.207 130.021 249.51C130.938 251.814 132.055 253.97 133.37 255.98C134.698 257.963 136.167 259.654 137.778 261.054C139.408 262.445 141.212 263.342 143.188 263.744C145.176 264.118 147.118 263.928 149.015 263.173C150.931 262.41 152.417 261.382 153.471 260.088C154.537 258.766 155.244 257.33 155.59 255.78C155.937 254.229 156.047 252.504 155.918 250.604C155.7 247.238 154.827 243.639 153.302 239.806C150.767 233.438 147.631 228.968 143.895 226.397C142.561 225.47 141.063 224.889 139.4 224.654C137.729 224.4 136.023 224.62 134.281 225.313C132.539 226.006 131.11 226.979 129.993 228.231C128.896 229.474 128.128 230.868 127.688 232.411C127.26 233.926 127.074 235.626 127.128 237.511ZM165.55 247.846L168.973 244.869C168.992 244.862 169.097 245.011 169.286 245.317C169.494 245.615 169.789 245.991 170.172 246.444C170.573 246.889 171.056 247.37 171.62 247.885C172.184 248.401 172.874 248.866 173.689 249.282C174.524 249.689 175.423 250.004 176.386 250.226C178.521 250.744 180.953 250.46 183.682 249.374C186.411 248.287 188.147 246.733 188.889 244.711C189.631 242.689 189.571 240.594 188.708 238.426C187.838 236.239 186.73 234.695 185.385 233.796C184.052 232.869 182.157 232.39 179.701 232.359C178.981 232.354 178.049 232.377 176.903 232.429L173.764 232.569C168.351 232.885 164.329 232.132 161.697 230.309C159.87 229.041 158.497 227.255 157.58 224.952C156.494 222.223 156.565 219.246 157.793 216.021C158.387 214.529 159.343 213.128 160.661 211.819C161.978 210.51 163.508 209.508 165.25 208.815C167.011 208.114 168.656 207.739 170.184 207.692C171.724 207.617 173.039 207.766 174.13 208.139C175.239 208.505 176.304 209.011 177.325 209.659C178.345 210.307 179.143 210.931 179.718 211.532L181.415 213.345C181.937 213.922 182.249 214.258 182.354 214.351L179.157 217.305C179.08 217.223 178.864 216.962 178.509 216.52C178.165 216.052 177.87 215.676 177.623 215.393C177.395 215.102 177.03 214.721 176.528 214.248C176.045 213.767 175.581 213.391 175.137 213.12C174.704 212.821 174.163 212.532 173.513 212.253C172.876 211.946 172.238 211.751 171.599 211.669C170.045 211.481 168.464 211.706 166.857 212.346C164.476 213.293 162.822 214.77 161.894 216.777C160.958 218.764 160.953 220.919 161.877 223.241C162.887 225.777 164.254 227.296 165.978 227.798C166.918 228.074 167.68 228.242 168.264 228.301C168.867 228.352 169.548 228.372 170.306 228.362C171.076 228.325 171.643 228.312 172.007 228.324C172.363 228.317 173.049 228.268 174.067 228.177L176.806 227.961C181.844 227.548 185.744 228.361 188.507 230.4C190.381 231.785 191.838 233.783 192.878 236.396C193.633 238.293 193.823 240.516 193.447 243.065C193.005 246.291 191.433 248.934 188.734 250.996C187.715 251.76 186.441 252.446 184.912 253.055C183.402 253.656 181.831 254.046 180.198 254.225C178.565 254.404 177.114 254.365 175.846 254.108C174.597 253.842 173.408 253.475 172.279 253.005C171.169 252.527 170.215 251.988 169.415 251.387C167.947 250.289 166.817 249.282 166.025 248.364L165.55 247.846ZM210.437 229.979L213.86 227.002C213.879 226.994 213.984 227.143 214.173 227.449C214.381 227.747 214.676 228.123 215.059 228.576C215.46 229.022 215.943 229.502 216.507 230.018C217.071 230.533 217.761 230.999 218.576 231.414C219.411 231.822 220.31 232.137 221.273 232.359C223.408 232.877 225.84 232.593 228.569 231.506C231.298 230.42 233.034 228.866 233.776 226.844C234.519 224.822 234.458 222.727 233.595 220.559C232.725 218.371 231.617 216.828 230.272 215.928C228.939 215.001 227.044 214.522 224.588 214.491C223.868 214.486 222.936 214.51 221.79 214.562L218.651 214.702C213.238 215.018 209.216 214.264 206.584 212.441C204.757 211.173 203.384 209.388 202.467 207.084C201.381 204.355 201.452 201.378 202.68 198.154C203.274 196.661 204.23 195.261 205.548 193.951C206.865 192.642 208.395 191.641 210.137 190.947C211.898 190.246 213.543 189.872 215.072 189.824C216.611 189.749 217.926 189.898 219.017 190.272C220.126 190.637 221.191 191.144 222.212 191.792C223.232 192.439 224.03 193.064 224.605 193.664L226.302 195.478C226.824 196.055 227.137 196.39 227.241 196.483L224.044 199.437C223.967 199.356 223.751 199.094 223.396 198.653C223.052 198.184 222.757 197.808 222.51 197.526C222.282 197.235 221.917 196.853 221.415 196.38C220.932 195.9 220.468 195.524 220.024 195.252C219.591 194.954 219.05 194.665 218.401 194.385C217.763 194.078 217.125 193.884 216.487 193.801C214.932 193.613 213.351 193.839 211.744 194.478C209.364 195.426 207.709 196.903 206.781 198.909C205.846 200.896 205.84 203.051 206.765 205.374C207.774 207.909 209.141 209.428 210.865 209.93C211.805 210.206 212.567 210.374 213.151 210.433C213.754 210.484 214.435 210.505 215.194 210.495C215.963 210.457 216.53 210.445 216.894 210.457C217.25 210.45 217.937 210.4 218.954 210.309L221.694 210.093C226.731 209.68 230.631 210.493 233.394 212.533C235.268 213.917 236.725 215.916 237.765 218.529C238.52 220.426 238.71 222.649 238.334 225.197C237.892 228.423 236.321 231.067 233.621 233.128C232.602 233.892 231.328 234.579 229.799 235.188C228.289 235.788 226.718 236.179 225.085 236.358C223.452 236.537 222.001 236.498 220.733 236.24C219.484 235.975 218.295 235.607 217.166 235.137C216.056 234.66 215.102 234.12 214.302 233.519C212.834 232.422 211.704 231.414 210.912 230.496L210.437 229.979ZM244.689 217.925C243.048 216.336 241.608 214.578 240.369 212.649C239.123 210.701 238.057 208.614 237.171 206.388C236.284 204.162 235.605 201.921 235.133 199.665C234.661 197.409 234.448 195.128 234.495 192.822C234.541 190.516 234.885 188.395 235.527 186.458C236.18 184.494 237.262 182.706 238.774 181.096C240.278 179.465 242.143 178.207 244.369 177.321C246.614 176.428 248.808 176.081 250.951 176.282C253.105 176.456 255.07 177.053 256.844 178.073C258.629 179.067 260.322 180.389 261.92 182.04C264.929 185.147 267.358 189.024 269.207 193.669C272.589 202.167 272.904 209.351 270.151 215.223C268.664 218.416 266.063 220.753 262.346 222.232C260.198 223.087 258.044 223.451 255.886 223.324C253.72 223.177 251.722 222.638 249.894 221.706C248.077 220.747 246.342 219.487 244.689 217.925ZM238.736 193.084C238.811 194.961 239.084 196.859 239.557 198.779C240.022 200.679 240.713 202.781 241.629 205.084C242.546 207.387 243.663 209.544 244.978 211.554C246.306 213.537 247.775 215.228 249.386 216.628C251.016 218.019 252.819 218.916 254.796 219.318C256.784 219.692 258.726 219.502 260.623 218.747C262.539 217.984 264.024 216.956 265.079 215.662C266.145 214.34 266.852 212.904 267.198 211.354C267.545 209.803 267.655 208.078 267.526 206.178C267.308 202.812 266.435 199.212 264.91 195.38C262.375 189.012 259.239 184.542 255.502 181.971C254.169 181.044 252.671 180.463 251.008 180.228C249.337 179.974 247.631 180.194 245.889 180.887C244.147 181.58 242.718 182.553 241.601 183.804C240.504 185.048 239.736 186.442 239.296 187.985C238.868 189.5 238.682 191.2 238.736 193.084ZM284.169 213.007L266.66 169.02L280.393 163.553C283.936 162.143 287.263 161.996 290.375 163.112C293.48 164.208 295.626 166.246 296.812 169.227C298.777 174.163 298.31 178.004 295.412 180.75C294.912 181.24 294.267 181.788 293.477 182.394C296.975 181.944 300.114 182.903 302.896 185.271C304.402 186.577 305.572 188.276 306.404 190.366C307.845 193.986 307.864 197.33 306.462 200.4C305.053 203.45 302.2 205.83 297.903 207.54L284.169 213.007ZM287.033 207.696L296.47 203.94C299.625 202.684 301.666 201.109 302.594 199.215C302.99 198.407 303.195 197.373 303.208 196.112C303.222 194.85 302.932 193.475 302.339 191.984C301.245 189.236 299.521 187.354 297.166 186.341C294.812 185.327 292.261 185.367 289.512 186.461L280.076 190.217L287.033 207.696ZM278.608 186.53L288.044 182.774C290.754 181.695 292.532 180.191 293.379 178.262C293.736 177.47 293.901 176.418 293.872 175.106C293.862 173.787 293.546 172.344 292.922 170.776C292.02 168.511 290.618 167.074 288.716 166.463C286.833 165.845 284.536 166.075 281.826 167.154L272.39 170.91L278.608 186.53ZM317.036 199.924L299.527 155.937L314.335 150.043C318.961 148.201 323.142 148.622 326.878 151.306C328.915 152.76 330.361 154.561 331.216 156.71C332.248 159.304 332.573 161.921 332.189 164.563C331.774 167.464 330.169 169.852 327.372 171.727L343.951 189.21L339.248 191.083L323.236 174.181L313.336 178.122L321.333 198.214L317.036 199.924ZM311.903 174.522L322.82 170.176C324.852 169.367 326.33 168.039 327.254 166.191C328.279 164.146 328.194 161.624 327 158.624C325.412 154.636 322.247 152.936 317.503 153.524C316.094 153.704 314.635 154.094 313.125 154.695L305.257 157.827L311.903 174.522ZM348.8 187.28L331.291 143.293L355.128 133.805L356.561 137.405L337.021 145.183L343.181 160.658L357.204 155.076L358.637 158.677L344.614 164.259L351.56 181.708L372.203 173.491L373.74 177.353L348.8 187.28ZM394.297 169.17L376.787 125.183L383.639 122.456L414.717 148.9L401.379 115.394L405.677 113.684L423.186 157.671L419.498 159.139L382.783 127.741L398.594 167.46L394.297 169.17ZM425.812 100.388L430.968 88.4135L434.499 89.934L428.479 101.513L425.812 100.388ZM428.07 144.93C426.429 143.341 424.988 141.582 423.75 139.653C422.504 137.705 421.437 135.618 420.551 133.392C419.665 131.166 418.986 128.925 418.514 126.669C418.042 124.413 417.829 122.132 417.876 119.826C417.922 117.521 418.266 115.399 418.908 113.462C419.561 111.498 420.643 109.711 422.155 108.1C423.659 106.47 425.523 105.212 427.749 104.326C429.995 103.432 432.189 103.086 434.332 103.286C436.486 103.46 438.451 104.057 440.225 105.078C442.01 106.071 443.702 107.393 445.301 109.044C448.31 112.152 450.739 116.028 452.588 120.674C455.97 129.171 456.285 136.356 453.532 142.228C452.045 145.421 449.444 147.757 445.727 149.236C443.579 150.091 441.425 150.455 439.267 150.328C437.1 150.181 435.103 149.642 433.275 148.71C431.458 147.752 429.723 146.492 428.07 144.93ZM422.117 120.089C422.191 121.965 422.465 123.863 422.938 125.783C423.402 127.683 424.093 129.785 425.01 132.088C425.927 134.392 427.043 136.549 428.359 138.559C429.687 140.542 431.156 142.233 432.767 143.632C434.397 145.024 436.2 145.92 438.177 146.322C440.164 146.697 442.107 146.507 444.004 145.752C445.92 144.989 447.405 143.96 448.46 142.666C449.526 141.345 450.232 139.909 450.579 138.358C450.926 136.807 451.035 135.082 450.907 133.182C450.688 129.816 449.816 126.217 448.291 122.384C445.756 116.016 442.62 111.546 438.883 108.975C437.55 108.048 436.052 107.467 434.389 107.233C432.718 106.978 431.012 107.198 429.27 107.891C427.528 108.585 426.098 109.557 424.982 110.809C423.885 112.053 423.117 113.446 422.677 114.989C422.249 116.505 422.062 118.205 422.117 120.089ZM460.539 130.425L463.962 127.448C463.981 127.44 464.085 127.589 464.274 127.895C464.483 128.193 464.778 128.569 465.16 129.022C465.562 129.468 466.045 129.948 466.609 130.464C467.173 130.979 467.862 131.445 468.678 131.86C469.513 132.268 470.412 132.582 471.375 132.805C473.51 133.323 475.941 133.039 478.671 131.952C481.4 130.866 483.136 129.312 483.878 127.289C484.62 125.267 484.56 123.172 483.697 121.005C482.826 118.817 481.719 117.274 480.374 116.374C479.041 115.447 477.146 114.968 474.689 114.937C473.97 114.932 473.037 114.955 471.892 115.008L468.753 115.147C463.34 115.463 459.318 114.71 456.686 112.887C454.858 111.619 453.486 109.833 452.569 107.53C451.483 104.801 451.554 101.824 452.781 98.5996C453.376 97.1073 454.332 95.7065 455.649 94.3972C456.967 93.0879 458.497 92.0866 460.239 91.3932C462 90.692 463.645 90.3176 465.173 90.2699C466.713 90.1951 468.028 90.3443 469.119 90.7175C470.228 91.083 471.293 91.5897 472.313 92.2374C473.334 92.8852 474.131 93.5094 474.707 94.11L476.404 95.9234C476.925 96.5007 477.238 96.8359 477.343 96.9289L474.146 99.883C474.069 99.8017 473.852 99.5402 473.497 99.0986C473.154 98.6299 472.858 98.2541 472.611 97.9713C472.384 97.6808 472.019 97.2991 471.516 96.8263C471.034 96.3457 470.57 95.9697 470.126 95.6982C469.693 95.3995 469.152 95.1104 468.502 94.8308C467.864 94.5241 467.226 94.3296 466.588 94.2473C465.033 94.059 463.453 94.2846 461.846 94.9241C459.465 95.8718 457.811 97.3487 456.883 99.355C455.947 101.342 455.942 103.497 456.866 105.82C457.876 108.355 459.243 109.874 460.967 110.376C461.907 110.652 462.669 110.82 463.253 110.879C463.856 110.93 464.537 110.951 465.295 110.94C466.065 110.903 466.632 110.89 466.996 110.903C467.351 110.895 468.038 110.846 469.056 110.755L471.795 110.539C476.833 110.126 480.733 110.939 483.496 112.979C485.37 114.363 486.827 116.362 487.867 118.975C488.622 120.872 488.812 123.094 488.436 125.643C487.994 128.869 486.422 131.513 483.722 133.574C482.704 134.338 481.43 135.025 479.901 135.633C478.391 136.234 476.819 136.624 475.187 136.803C473.554 136.982 472.103 136.943 470.834 136.686C469.585 136.421 468.396 136.053 467.268 135.583C466.158 135.105 465.203 134.566 464.404 133.965C462.935 132.868 461.805 131.86 461.014 130.942L460.539 130.425ZM101.775 386.245L105.198 383.268C105.217 383.26 105.322 383.409 105.511 383.715C105.719 384.014 106.014 384.389 106.397 384.843C106.798 385.288 107.281 385.769 107.845 386.284C108.409 386.8 109.099 387.265 109.914 387.68C110.749 388.088 111.648 388.403 112.611 388.625C114.746 389.143 117.178 388.859 119.907 387.773C122.636 386.686 124.372 385.132 125.114 383.11C125.857 381.088 125.796 378.993 124.933 376.825C124.063 374.638 122.955 373.094 121.61 372.194C120.277 371.268 118.382 370.789 115.926 370.757C115.206 370.752 114.274 370.776 113.128 370.828L109.989 370.968C104.576 371.284 100.554 370.53 97.9224 368.708C96.0946 367.44 94.7223 365.654 93.8055 363.35C92.7191 360.621 92.7898 357.644 94.0177 354.42C94.6122 352.928 95.5681 351.527 96.8857 350.218C98.2032 348.908 99.733 347.907 101.475 347.214C103.236 346.512 104.881 346.138 106.409 346.09C107.949 346.015 109.264 346.165 110.355 346.538C111.464 346.903 112.529 347.41 113.55 348.058C114.57 348.706 115.368 349.33 115.943 349.93L117.64 351.744C118.162 352.321 118.474 352.656 118.579 352.749L115.382 355.703C115.305 355.622 115.089 355.361 114.734 354.919C114.39 354.45 114.095 354.075 113.848 353.792C113.62 353.501 113.255 353.12 112.753 352.647C112.27 352.166 111.806 351.79 111.362 351.519C110.929 351.22 110.388 350.931 109.739 350.651C109.101 350.345 108.463 350.15 107.825 350.068C106.27 349.879 104.689 350.105 103.082 350.744C100.702 351.692 99.0472 353.169 98.1192 355.175C97.1835 357.162 97.178 359.317 98.1025 361.64C99.1119 364.176 100.479 365.694 102.203 366.196C103.143 366.473 103.905 366.64 104.489 366.699C105.092 366.751 105.773 366.771 106.531 366.761C107.301 366.723 107.868 366.711 108.232 366.723C108.588 366.716 109.275 366.667 110.292 366.576L113.032 366.36C118.069 365.946 121.969 366.76 124.732 368.799C126.606 370.183 128.063 372.182 129.103 374.795C129.858 376.692 130.048 378.915 129.672 381.464C129.23 384.689 127.659 387.333 124.959 389.394C123.94 390.159 122.666 390.845 121.137 391.454C119.627 392.055 118.056 392.445 116.423 392.624C114.79 392.803 113.339 392.764 112.071 392.506C110.822 392.241 109.633 391.874 108.504 391.404C107.394 390.926 106.44 390.386 105.64 389.785C104.172 388.688 103.042 387.68 102.25 386.762L101.775 386.245ZM136.027 374.192C134.386 372.603 132.946 370.844 131.707 368.915C130.461 366.967 129.395 364.88 128.508 362.654C127.622 360.428 126.943 358.187 126.471 355.931C125.999 353.675 125.786 351.394 125.833 349.088C125.879 346.783 126.223 344.661 126.865 342.724C127.518 340.76 128.6 338.972 130.112 337.362C131.616 335.732 133.481 334.474 135.707 333.588C137.952 332.694 140.146 332.347 142.289 332.548C144.443 332.722 146.408 333.319 148.182 334.34C149.967 335.333 151.66 336.655 153.258 338.306C156.267 341.414 158.696 345.29 160.545 349.936C163.927 358.433 164.242 365.618 161.489 371.49C160.002 374.683 157.401 377.019 153.684 378.498C151.536 379.353 149.382 379.717 147.224 379.59C145.058 379.443 143.06 378.904 141.232 377.972C139.415 377.014 137.68 375.753 136.027 374.192ZM130.074 349.351C130.149 351.227 130.422 353.125 130.895 355.045C131.36 356.945 132.05 359.047 132.967 361.35C133.884 363.654 135.001 365.81 136.316 367.82C137.644 369.803 139.113 371.495 140.724 372.894C142.354 374.285 144.157 375.182 146.134 375.584C148.122 375.959 150.064 375.768 151.961 375.013C153.877 374.251 155.362 373.222 156.417 371.928C157.483 370.607 158.19 369.171 158.536 367.62C158.883 366.069 158.993 364.344 158.864 362.444C158.646 359.078 157.773 355.479 156.248 351.646C153.713 345.278 150.577 340.808 146.84 338.237C145.507 337.31 144.009 336.729 142.346 336.494C140.675 336.24 138.969 336.46 137.227 337.153C135.485 337.847 134.056 338.819 132.939 340.071C131.842 341.315 131.074 342.708 130.634 344.251C130.206 345.767 130.02 347.467 130.074 349.351ZM175.507 369.273L157.998 325.286L171.731 319.819C175.274 318.41 178.601 318.262 181.713 319.378C184.818 320.474 186.964 322.512 188.15 325.493C190.115 330.429 189.648 334.27 186.75 337.016C186.25 337.506 185.605 338.054 184.815 338.661C188.313 338.21 191.452 339.169 194.234 341.537C195.74 342.843 196.91 344.542 197.742 346.632C199.183 350.252 199.202 353.596 197.8 356.666C196.391 359.716 193.538 362.096 189.241 363.807L175.507 369.273ZM178.371 363.962L187.808 360.206C190.963 358.95 193.004 357.375 193.932 355.481C194.328 354.673 194.533 353.639 194.546 352.378C194.56 351.117 194.27 349.741 193.677 348.25C192.583 345.502 190.859 343.621 188.504 342.607C186.15 341.593 183.599 341.633 180.85 342.728L171.414 346.484L178.371 363.962ZM169.946 342.796L179.382 339.04C182.092 337.962 183.87 336.458 184.717 334.529C185.074 333.736 185.238 332.684 185.21 331.373C185.2 330.053 184.884 328.61 184.26 327.042C183.358 324.777 181.956 323.34 180.054 322.729C178.171 322.111 175.874 322.341 173.164 323.42L163.728 327.176L169.946 342.796ZM208.374 356.19L190.865 312.203L205.673 306.309C210.299 304.468 214.48 304.889 218.216 307.572C220.253 309.026 221.699 310.827 222.554 312.976C223.586 315.57 223.911 318.187 223.527 320.829C223.112 323.73 221.507 326.118 218.71 327.993L235.289 345.477L230.586 347.349L214.574 330.447L204.674 334.388L212.671 354.48L208.374 356.19ZM203.241 330.788L214.158 326.442C216.19 325.633 217.668 324.305 218.592 322.457C219.617 320.412 219.532 317.89 218.338 314.89C216.75 310.902 213.585 309.203 208.841 309.79C207.432 309.97 205.973 310.36 204.463 310.961L196.595 314.093L203.241 330.788ZM240.138 343.547L222.629 299.56L246.466 290.071L247.899 293.671L228.359 301.449L234.519 316.925L248.542 311.343L249.975 314.943L235.952 320.525L242.898 337.975L263.541 329.757L265.078 333.619L240.138 343.547ZM285.635 325.436L268.125 281.449L274.977 278.722L306.055 305.166L292.717 271.66L297.015 269.95L314.524 313.937L310.836 315.405L274.121 284.007L289.932 323.726L285.635 325.436ZM317.15 256.654L322.306 244.68L325.837 246.2L319.817 257.779L317.15 256.654ZM319.408 301.196C317.767 299.607 316.326 297.848 315.088 295.92C313.842 293.972 312.775 291.885 311.889 289.659C311.003 287.433 310.324 285.192 309.852 282.935C309.38 280.679 309.167 278.398 309.214 276.093C309.26 273.787 309.604 271.666 310.246 269.728C310.899 267.764 311.981 265.977 313.493 264.366C314.997 262.736 316.861 261.478 319.087 260.592C321.333 259.698 323.527 259.352 325.67 259.553C327.824 259.726 329.789 260.324 331.563 261.344C333.348 262.337 335.04 263.659 336.639 265.31C339.648 268.418 342.077 272.295 343.926 276.94C347.308 285.437 347.623 292.622 344.87 298.494C343.383 301.687 340.782 304.023 337.065 305.502C334.917 306.358 332.763 306.722 330.605 306.594C328.438 306.447 326.441 305.908 324.613 304.977C322.796 304.018 321.061 302.758 319.408 301.196ZM313.455 276.355C313.529 278.231 313.803 280.129 314.276 282.049C314.74 283.949 315.431 286.051 316.348 288.355C317.265 290.658 318.381 292.815 319.697 294.825C321.025 296.808 322.494 298.499 324.105 299.898C325.735 301.29 327.538 302.186 329.515 302.588C331.502 302.963 333.445 302.773 335.342 302.018C337.258 301.255 338.743 300.226 339.798 298.932C340.864 297.611 341.57 296.175 341.917 294.624C342.264 293.073 342.373 291.348 342.245 289.448C342.026 286.082 341.154 282.483 339.629 278.65C337.094 272.282 333.958 267.813 330.221 265.241C328.888 264.315 327.39 263.734 325.727 263.499C324.056 263.245 322.35 263.464 320.608 264.158C318.866 264.851 317.436 265.823 316.32 267.075C315.223 268.319 314.455 269.712 314.015 271.255C313.587 272.771 313.4 274.471 313.455 276.355ZM351.877 286.691L355.3 283.714C355.319 283.706 355.423 283.855 355.612 284.161C355.821 284.459 356.116 284.835 356.498 285.288C356.9 285.734 357.383 286.214 357.947 286.73C358.511 287.245 359.2 287.711 360.016 288.126C360.851 288.534 361.75 288.849 362.713 289.071C364.847 289.589 367.279 289.305 370.009 288.218C372.738 287.132 374.474 285.578 375.216 283.556C375.958 281.534 375.898 279.439 375.035 277.271C374.164 275.083 373.057 273.54 371.712 272.64C370.379 271.713 368.484 271.234 366.027 271.203C365.308 271.198 364.375 271.222 363.23 271.274L360.091 271.414C354.678 271.73 350.656 270.976 348.024 269.153C346.196 267.885 344.824 266.1 343.907 263.796C342.821 261.067 342.892 258.09 344.119 254.866C344.714 253.373 345.67 251.973 346.987 250.663C348.305 249.354 349.835 248.353 351.577 247.659C353.338 246.958 354.983 246.584 356.511 246.536C358.051 246.461 359.366 246.61 360.456 246.984C361.566 247.349 362.631 247.856 363.651 248.504C364.672 249.151 365.469 249.776 366.045 250.376L367.742 252.19C368.263 252.767 368.576 253.102 368.681 253.195L365.484 256.149C365.407 256.068 365.19 255.806 364.835 255.365C364.492 254.896 364.196 254.52 363.949 254.238C363.722 253.947 363.357 253.565 362.854 253.092C362.372 252.612 361.908 252.236 361.464 251.964C361.031 251.666 360.49 251.377 359.84 251.097C359.202 250.79 358.564 250.596 357.926 250.513C356.371 250.325 354.791 250.551 353.184 251.19C350.803 252.138 349.149 253.615 348.221 255.621C347.285 257.608 347.28 259.763 348.204 262.086C349.214 264.621 350.581 266.14 352.305 266.642C353.245 266.918 354.007 267.086 354.591 267.145C355.194 267.196 355.875 267.217 356.633 267.207C357.403 267.169 357.97 267.157 358.334 267.169C358.689 267.162 359.376 267.112 360.394 267.021L363.133 266.805C368.171 266.392 372.071 267.205 374.834 269.245C376.708 270.629 378.165 272.628 379.205 275.241C379.96 277.138 380.15 279.361 379.774 281.909C379.331 285.135 377.76 287.779 375.06 289.84C374.042 290.604 372.768 291.291 371.239 291.9C369.729 292.5 368.157 292.891 366.525 293.07C364.892 293.249 363.441 293.21 362.172 292.952C360.923 292.687 359.734 292.319 358.605 291.849C357.496 291.372 356.541 290.832 355.742 290.231C354.273 289.134 353.143 288.126 352.352 287.208L351.877 286.691ZM-6.88685 542.511L-3.46389 539.534C-3.44453 539.526 -3.34033 539.676 -3.15128 539.982C-2.94287 540.28 -2.64755 540.656 -2.26531 541.109C-1.86372 541.554 -1.38095 542.035 -0.816986 542.55C-0.253027 543.066 0.436748 543.531 1.25234 543.947C2.08728 544.354 2.98622 544.669 3.94914 544.891C6.08377 545.409 8.5157 545.125 11.2449 544.039C13.9742 542.952 15.7099 541.398 16.4522 539.376C17.1945 537.354 17.1342 535.259 16.2713 533.091C15.4006 530.904 14.2929 529.36 12.9481 528.461C11.615 527.534 9.72016 527.055 7.26361 527.024C6.54405 527.018 5.61167 527.042 4.46645 527.094L1.3268 527.234C-4.08598 527.55 -8.10812 526.797 -10.7396 524.974C-12.5674 523.706 -13.9397 521.92 -14.8566 519.617C-15.9429 516.887 -15.8722 513.911 -14.6443 510.686C-14.0499 509.194 -13.0939 507.793 -11.7763 506.484C-10.4588 505.175 -8.929 504.173 -7.18694 503.48C-5.42552 502.779 -3.78072 502.404 -2.25252 502.356C-0.712665 502.282 0.602428 502.431 1.69276 502.804C2.80246 503.17 3.86742 503.676 4.88766 504.324C5.9079 504.972 6.70573 505.596 7.28115 506.197L8.97838 508.01C9.49968 508.587 9.81248 508.923 9.91678 509.016L6.72018 511.97C6.64294 511.888 6.42674 511.627 6.07156 511.185C5.72804 510.717 5.43272 510.341 5.1856 510.058C4.95783 509.767 4.59289 509.386 4.09075 508.913C3.60798 508.432 3.14437 508.056 2.69993 507.785C2.26714 507.486 1.72601 507.197 1.07655 506.917C0.438734 506.611 -0.199268 506.416 -0.837459 506.334C-2.39234 506.146 -3.97307 506.371 -5.57964 507.011C-7.96045 507.958 -9.61485 509.435 -10.5428 511.442C-11.4785 513.429 -11.4841 515.583 -10.5595 517.906C-9.55014 520.442 -8.18318 521.961 -6.4586 522.463C-5.51898 522.739 -4.75714 522.906 -4.17307 522.965C-3.56964 523.017 -2.88879 523.037 -2.13052 523.027C-1.36059 522.99 -0.793815 522.977 -0.430181 522.989C-0.0742528 522.982 0.612517 522.933 1.63013 522.842L4.3695 522.626C9.40719 522.213 13.3074 523.026 16.07 525.065C17.944 526.45 19.4011 528.448 20.4412 531.061C21.1963 532.958 21.386 535.181 21.0103 537.73C20.5678 540.956 18.9965 543.599 16.2966 545.66C15.2779 546.425 14.0039 547.111 12.4748 547.72C10.965 548.321 9.39367 548.711 7.7608 548.89C6.12792 549.069 4.67724 549.03 3.40875 548.772C2.15962 548.507 0.970627 548.14 -0.158233 547.67C-1.26774 547.192 -2.22239 546.653 -3.02219 546.052C-4.49044 544.954 -5.62033 543.947 -6.41187 543.028L-6.88685 542.511ZM27.3652 530.458C25.7237 528.869 24.2836 527.11 23.045 525.181C21.7987 523.233 20.7325 521.146 19.8465 518.92C18.9604 516.695 18.2814 514.453 17.8093 512.197C17.3372 509.941 17.1244 507.66 17.1709 505.354C17.2173 503.049 17.5613 500.927 18.2029 498.99C18.8561 497.026 19.9384 495.239 21.4499 493.628C22.9537 491.998 24.8186 490.74 27.0445 489.854C29.2899 488.96 31.484 488.614 33.6269 488.814C35.7814 488.988 37.7457 489.585 39.5197 490.606C41.3053 491.599 42.9976 492.921 44.5965 494.572C47.6049 497.68 50.0337 501.556 51.8829 506.202C55.2653 514.699 55.5802 521.884 52.8274 527.756C51.3404 530.949 48.7387 533.285 45.0223 534.764C42.8737 535.619 40.7202 535.983 38.5617 535.856C36.3955 535.709 34.3983 535.17 32.5699 534.238C30.7533 533.28 29.0184 532.02 27.3652 530.458ZM21.4124 505.617C21.4866 507.493 21.76 509.391 22.2327 511.311C22.6976 513.211 23.3885 515.313 24.3054 517.616C25.2222 519.92 26.3386 522.077 27.6544 524.087C28.9819 526.07 30.4511 527.761 32.062 529.16C33.6922 530.552 35.4955 531.448 37.4717 531.85C39.4595 532.225 41.4019 532.035 43.2988 531.28C45.2151 530.517 46.7004 529.488 47.7549 528.194C48.821 526.873 49.5275 525.437 49.8744 523.886C50.2213 522.335 50.3306 520.61 50.2023 518.71C49.9835 515.344 49.1114 511.745 47.5858 507.912C45.0509 501.544 41.9151 497.074 38.1785 494.503C36.8453 493.576 35.3472 492.996 33.6841 492.761C32.0132 492.506 30.3068 492.726 28.5647 493.419C26.8227 494.113 25.3935 495.085 24.2772 496.337C23.1803 497.581 22.412 498.974 21.9722 500.517C21.5441 502.033 21.3575 503.733 21.4124 505.617ZM66.8454 525.539L49.3361 481.552L63.0694 476.086C66.6116 474.676 69.9389 474.528 73.0512 475.644C76.1559 476.74 78.3016 478.779 79.4881 481.76C81.4528 486.695 80.986 490.536 78.0877 493.282C77.5878 493.772 76.9427 494.321 76.1525 494.927C79.6505 494.476 82.7903 495.435 85.5717 497.803C87.0783 499.11 88.2477 500.808 89.0798 502.899C90.5206 506.518 90.5401 509.863 89.1384 512.932C87.729 515.982 84.8757 518.362 80.5786 520.073L66.8454 525.539ZM69.7094 520.229L79.1455 516.472C82.3006 515.217 84.342 513.642 85.2698 511.748C85.6657 510.94 85.8706 509.905 85.8843 508.644C85.898 507.383 85.6083 506.007 85.015 504.517C83.9209 501.768 82.1967 499.887 79.8424 498.873C77.4881 497.86 74.9366 497.9 72.188 498.994L62.7519 502.75L69.7094 520.229ZM61.2841 499.063L70.7203 495.306C73.4301 494.228 75.2084 492.724 76.055 490.795C76.4122 490.002 76.5765 488.95 76.5477 487.639C76.5383 486.32 76.2216 484.876 75.5975 483.308C74.696 481.044 73.2941 479.606 71.3918 478.995C69.5088 478.377 67.2123 478.607 64.5025 479.686L55.0663 483.442L61.2841 499.063ZM99.7122 512.456L82.203 468.469L97.0105 462.575C101.637 460.734 105.818 461.155 109.554 463.838C111.591 465.292 113.037 467.094 113.892 469.242C114.924 471.836 115.249 474.454 114.865 477.095C114.45 479.996 112.845 482.384 110.048 484.26L126.627 501.743L121.923 503.615L105.912 486.713L96.0117 490.654L104.009 510.746L99.7122 512.456ZM94.5786 487.054L105.496 482.708C107.528 481.899 109.006 480.571 109.93 478.723C110.955 476.679 110.87 474.156 109.676 471.156C108.088 467.169 104.923 465.469 100.179 466.057C98.7704 466.236 97.3113 466.626 95.8015 467.227L87.9332 470.359L94.5786 487.054ZM131.476 499.813L113.967 455.826L137.804 446.337L139.237 449.938L119.697 457.716L125.857 473.191L139.88 467.609L141.313 471.209L127.29 476.791L134.236 494.241L154.879 486.024L156.416 489.885L131.476 499.813ZM176.973 481.703L159.463 437.716L166.315 434.988L197.392 461.432L184.055 427.927L188.353 426.216L205.862 470.203L202.174 471.671L165.459 440.273L181.27 479.992L176.973 481.703ZM208.488 412.92L213.644 400.946L217.175 402.466L211.155 414.045L208.488 412.92ZM210.746 457.462C209.105 455.873 207.664 454.114 206.426 452.186C205.18 450.238 204.113 448.151 203.227 445.925C202.341 443.699 201.662 441.458 201.19 439.202C200.718 436.945 200.505 434.664 200.552 432.359C200.598 430.053 200.942 427.932 201.584 425.995C202.237 424.03 203.319 422.243 204.831 420.632C206.335 419.002 208.199 417.744 210.425 416.858C212.671 415.964 214.865 415.618 217.008 415.819C219.162 415.993 221.127 416.59 222.901 417.61C224.686 418.604 226.378 419.926 227.977 421.576C230.986 424.684 233.415 428.561 235.264 433.206C238.646 441.704 238.961 448.888 236.208 454.76C234.721 457.953 232.119 460.289 228.403 461.769C226.255 462.624 224.101 462.988 221.943 462.86C219.776 462.714 217.779 462.174 215.951 461.243C214.134 460.284 212.399 459.024 210.746 457.462ZM204.793 432.621C204.867 434.498 205.141 436.396 205.613 438.315C206.078 440.216 206.769 442.317 207.686 444.621C208.603 446.924 209.719 449.081 211.035 451.091C212.363 453.074 213.832 454.765 215.443 456.164C217.073 457.556 218.876 458.453 220.852 458.854C222.84 459.229 224.783 459.039 226.68 458.284C228.596 457.521 230.081 456.493 231.136 455.198C232.202 453.877 232.908 452.441 233.255 450.89C233.602 449.34 233.711 447.614 233.583 445.715C233.364 442.349 232.492 438.749 230.967 434.917C228.432 428.548 225.296 424.079 221.559 421.508C220.226 420.581 218.728 420 217.065 419.765C215.394 419.511 213.688 419.73 211.946 420.424C210.204 421.117 208.774 422.09 207.658 423.341C206.561 424.585 205.793 425.978 205.353 427.521C204.925 429.037 204.738 430.737 204.793 432.621ZM243.215 442.957L246.638 439.98C246.657 439.972 246.761 440.121 246.95 440.427C247.159 440.726 247.454 441.101 247.836 441.555C248.238 442 248.721 442.481 249.285 442.996C249.849 443.512 250.538 443.977 251.354 444.392C252.189 444.8 253.088 445.115 254.051 445.337C256.185 445.855 258.617 445.571 261.347 444.485C264.076 443.398 265.812 441.844 266.554 439.822C267.296 437.8 267.236 435.705 266.373 433.537C265.502 431.35 264.395 429.806 263.05 428.906C261.717 427.98 259.822 427.501 257.365 427.469C256.646 427.464 255.713 427.488 254.568 427.54L251.429 427.68C246.016 427.996 241.994 427.242 239.362 425.42C237.534 424.152 236.162 422.366 235.245 420.062C234.159 417.333 234.23 414.356 235.457 411.132C236.052 409.64 237.008 408.239 238.325 406.93C239.643 405.62 241.173 404.619 242.915 403.926C244.676 403.224 246.321 402.85 247.849 402.802C249.389 402.727 250.704 402.877 251.794 403.25C252.904 403.615 253.969 404.122 254.989 404.77C256.01 405.418 256.807 406.042 257.383 406.642L259.08 408.456C259.601 409.033 259.914 409.368 260.018 409.461L256.822 412.415C256.745 412.334 256.528 412.073 256.173 411.631C255.83 411.162 255.534 410.787 255.287 410.504C255.06 410.213 254.695 409.832 254.192 409.359C253.71 408.878 253.246 408.502 252.802 408.231C252.369 407.932 251.828 407.643 251.178 407.363C250.54 407.057 249.902 406.862 249.264 406.78C247.709 406.591 246.129 406.817 244.522 407.456C242.141 408.404 240.487 409.881 239.559 411.887C238.623 413.874 238.618 416.029 239.542 418.352C240.552 420.888 241.919 422.406 243.643 422.908C244.583 423.185 245.345 423.352 245.929 423.411C246.532 423.463 247.213 423.483 247.971 423.473C248.741 423.435 249.308 423.423 249.672 423.435C250.027 423.428 250.714 423.379 251.732 423.288L254.471 423.072C259.509 422.658 263.409 423.472 266.172 425.511C268.046 426.895 269.503 428.894 270.543 431.507C271.298 433.404 271.488 435.627 271.112 438.176C270.669 441.401 269.098 444.045 266.398 446.106C265.38 446.871 264.106 447.557 262.577 448.166C261.067 448.767 259.495 449.157 257.863 449.336C256.23 449.515 254.779 449.476 253.51 449.218C252.261 448.953 251.072 448.586 249.943 448.116C248.834 447.638 247.879 447.098 247.08 446.497C245.611 445.4 244.481 444.392 243.69 443.474L243.215 442.957ZM288.102 425.089L291.525 422.112C291.544 422.105 291.648 422.254 291.838 422.56C292.046 422.858 292.341 423.234 292.723 423.687C293.125 424.133 293.608 424.613 294.172 425.129C294.736 425.644 295.426 426.11 296.241 426.525C297.076 426.932 297.975 427.247 298.938 427.469C301.073 427.988 303.504 427.703 306.234 426.617C308.963 425.531 310.699 423.976 311.441 421.954C312.183 419.932 312.123 417.837 311.26 415.669C310.389 413.482 309.282 411.939 307.937 411.039C306.604 410.112 304.709 409.633 302.252 409.602C301.533 409.597 300.6 409.62 299.455 409.673L296.316 409.812C290.903 410.128 286.881 409.375 284.249 407.552C282.421 406.284 281.049 404.498 280.132 402.195C279.046 399.466 279.117 396.489 280.345 393.264C280.939 391.772 281.895 390.371 283.212 389.062C284.53 387.753 286.06 386.751 287.802 386.058C289.563 385.357 291.208 384.982 292.736 384.935C294.276 384.86 295.591 385.009 296.682 385.382C297.791 385.748 298.856 386.255 299.876 386.902C300.897 387.55 301.695 388.174 302.27 388.775L303.967 390.588C304.488 391.166 304.801 391.501 304.906 391.594L301.709 394.548C301.632 394.467 301.416 394.205 301.06 393.763C300.717 393.295 300.422 392.919 300.174 392.636C299.947 392.346 299.582 391.964 299.08 391.491C298.597 391.011 298.133 390.635 297.689 390.363C297.256 390.064 296.715 389.775 296.065 389.496C295.428 389.189 294.79 388.994 294.151 388.912C292.596 388.724 291.016 388.949 289.409 389.589C287.028 390.537 285.374 392.014 284.446 394.02C283.51 396.007 283.505 398.162 284.429 400.484C285.439 403.02 286.806 404.539 288.53 405.041C289.47 405.317 290.232 405.485 290.816 405.544C291.419 405.595 292.1 405.616 292.858 405.605C293.628 405.568 294.195 405.555 294.559 405.567C294.915 405.56 295.601 405.511 296.619 405.42L299.358 405.204C304.396 404.791 308.296 405.604 311.059 407.644C312.933 409.028 314.39 411.027 315.43 413.64C316.185 415.537 316.375 417.759 315.999 420.308C315.557 423.534 313.985 426.177 311.285 428.239C310.267 429.003 308.993 429.69 307.464 430.298C305.954 430.899 304.382 431.289 302.75 431.468C301.117 431.647 299.666 431.608 298.398 431.351C297.148 431.086 295.959 430.718 294.831 430.248C293.721 429.77 292.766 429.231 291.967 428.63C290.498 427.533 289.368 426.525 288.577 425.607L288.102 425.089ZM322.354 413.036C320.712 411.447 319.272 409.688 318.034 407.76C316.788 405.812 315.721 403.725 314.835 401.499C313.949 399.273 313.27 397.032 312.798 394.775C312.326 392.519 312.113 390.238 312.16 387.933C312.206 385.627 312.55 383.506 313.192 381.569C313.845 379.604 314.927 377.817 316.439 376.206C317.942 374.576 319.807 373.318 322.033 372.432C324.279 371.538 326.473 371.192 328.616 371.393C330.77 371.567 332.734 372.164 334.508 373.184C336.294 374.178 337.986 375.5 339.585 377.15C342.594 380.258 345.023 384.135 346.872 388.78C350.254 397.278 350.569 404.462 347.816 410.334C346.329 413.527 343.727 415.863 340.011 417.343C337.863 418.198 335.709 418.562 333.551 418.434C331.384 418.287 329.387 417.748 327.559 416.817C325.742 415.858 324.007 414.598 322.354 413.036ZM316.401 388.195C316.475 390.072 316.749 391.97 317.221 393.889C317.686 395.79 318.377 397.891 319.294 400.195C320.211 402.498 321.327 404.655 322.643 406.665C323.971 408.648 325.44 410.339 327.051 411.738C328.681 413.13 330.484 414.027 332.46 414.428C334.448 414.803 336.391 414.613 338.288 413.858C340.204 413.095 341.689 412.067 342.744 410.772C343.81 409.451 344.516 408.015 344.863 406.464C345.21 404.914 345.319 403.188 345.191 401.289C344.972 397.922 344.1 394.323 342.575 390.491C340.04 384.122 336.904 379.653 333.167 377.082C331.834 376.155 330.336 375.574 328.673 375.339C327.002 375.085 325.296 375.304 323.554 375.998C321.811 376.691 320.382 377.664 319.266 378.915C318.169 380.159 317.401 381.552 316.961 383.095C316.533 384.611 316.346 386.311 316.401 388.195ZM361.834 408.118L344.325 364.131L358.058 358.664C361.6 357.254 364.928 357.107 368.04 358.222C371.145 359.318 373.29 361.357 374.477 364.338C376.442 369.274 375.975 373.114 373.076 375.86C372.577 376.351 371.932 376.899 371.141 377.505C374.639 377.054 377.779 378.013 380.561 380.382C382.067 381.688 383.236 383.386 384.069 385.477C385.509 389.096 385.529 392.441 384.127 395.51C382.718 398.56 379.864 400.941 375.567 402.651L361.834 408.118ZM364.698 402.807L374.134 399.051C377.289 397.795 379.331 396.22 380.259 394.326C380.655 393.518 380.859 392.483 380.873 391.222C380.887 389.961 380.597 388.585 380.004 387.095C378.91 384.346 377.185 382.465 374.831 381.451C372.477 380.438 369.925 380.478 367.177 381.572L357.741 385.328L364.698 402.807ZM356.273 381.641L365.709 377.885C368.419 376.806 370.197 375.302 371.044 373.373C371.401 372.581 371.565 371.529 371.537 370.217C371.527 368.898 371.21 367.454 370.586 365.887C369.685 363.622 368.283 362.184 366.381 361.574C364.498 360.955 362.201 361.186 359.491 362.264L350.055 366.02L356.273 381.641ZM394.701 395.035L377.192 351.048L391.999 345.154C396.625 343.312 400.807 343.733 404.543 346.416C406.58 347.871 408.025 349.672 408.881 351.82C409.913 354.414 410.237 357.032 409.854 359.674C409.439 362.574 407.833 364.963 405.037 366.838L421.616 384.321L416.912 386.193L400.901 369.292L391 373.233L398.998 393.324L394.701 395.035ZM389.567 369.632L400.484 365.287C402.517 364.478 403.995 363.149 404.919 361.302C405.943 359.257 405.859 356.734 404.664 353.734C403.077 349.747 399.912 348.047 395.168 348.635C393.759 348.814 392.3 349.205 390.79 349.806L382.922 352.938L389.567 369.632ZM426.465 382.391L408.955 338.404L432.793 328.916L434.226 332.516L414.686 340.294L420.846 355.769L434.869 350.187L436.302 353.787L422.279 359.369L429.225 376.819L449.868 368.602L451.405 372.463L426.465 382.391ZM471.961 364.281L454.452 320.294L461.304 317.566L492.381 344.011L479.044 310.505L483.341 308.794L500.851 352.781L497.163 354.249L460.448 322.851L476.258 362.57L471.961 364.281ZM503.477 295.499L508.632 283.524L512.164 285.045L506.144 296.623L503.477 295.499ZM505.735 340.04C504.093 338.452 502.653 336.693 501.415 334.764C500.168 332.816 499.102 330.729 498.216 328.503C497.33 326.277 496.651 324.036 496.179 321.78C495.707 319.524 495.494 317.243 495.54 314.937C495.587 312.631 495.931 310.51 496.572 308.573C497.226 306.609 498.308 304.821 499.82 303.211C501.323 301.581 503.188 300.322 505.414 299.436C507.659 298.543 509.854 298.196 511.996 298.397C514.151 298.571 516.115 299.168 517.889 300.189C519.675 301.182 521.367 302.504 522.966 304.155C525.975 307.262 528.403 311.139 530.253 315.784C533.635 324.282 533.95 331.466 531.197 337.338C529.71 340.531 527.108 342.868 523.392 344.347C521.243 345.202 519.09 345.566 516.931 345.439C514.765 345.292 512.768 344.753 510.94 343.821C509.123 342.863 507.388 341.602 505.735 340.04ZM499.782 315.199C499.856 317.076 500.13 318.974 500.602 320.894C501.067 322.794 501.758 324.896 502.675 327.199C503.592 329.503 504.708 331.659 506.024 333.669C507.352 335.652 508.821 337.343 510.432 338.743C512.062 340.134 513.865 341.031 515.841 341.433C517.829 341.807 519.772 341.617 521.668 340.862C523.585 340.099 525.07 339.071 526.125 337.777C527.191 336.455 527.897 335.019 528.244 333.469C528.591 331.918 528.7 330.193 528.572 328.293C528.353 324.927 527.481 321.327 525.955 317.495C523.421 311.127 520.285 306.657 516.548 304.086C515.215 303.159 513.717 302.578 512.054 302.343C510.383 302.089 508.676 302.309 506.934 303.002C505.192 303.695 503.763 304.668 502.647 305.92C501.55 307.163 500.782 308.557 500.342 310.1C499.914 311.615 499.727 313.315 499.782 315.199ZM538.204 325.535L541.627 322.558C541.646 322.551 541.75 322.7 541.939 323.006C542.148 323.304 542.443 323.68 542.825 324.133C543.227 324.578 543.71 325.059 544.274 325.574C544.837 326.09 545.527 326.555 546.343 326.971C547.178 327.378 548.077 327.693 549.04 327.915C551.174 328.433 553.606 328.149 556.335 327.063C559.065 325.976 560.8 324.422 561.543 322.4C562.285 320.378 562.225 318.283 561.362 316.115C560.491 313.928 559.383 312.384 558.039 311.485C556.706 310.558 554.811 310.079 552.354 310.048C551.635 310.043 550.702 310.066 549.557 310.118L546.417 310.258C541.005 310.574 536.982 309.821 534.351 307.998C532.523 306.73 531.151 304.944 530.234 302.641C529.148 299.911 529.218 296.935 530.446 293.71C531.041 292.218 531.997 290.817 533.314 289.508C534.632 288.199 536.162 287.197 537.904 286.504C539.665 285.803 541.31 285.428 542.838 285.381C544.378 285.306 545.693 285.455 546.783 285.828C547.893 286.194 548.958 286.7 549.978 287.348C550.998 287.996 551.796 288.62 552.372 289.221L554.069 291.034C554.59 291.611 554.903 291.947 555.007 292.04L551.811 294.994C551.733 294.912 551.517 294.651 551.162 294.209C550.819 293.741 550.523 293.365 550.276 293.082C550.048 292.791 549.683 292.41 549.181 291.937C548.698 291.456 548.235 291.08 547.79 290.809C547.358 290.51 546.817 290.221 546.167 289.941C545.529 289.635 544.891 289.44 544.253 289.358C542.698 289.17 541.117 289.395 539.511 290.035C537.13 290.982 535.476 292.459 534.548 294.466C533.612 296.453 533.606 298.607 534.531 300.93C535.54 303.466 536.907 304.985 538.632 305.487C539.572 305.763 540.333 305.931 540.917 305.99C541.521 306.041 542.202 306.061 542.96 306.051C543.73 306.014 544.297 306.001 544.66 306.013C545.016 306.006 545.703 305.957 546.721 305.866L549.46 305.65C554.498 305.237 558.398 306.05 561.161 308.089C563.035 309.474 564.492 311.472 565.532 314.085C566.287 315.982 566.477 318.205 566.101 320.754C565.658 323.98 564.087 326.623 561.387 328.685C560.368 329.449 559.094 330.135 557.565 330.744C556.056 331.345 554.484 331.735 552.851 331.914C551.218 332.093 549.768 332.054 548.499 331.797C547.25 331.531 546.061 331.164 544.932 330.694C543.823 330.216 542.868 329.677 542.068 329.076C540.6 327.978 539.47 326.971 538.679 326.053L538.204 325.535Z" fill="white"/>
</g>
</svg>
