<svg width="349" height="260" viewBox="0 0 349 260" fill="none" xmlns="http://www.w3.org/2000/svg">
<path d="M67.9849 229.14C128.485 268.64 177.485 211.14 256.485 250.14C330.691 286.773 370.046 195.912 334.353 121.763C331.73 109.888 316.785 81.94 277.985 65.14C229.485 44.14 219.985 -1.86005 165.485 1.13995C110.985 4.13995 98.4849 62.14 34.4849 86.14C-29.5151 110.14 7.48486 189.64 67.9849 229.14Z" fill="white"/>
<path d="M326.485 107.64C329.428 112.252 332.047 116.972 334.353 121.763M334.353 121.763C370.046 195.912 330.691 286.773 256.485 250.14C177.485 211.14 128.485 268.64 67.9849 229.14C7.48486 189.64 -29.5151 110.14 34.4849 86.14C98.4849 62.14 110.985 4.13995 165.485 1.13995C219.985 -1.86005 229.485 44.14 277.985 65.14C316.785 81.94 331.73 109.888 334.353 121.763Z" stroke="white"/>
</svg>
