<svg width="316" height="316" viewBox="0 0 316 316" fill="none" xmlns="http://www.w3.org/2000/svg">
<mask id="mask0_325_89" style="mask-type:alpha" maskUnits="userSpaceOnUse" x="0" y="0" width="316" height="316">
<rect width="316" height="316" fill="#4BC3B5"/>
</mask>
<g mask="url(#mask0_325_89)">
<path d="M-146.372 142.343C-147.343 140.981 -148.218 139.581 -148.996 138.142C-149.754 136.695 -150.509 135.034 -151.259 133.158C-152.018 131.262 -152.647 129.214 -153.146 127.013C-153.634 124.784 -153.872 122.535 -153.861 120.264C-153.858 117.974 -153.556 115.867 -152.957 113.944C-152.357 112.021 -151.342 110.269 -149.911 108.686C-148.468 107.077 -146.818 105.9 -144.962 105.157C-143.105 104.414 -141.432 104.025 -139.942 103.99C-138.441 103.928 -137.095 104.096 -135.903 104.494C-134.712 104.893 -133.563 105.409 -132.456 106.043C-131.357 106.658 -130.409 107.345 -129.612 108.103C-127.956 109.662 -126.824 110.892 -126.217 111.793L-125.764 112.42L-125.753 112.449L-129.687 115.403C-130.878 113.322 -131.917 111.875 -132.803 111.063C-133.678 110.224 -134.485 109.582 -135.224 109.137C-135.951 108.665 -136.694 108.323 -137.452 108.11C-139.236 107.634 -141.085 107.78 -143 108.546C-150.543 111.565 -151.803 119.351 -146.78 131.904C-144.628 137.281 -142.078 141.354 -139.13 144.123C-135.806 147.214 -132.065 147.927 -127.906 146.263C-124.502 144.901 -122.386 142.506 -121.559 139.078C-120.994 136.676 -121.177 134.314 -122.105 131.993L-117.602 130.965C-117.595 131.209 -117.569 131.804 -117.527 132.752C-117.465 133.692 -117.426 134.462 -117.41 135.062C-117.395 135.661 -117.428 136.505 -117.509 137.592C-117.578 138.652 -117.715 139.571 -117.92 140.348C-118.106 141.118 -118.419 142.018 -118.86 143.047C-119.289 144.049 -119.825 144.925 -120.467 145.676C-122.01 147.483 -123.807 148.796 -125.857 149.617C-127.908 150.437 -129.732 150.898 -131.329 150.999C-132.908 151.092 -134.378 150.951 -135.74 150.576C-137.109 150.181 -138.444 149.594 -139.744 148.812C-141.032 148.004 -142.216 147.064 -143.296 145.993C-144.383 144.902 -145.408 143.685 -146.372 142.343ZM-109.796 142.651L-114.852 93.6803L-108.585 91.1725L-78.4615 130.112L-82.9295 131.9L-92.251 119.541L-107.019 125.45L-105.328 140.863L-109.796 142.651ZM-107.472 121.458L-94.7061 116.35L-110.255 96.0821L-107.472 121.458ZM-97.6288 90.962L-99.0685 87.3643L-69.7072 75.6147L-68.2675 79.2123L-80.8012 84.228L-64.6512 124.585L-68.9452 126.304L-85.0951 85.9463L-97.6288 90.962ZM-59.2864 66.1601L-54.1526 54.1762L-50.6183 55.6902L-56.6169 67.2797L-59.2864 66.1601ZM-55.1349 120.777L-60.1908 71.8065L-53.924 69.2987L-23.8007 108.238L-28.2687 110.026L-37.5902 97.667L-52.3579 103.577L-50.6669 118.989L-55.1349 120.777ZM-52.8111 99.5843L-40.0453 94.4757L-55.5945 74.2083L-52.8111 99.5843ZM-19.1586 106.38L-36.7482 62.4254L-32.4543 60.7071L-16.5133 100.542L2.98352 92.74L4.63219 96.8599L-19.1586 106.38ZM4.50291 86.107C2.8585 84.5211 1.41523 82.7649 0.1731 80.8385C-1.07677 78.8928 -2.14676 76.8077 -3.03688 74.5834C-3.92701 72.359 -4.61016 70.1192 -5.08634 67.8638C-5.56252 65.6085 -5.77951 63.328 -5.7373 61.0222C-5.69509 58.7165 -5.35497 56.5945 -4.71693 54.6562C-4.06729 52.6908 -2.9882 50.9014 -1.47967 49.288C0.021122 47.6552 1.88369 46.3937 4.10803 45.5036C6.35172 44.6057 8.54519 44.2553 10.6885 44.4523C12.8433 44.6222 14.8087 45.2157 16.5845 46.2329C18.372 47.223 20.0667 48.542 21.6685 50.1898C24.6827 53.292 27.1186 57.1641 28.9762 61.8062C32.3742 70.2974 32.7022 77.4815 29.9602 83.3584C28.479 86.5541 25.8815 88.895 22.1678 90.3811C20.0208 91.2403 17.868 91.6081 15.7093 91.4847C13.5428 91.3418 11.5446 90.8063 9.71455 89.8781C7.89614 88.9228 6.15893 87.6658 4.50291 86.107ZM-1.49528 61.2769C-1.41763 63.1532 -1.14074 65.0507 -0.664606 66.9695C-0.196214 68.869 0.498524 70.9695 1.41961 73.2712C2.34069 75.573 3.46099 77.7276 4.7805 79.7353C6.11161 81.7158 7.58389 83.4043 9.19733 84.8006C10.8301 86.1892 12.635 87.0826 14.6119 87.4808C16.6005 87.8519 18.5425 87.6581 20.438 86.8996C22.3529 86.1333 23.8364 85.1021 24.8884 83.8059C25.9521 82.4827 26.656 81.0454 27.0001 79.494C27.3442 77.9426 27.4503 76.2172 27.3185 74.3177C27.0936 70.952 26.2149 67.3543 24.6823 63.5246C22.1358 57.161 18.9918 52.6971 15.2504 50.1327C13.9156 49.2083 12.4164 48.6302 10.7529 48.3983C9.08158 48.1471 7.37554 48.3698 5.63475 49.0664C3.89396 49.763 2.46657 50.7381 1.35259 51.9917C0.257946 53.2376 -0.507839 54.6324 -0.944765 56.176C-1.37009 57.6926 -1.5536 59.3929 -1.49528 61.2769ZM40.8389 71.2633C39.2293 69.5962 37.8189 67.782 36.6078 65.8208C35.4159 63.8518 34.4136 61.8518 33.6009 59.8209C32.7805 57.7707 32.1534 55.8113 31.7199 53.9428C31.2863 52.0743 31.0075 50.2 30.8834 48.3198C30.7593 46.4397 30.8635 44.6253 31.1959 42.8766C31.54 41.1008 32.0697 39.4527 32.7852 37.9322C34.3631 34.6978 37.009 32.3375 40.7226 30.8514C43.4499 29.76 46.3417 29.5565 49.398 30.2408C52.9689 31.0333 56.3563 33.5822 59.5602 37.8876L55.7712 40.6155C55.6977 40.4879 55.5952 40.3158 55.4636 40.0991C55.3436 39.8554 55.0476 39.4241 54.5755 38.8052C54.1228 38.1785 53.6469 37.6061 53.1478 37.0877C52.6409 36.5501 51.9754 36.0085 51.1513 35.4632C50.3388 34.8908 49.5012 34.4518 48.6384 34.1463C46.6421 33.4193 44.5221 33.5047 42.2784 34.4026C40.0347 35.3004 38.3288 36.589 37.1607 38.2681C35.9926 39.9473 35.3372 41.8701 35.1944 44.0366C34.9048 48.1916 35.7586 52.7642 37.7555 57.7544C40.1395 63.7118 42.6935 67.8509 45.4173 70.1717C48.9963 73.2274 52.9714 73.8806 57.3428 72.1313C62.7779 69.9563 64.6671 65.5651 63.0103 58.9577C62.6426 57.5341 62.1142 55.9615 61.4254 54.2401L51.6479 58.1528L50.2083 54.5551L64.1926 48.959L72.494 69.7034L69.0124 71.0966L66.7832 65.5261C65.805 69.4181 64.2367 72.1999 62.0782 73.8715C61.1189 74.6144 59.7495 75.3419 57.9701 76.054C56.1906 76.7661 54.1944 77.0488 51.9815 76.9021C49.788 76.7477 47.7878 76.1793 45.981 75.197C44.1742 74.2146 42.4602 72.9034 40.8389 71.2633ZM77.3259 56.9651C75.6815 55.3792 74.2383 53.6231 72.9961 51.6967C71.7463 49.7509 70.6763 47.6659 69.7861 45.4415C68.896 43.2172 68.2129 40.9773 67.7367 38.722C67.2605 36.4666 67.0435 34.1861 67.0857 31.8804C67.1279 29.5746 67.4681 27.4526 68.1061 25.5143C68.7557 23.549 69.8348 21.7596 71.3434 20.1461C72.8442 18.5133 74.7067 17.2518 76.9311 16.3617C79.1747 15.4639 81.3682 15.1134 83.5115 15.3104C85.6663 15.4803 87.6317 16.0738 89.4076 17.091C91.195 18.0811 92.8897 19.4001 94.4916 21.0479C97.5057 24.1501 99.9416 28.0223 101.799 32.6644C105.197 41.1556 105.525 48.3396 102.783 54.2165C101.302 57.4122 98.7045 59.7531 94.9909 61.2393C92.8439 62.0984 90.691 62.4663 88.5323 62.3428C86.3658 62.2 84.3676 61.6645 82.5376 60.7363C80.7192 59.781 78.982 58.5239 77.3259 56.9651ZM71.3277 32.1351C71.4054 34.0113 71.6823 35.9089 72.1584 37.8277C72.6268 39.7271 73.3216 41.8277 74.2426 44.1294C75.1637 46.4311 76.284 48.5858 77.6035 50.5934C78.9346 52.574 80.4069 54.2624 82.0204 55.6587C83.6531 57.0473 85.458 57.9407 87.4349 58.3389C89.4235 58.71 91.3655 58.5163 93.261 57.7577C95.1759 56.9915 96.6594 55.9602 97.7115 54.6641C98.7751 53.3408 99.479 51.9035 99.8231 50.3522C100.167 48.8008 100.273 47.0753 100.141 45.1758C99.9166 41.8102 99.0379 38.2124 97.5053 34.3827C94.9588 28.0191 91.8148 23.5552 88.0735 20.9908C86.7387 20.0664 85.2395 19.4883 83.5759 19.2564C81.9046 19.0052 80.1986 19.2279 78.4578 19.9245C76.717 20.6211 75.2896 21.5963 74.1756 22.8499C73.081 24.0957 72.3152 25.4905 71.8783 27.0342C71.4529 28.5507 71.2694 30.251 71.3277 32.1351ZM125.946 33.3687C124.974 32.0071 124.1 30.6068 123.322 29.1678C122.564 27.721 121.809 26.0595 121.058 24.1833C120.3 22.2878 119.671 20.2395 119.171 18.0383C118.683 15.81 118.445 13.5604 118.456 11.2895C118.46 8.99926 118.761 6.89274 119.361 4.96993C119.96 3.04712 120.975 1.29446 122.407 -0.288029C123.849 -1.89761 125.499 -3.07392 127.356 -3.81698C129.213 -4.56004 130.886 -4.94909 132.375 -4.98413C133.876 -5.04626 135.223 -4.87817 136.414 -4.47988C137.606 -4.08159 138.755 -3.56529 139.861 -2.931C140.96 -2.31605 141.908 -1.6295 142.705 -0.871367C144.361 0.687452 145.493 1.91751 146.101 2.81882L146.553 3.44547L146.565 3.47449L142.631 6.42879C141.439 4.34764 140.4 2.90091 139.514 2.08863C138.64 1.24926 137.833 0.607188 137.094 0.162404C136.367 -0.309463 135.624 -0.651728 134.865 -0.86439C133.082 -1.33997 131.233 -1.19462 129.318 -0.428336C121.774 2.59034 120.514 10.3762 125.538 22.9292C127.69 28.3063 130.24 32.3796 133.188 35.1492C136.512 38.2397 140.253 38.9529 144.411 37.2888C147.815 35.9265 149.931 33.5315 150.759 30.1037C151.323 27.7012 151.141 25.3394 150.212 23.0184L154.715 21.9906C154.723 22.2343 154.748 22.8301 154.791 23.7779C154.853 24.718 154.892 25.4878 154.907 26.0874C154.923 26.6871 154.89 27.5305 154.809 28.6176C154.739 29.6776 154.602 30.5964 154.397 31.374C154.212 32.1439 153.898 33.0434 153.458 34.0726C153.028 35.0746 152.493 35.9509 151.851 36.7016C150.307 38.5084 148.51 39.8221 146.46 40.6426C144.41 41.463 142.586 41.9237 140.988 42.0245C139.41 42.1176 137.94 41.9766 136.578 41.6016C135.208 41.2072 133.874 40.6193 132.574 39.8381C131.285 39.0297 130.101 38.0898 129.022 37.0183C127.934 35.9275 126.909 34.711 125.946 33.3687ZM162.522 33.6766L157.466 -15.294L163.733 -17.8018L193.856 21.1375L189.388 22.9255L180.067 10.5665L165.299 16.4762L166.99 31.8886L162.522 33.6766ZM164.846 12.4838L177.611 7.37524L162.062 -12.8922L164.846 12.4838ZM174.689 -18.0124L173.249 -21.61L202.61 -33.3596L204.05 -29.762L191.516 -24.7463L207.666 15.611L203.372 17.3293L187.222 -23.028L174.689 -18.0124ZM213.031 -42.8142L218.165 -54.7982L221.699 -53.2841L215.701 -41.6947L213.031 -42.8142ZM217.183 11.8028L212.127 -37.1678L218.394 -39.6756L248.517 -0.736336L244.049 1.05165L234.727 -11.3073L219.96 -5.39765L221.651 10.0148L217.183 11.8028ZM219.506 -9.39004L232.272 -14.4986L216.723 -34.766L219.506 -9.39004ZM253.159 -2.59398L235.569 -46.5489L239.863 -48.2672L255.804 -8.43218L275.301 -16.2343L276.95 -12.1144L253.159 -2.59398ZM276.82 -22.8673C275.176 -24.4532 273.733 -26.2094 272.491 -28.1358C271.241 -30.0815 270.171 -32.1666 269.281 -34.3909C268.391 -36.6153 267.707 -38.8551 267.231 -41.1105C266.755 -43.3658 266.538 -45.6464 266.58 -47.9521C266.622 -50.2578 266.963 -52.3798 267.601 -54.3181C268.25 -56.2835 269.329 -58.0729 270.838 -59.6863C272.339 -61.3191 274.201 -62.5806 276.426 -63.4707C278.669 -64.3686 280.863 -64.719 283.006 -64.522C285.161 -64.3522 287.126 -63.7586 288.902 -62.7414C290.69 -61.7513 292.384 -60.4324 293.986 -58.7845C297 -55.6823 299.436 -51.8102 301.294 -47.1681C304.692 -38.6769 305.02 -31.4929 302.278 -25.616C300.796 -22.4202 298.199 -20.0793 294.485 -18.5932C292.338 -17.734 290.186 -17.3662 288.027 -17.4897C285.86 -17.6325 283.862 -18.168 282.032 -19.0962C280.214 -20.0515 278.476 -21.3085 276.82 -22.8673ZM270.822 -47.6974C270.9 -45.8211 271.177 -43.9236 271.653 -42.0048C272.121 -40.1053 272.816 -38.0048 273.737 -35.7031C274.658 -33.4014 275.778 -31.2467 277.098 -29.239C278.429 -27.2585 279.901 -25.5701 281.515 -24.1737C283.148 -22.7851 284.952 -21.8917 286.929 -21.4935C288.918 -21.1225 290.86 -21.3162 292.756 -22.0747C294.67 -22.841 296.154 -23.8722 297.206 -25.1684C298.27 -26.4916 298.974 -27.9289 299.318 -29.4803C299.662 -31.0317 299.768 -32.7571 299.636 -34.6566C299.411 -38.0223 298.532 -41.62 297 -45.4498C294.453 -51.8133 291.309 -56.2773 287.568 -58.8416C286.233 -59.766 284.734 -60.3442 283.07 -60.576C281.399 -60.8272 279.693 -60.6045 277.952 -59.9079C276.211 -59.2113 274.784 -58.2362 273.67 -56.9826C272.575 -55.7367 271.81 -54.3419 271.373 -52.7983C270.947 -51.2817 270.764 -49.5814 270.822 -47.6974ZM313.156 -37.711C311.547 -39.3781 310.136 -41.1923 308.925 -43.1536C307.733 -45.1225 306.731 -47.1225 305.918 -49.1534C305.098 -51.2037 304.471 -53.163 304.037 -55.0315C303.604 -56.9 303.325 -58.7743 303.201 -60.6545C303.077 -62.5346 303.181 -64.349 303.513 -66.0977C303.857 -67.8735 304.387 -69.5216 305.103 -71.0421C306.681 -74.2765 309.326 -76.6368 313.04 -78.1229C315.767 -79.2143 318.659 -79.4178 321.716 -78.7335C325.286 -77.941 328.674 -75.3921 331.878 -71.0867L328.089 -68.3588C328.015 -68.4864 327.913 -68.6586 327.781 -68.8752C327.661 -69.1189 327.365 -69.5502 326.893 -70.1691C326.44 -70.7958 325.964 -71.3683 325.465 -71.8866C324.958 -72.4243 324.293 -72.9658 323.469 -73.5111C322.656 -74.0836 321.819 -74.5225 320.956 -74.828C318.96 -75.555 316.84 -75.4696 314.596 -74.5717C312.352 -73.6739 310.646 -72.3854 309.478 -70.7062C308.31 -69.027 307.655 -67.1042 307.512 -64.9377C307.222 -60.7828 308.076 -56.2101 310.073 -51.2199C312.457 -45.2625 315.011 -41.1234 317.735 -38.8026C321.314 -35.7469 325.289 -35.0937 329.66 -36.843C335.095 -39.018 336.985 -43.4092 335.328 -50.0166C334.96 -51.4402 334.432 -53.0128 333.743 -54.7342L323.965 -50.8215L322.526 -54.4192L336.51 -60.0153L344.811 -39.2709L341.33 -37.8777L339.101 -43.4482C338.123 -39.5562 336.554 -36.7744 334.396 -35.1028C333.436 -34.3599 332.067 -33.6324 330.288 -32.9203C328.508 -32.2082 326.512 -31.9255 324.299 -32.0722C322.105 -32.2266 320.105 -32.795 318.298 -33.7773C316.492 -34.7597 314.778 -36.0709 313.156 -37.711ZM349.643 -52.0092C347.999 -53.5951 346.556 -55.3513 345.314 -57.2777C344.064 -59.2234 342.994 -61.3084 342.104 -63.5328C341.214 -65.7571 340.53 -67.997 340.054 -70.2523C339.578 -72.5077 339.361 -74.7882 339.403 -77.0939C339.445 -79.3997 339.786 -81.5217 340.424 -83.46C341.073 -85.4253 342.152 -87.2148 343.661 -88.8282C345.162 -90.461 347.024 -91.7225 349.249 -92.6126C351.492 -93.5105 353.686 -93.8609 355.829 -93.6639C357.984 -93.494 359.949 -92.9005 361.725 -91.8833C363.513 -90.8932 365.207 -89.5742 366.809 -87.9264C369.823 -84.8242 372.259 -80.952 374.117 -76.3099C377.515 -67.8188 377.843 -60.6347 375.101 -54.7578C373.619 -51.5621 371.022 -49.2212 367.308 -47.735C365.161 -46.8759 363.009 -46.508 360.85 -46.6315C358.683 -46.7743 356.685 -47.3098 354.855 -48.238C353.037 -49.1933 351.299 -50.4504 349.643 -52.0092ZM343.645 -76.8392C343.723 -74.963 344 -73.0654 344.476 -71.1467C344.944 -69.2472 345.639 -67.1466 346.56 -64.8449C347.481 -62.5432 348.602 -60.3885 349.921 -58.3809C351.252 -56.4004 352.724 -54.7119 354.338 -53.3156C355.971 -51.927 357.776 -51.0336 359.752 -50.6354C361.741 -50.2643 363.683 -50.458 365.579 -51.2166C367.493 -51.9829 368.977 -53.0141 370.029 -54.3102C371.093 -55.6335 371.797 -57.0708 372.141 -58.6222C372.485 -60.1735 372.591 -61.899 372.459 -63.7985C372.234 -67.1642 371.355 -70.7619 369.823 -74.5916C367.276 -80.9552 364.132 -85.4191 360.391 -87.9835C359.056 -88.9079 357.557 -89.486 355.893 -89.7179C354.222 -89.9691 352.516 -89.7464 350.775 -89.0498C349.034 -88.3532 347.607 -87.3781 346.493 -86.1244C345.398 -84.8786 344.633 -83.4838 344.196 -81.9402C343.77 -80.4236 343.587 -78.7233 343.645 -76.8392ZM-107.361 239.827C-108.333 238.466 -109.207 237.065 -109.985 235.626C-110.743 234.18 -111.498 232.518 -112.249 230.642C-113.007 228.746 -113.636 226.698 -114.136 224.497C-114.623 222.269 -114.862 220.019 -114.85 217.748C-114.847 215.458 -114.545 213.351 -113.946 211.428C-113.347 209.506 -112.332 207.753 -110.9 206.17C-109.458 204.561 -107.808 203.385 -105.951 202.642C-104.094 201.898 -102.421 201.509 -100.932 201.474C-99.4305 201.412 -98.0842 201.58 -96.8926 201.979C-95.701 202.377 -94.5519 202.893 -93.4454 203.528C-92.3466 204.142 -91.3987 204.829 -90.6016 205.587C-88.9456 207.146 -87.8139 208.376 -87.2063 209.277L-86.7536 209.904L-86.742 209.933L-90.676 212.887C-91.8678 210.806 -92.9068 209.359 -93.7928 208.547C-94.6673 207.708 -95.474 207.066 -96.213 206.621C-96.9403 206.149 -97.6832 205.807 -98.4415 205.594C-100.225 205.119 -102.074 205.264 -103.989 206.03C-111.532 209.049 -112.792 216.835 -107.769 229.388C-105.617 234.765 -103.067 238.838 -100.119 241.608C-96.7953 244.698 -93.0542 245.411 -88.8956 243.747C-85.4914 242.385 -83.3756 239.99 -82.5483 236.562C-81.9838 234.16 -82.166 231.798 -83.0948 229.477L-78.5918 228.449C-78.5841 228.693 -78.5588 229.289 -78.5161 230.236C-78.4541 231.176 -78.4153 231.946 -78.3997 232.546C-78.3842 233.146 -78.4169 233.989 -78.498 235.076C-78.5675 236.136 -78.7047 237.055 -78.9096 237.833C-79.0952 238.602 -79.4084 239.502 -79.8493 240.531C-80.2786 241.533 -80.8142 242.409 -81.4563 243.16C-82.9996 244.967 -84.7964 246.281 -86.8467 247.101C-88.897 247.922 -90.721 248.382 -92.3187 248.483C-93.8971 248.576 -95.3672 248.435 -96.729 248.06C-98.0986 247.666 -99.4334 247.078 -100.733 246.297C-102.022 245.488 -103.206 244.548 -104.285 243.477C-105.372 242.386 -106.398 241.17 -107.361 239.827ZM-70.7851 240.135L-75.841 191.165L-69.5742 188.657L-39.4509 227.596L-43.9189 229.384L-53.2403 217.025L-68.008 222.935L-66.3171 238.347L-70.7851 240.135ZM-68.4613 218.942L-55.6955 213.834L-71.2447 193.566L-68.4613 218.942ZM-58.6182 188.446L-60.0579 184.849L-30.6965 173.099L-29.2569 176.697L-41.7905 181.712L-25.6406 222.069L-29.9346 223.788L-46.0845 183.431L-58.6182 188.446ZM-20.2758 163.644L-15.142 151.66L-11.6077 153.174L-17.6063 164.764L-20.2758 163.644ZM-16.1243 218.261L-21.1802 169.291L-14.9134 166.783L15.2099 205.722L10.7419 207.51L1.42045 195.151L-13.3472 201.061L-11.6563 216.473L-16.1243 218.261ZM-13.8005 197.068L-1.03469 191.96L-16.5839 171.692L-13.8005 197.068ZM19.852 203.865L2.26241 159.91L6.55636 158.191L22.4973 198.026L41.9941 190.224L43.6428 194.344L19.852 203.865ZM43.5135 183.591C41.8691 182.005 40.4258 180.249 39.1837 178.323C37.9339 176.377 36.8639 174.292 35.9737 172.068C35.0836 169.843 34.4005 167.603 33.9243 165.348C33.4481 163.093 33.2311 160.812 33.2733 158.506C33.3155 156.201 33.6557 154.079 34.2937 152.14C34.9433 150.175 36.0224 148.386 37.531 146.772C39.0317 145.139 40.8943 143.878 43.1187 142.988C45.3623 142.09 47.5558 141.739 49.6991 141.936C51.8539 142.106 53.8193 142.7 55.5952 143.717C57.3826 144.707 59.0773 146.026 60.6792 147.674C63.6933 150.776 66.1292 154.648 67.9869 159.29C71.3848 167.782 71.7128 174.966 68.9708 180.843C67.4896 184.038 64.8921 186.379 61.1784 187.865C59.0315 188.725 56.8786 189.092 54.7199 188.969C52.5534 188.826 50.5552 188.291 48.7252 187.362C46.9068 186.407 45.1696 185.15 43.5135 183.591ZM37.5153 158.761C37.593 160.637 37.8699 162.535 38.346 164.454C38.8144 166.353 39.5091 168.454 40.4302 170.755C41.3513 173.057 42.4716 175.212 43.7911 177.219C45.1222 179.2 46.5945 180.888 48.2079 182.285C49.8407 183.673 51.6456 184.567 53.6225 184.965C55.6111 185.336 57.5531 185.142 59.4486 184.384C61.3635 183.618 62.847 182.586 63.8991 181.29C64.9627 179.967 65.6666 178.53 66.0107 176.978C66.3548 175.427 66.4609 173.701 66.3291 171.802C66.1042 168.436 65.2255 164.839 63.6929 161.009C61.1464 154.645 58.0024 150.181 54.2611 147.617C52.9262 146.693 51.4271 146.114 49.7635 145.882C48.0922 145.631 46.3862 145.854 44.6454 146.551C42.9046 147.247 41.4772 148.222 40.3632 149.476C39.2686 150.722 38.5028 152.117 38.0659 153.66C37.6405 155.177 37.457 156.877 37.5153 158.761ZM79.8496 168.748C78.24 167.08 76.8296 165.266 75.6184 163.305C74.4265 161.336 73.4243 159.336 72.6115 157.305C71.7911 155.255 71.1641 153.295 70.7305 151.427C70.2969 149.559 70.0181 147.684 69.894 145.804C69.7699 143.924 69.8741 142.109 70.2066 140.361C70.5506 138.585 71.0804 136.937 71.7958 135.416C73.3738 132.182 76.0196 129.822 79.7333 128.336C82.4605 127.244 85.3523 127.041 88.4086 127.725C91.9795 128.518 95.3669 131.066 98.5708 135.372L94.7818 138.1C94.7083 137.972 94.6058 137.8 94.4742 137.583C94.3542 137.34 94.0582 136.908 93.5862 136.289C93.1334 135.663 92.6575 135.09 92.1584 134.572C91.6515 134.034 90.986 133.493 90.1619 132.947C89.3494 132.375 88.5118 131.936 87.649 131.631C85.6527 130.903 83.5327 130.989 81.289 131.887C79.0453 132.785 77.3394 134.073 76.1713 135.752C75.0033 137.432 74.3478 139.354 74.205 141.521C73.9155 145.676 74.7692 150.248 76.7662 155.239C79.1501 161.196 81.7041 165.335 84.428 167.656C88.0069 170.712 91.9821 171.365 96.3534 169.616C101.789 167.441 103.678 163.049 102.021 156.442C101.653 155.018 101.125 153.446 100.436 151.724L90.6586 155.637L89.2189 152.039L103.203 146.443L111.505 167.188L108.023 168.581L105.794 163.01C104.816 166.902 103.247 169.684 101.089 171.356C100.13 172.099 98.7602 172.826 96.9807 173.538C95.2012 174.25 93.205 174.533 90.9921 174.386C88.7986 174.232 86.7984 173.664 84.9916 172.681C83.1848 171.699 81.4708 170.388 79.8496 168.748ZM116.337 154.449C114.692 152.863 113.249 151.107 112.007 149.181C110.757 147.235 109.687 145.15 108.797 142.926C107.907 140.701 107.223 138.462 106.747 136.206C106.271 133.951 106.054 131.67 106.096 129.365C106.139 127.059 106.479 124.937 107.117 122.999C107.766 121.033 108.845 119.244 110.354 117.63C111.855 115.998 113.717 114.736 115.942 113.846C118.185 112.948 120.379 112.598 122.522 112.795C124.677 112.965 126.642 113.558 128.418 114.575C130.206 115.565 131.9 116.884 133.502 118.532C136.516 121.634 138.952 125.506 140.81 130.149C144.208 138.64 144.536 145.824 141.794 151.701C140.313 154.896 137.715 157.237 134.001 158.723C131.854 159.583 129.702 159.95 127.543 159.827C125.376 159.684 123.378 159.149 121.548 158.22C119.73 157.265 117.993 156.008 116.337 154.449ZM110.338 129.619C110.416 131.496 110.693 133.393 111.169 135.312C111.637 137.211 112.332 139.312 113.253 141.614C114.174 143.915 115.295 146.07 116.614 148.078C117.945 150.058 119.418 151.747 121.031 153.143C122.664 154.532 124.469 155.425 126.446 155.823C128.434 156.194 130.376 156 132.272 155.242C134.187 154.476 135.67 153.444 136.722 152.148C137.786 150.825 138.49 149.388 138.834 147.836C139.178 146.285 139.284 144.56 139.152 142.66C138.927 139.294 138.049 135.697 136.516 131.867C133.969 125.503 130.825 121.039 127.084 118.475C125.749 117.551 124.25 116.973 122.587 116.741C120.915 116.489 119.209 116.712 117.468 117.409C115.728 118.105 114.3 119.08 113.186 120.334C112.092 121.58 111.326 122.975 110.889 124.518C110.464 126.035 110.28 127.735 110.338 129.619ZM164.956 130.853C163.985 129.491 163.11 128.091 162.333 126.652C161.574 125.205 160.82 123.544 160.069 121.668C159.31 119.772 158.681 117.724 158.182 115.522C157.694 113.294 157.456 111.045 157.467 108.774C157.471 106.483 157.772 104.377 158.371 102.454C158.971 100.531 159.986 98.7787 161.417 97.1962C162.86 95.5866 164.51 94.4103 166.367 93.6672C168.223 92.9242 169.897 92.5351 171.386 92.5001C172.887 92.438 174.233 92.606 175.425 93.0043C176.617 93.4026 177.766 93.9189 178.872 94.5532C179.971 95.1682 180.919 95.8547 181.716 96.6128C183.372 98.1717 184.504 99.4017 185.111 100.303L185.564 100.93L185.576 100.959L181.642 103.913C180.45 101.832 179.411 100.385 178.525 99.5728C177.65 98.7335 176.844 98.0914 176.105 97.6466C175.377 97.1748 174.634 96.8325 173.876 96.6198C172.093 96.1442 170.243 96.2896 168.328 97.0559C160.785 100.075 159.525 107.86 164.548 120.413C166.7 125.791 169.25 129.864 172.199 132.633C175.522 135.724 179.263 136.437 183.422 134.773C186.826 133.411 188.942 131.016 189.769 127.588C190.334 125.185 190.152 122.824 189.223 120.503L193.726 119.475C193.733 119.719 193.759 120.314 193.801 121.262C193.863 122.202 193.902 122.972 193.918 123.572C193.933 124.171 193.901 125.015 193.82 126.102C193.75 127.162 193.613 128.081 193.408 128.858C193.222 129.628 192.909 130.528 192.468 131.557C192.039 132.559 191.503 133.435 190.861 134.186C189.318 135.993 187.521 137.306 185.471 138.127C183.421 138.947 181.597 139.408 179.999 139.509C178.42 139.602 176.95 139.461 175.588 139.086C174.219 138.691 172.884 138.104 171.584 137.322C170.296 136.514 169.112 135.574 168.032 134.503C166.945 133.412 165.92 132.195 164.956 130.853ZM201.532 131.161L196.476 82.1902L202.743 79.6824L232.867 118.622L228.399 120.41L219.077 108.051L204.309 113.96L206 129.373L201.532 131.161ZM203.856 109.968L216.622 104.859L201.073 84.592L203.856 109.968ZM213.699 79.4719L212.26 75.8742L241.621 64.1246L243.061 67.7222L230.527 72.7379L246.677 113.095L242.383 114.814L226.233 74.4562L213.699 79.4719ZM252.042 54.67L257.176 42.6861L260.71 44.2001L254.711 55.7896L252.042 54.67ZM256.193 109.287L251.137 60.3164L257.404 57.8086L287.527 96.7479L283.059 98.5359L273.738 86.1769L258.97 92.0866L260.661 107.499L256.193 109.287ZM258.517 88.0942L271.283 82.9856L255.734 62.7182L258.517 88.0942ZM292.17 94.8902L274.58 50.9353L278.874 49.217L294.815 89.052L314.312 81.2499L315.96 85.3698L292.17 94.8902ZM315.831 74.6169C314.187 73.031 312.743 71.2748 311.501 69.3484C310.251 67.4027 309.181 65.3176 308.291 63.0933C307.401 60.8689 306.718 58.6291 306.242 56.3737C305.766 54.1184 305.549 51.8379 305.591 49.5321C305.633 47.2264 305.973 45.1044 306.611 43.1661C307.261 41.2007 308.34 39.4113 309.848 37.7979C311.349 36.1651 313.212 34.9036 315.436 34.0135C317.68 33.1156 319.873 32.7652 322.017 32.9622C324.171 33.1321 326.137 33.7256 327.913 34.7428C329.7 35.7329 331.395 37.0519 332.997 38.6997C336.011 41.8019 338.447 45.674 340.304 50.3161C343.702 58.8073 344.03 65.9914 341.288 71.8683C339.807 75.064 337.21 77.4049 333.496 78.891C331.349 79.7502 329.196 80.118 327.037 79.9946C324.871 79.8517 322.873 79.3162 321.043 78.388C319.224 77.4327 317.487 76.1757 315.831 74.6169ZM309.833 49.7868C309.91 51.6631 310.187 53.5606 310.664 55.4794C311.132 57.3789 311.827 59.4794 312.748 61.7811C313.669 64.0829 314.789 66.2375 316.109 68.2452C317.44 70.2257 318.912 71.9142 320.525 73.3105C322.158 74.6991 323.963 75.5925 325.94 75.9907C327.929 76.3618 329.871 76.168 331.766 75.4095C333.681 74.6432 335.164 73.612 336.217 72.3158C337.28 70.9926 337.984 69.5553 338.328 68.0039C338.672 66.4525 338.778 64.7271 338.647 62.8276C338.422 59.4619 337.543 55.8642 336.01 52.0345C333.464 45.6709 330.32 41.207 326.579 38.6426C325.244 37.7182 323.745 37.1401 322.081 36.9082C320.41 36.657 318.704 36.8797 316.963 37.5763C315.222 38.2729 313.795 39.248 312.681 40.5016C311.586 41.7475 310.82 43.1423 310.383 44.6859C309.958 46.2025 309.775 47.9028 309.833 49.7868ZM352.167 59.7732C350.557 58.1061 349.147 56.2919 347.936 54.3307C346.744 52.3617 345.742 50.3617 344.929 48.3308C344.109 46.2806 343.482 44.3212 343.048 42.4527C342.614 40.5842 342.336 38.7099 342.212 36.8297C342.087 34.9496 342.192 33.1352 342.524 31.3865C342.868 29.6107 343.398 27.9626 344.113 26.4421C345.691 23.2077 348.337 20.8474 352.051 19.3613C354.778 18.2699 357.67 18.0664 360.726 18.7507C364.297 19.5432 367.684 22.0921 370.888 26.3975L367.099 29.1254C367.026 28.9978 366.923 28.8257 366.792 28.609C366.672 28.3653 366.376 27.934 365.904 27.3151C365.451 26.6884 364.975 26.116 364.476 25.5976C363.969 25.06 363.304 24.5184 362.479 23.9731C361.667 23.4007 360.829 22.9617 359.967 22.6562C357.97 21.9292 355.85 22.0146 353.606 22.9125C351.363 23.8103 349.657 25.0989 348.489 26.778C347.321 28.4572 346.665 30.38 346.523 32.5465C346.233 36.7015 347.087 41.2741 349.084 46.2643C351.468 52.2217 354.022 56.3608 356.745 58.6816C360.324 61.7373 364.3 62.3905 368.671 60.6412C374.106 58.4662 375.995 54.075 374.338 47.4676C373.971 46.044 373.442 44.4714 372.753 42.75L362.976 46.6627L361.536 43.065L375.521 37.4689L383.822 58.2133L380.341 59.6065L378.111 54.036C377.133 57.928 375.565 60.7098 373.406 62.3814C372.447 63.1243 371.078 63.8518 369.298 64.5639C367.519 65.276 365.523 65.5587 363.31 65.412C361.116 65.2576 359.116 64.6892 357.309 63.7069C355.502 62.7245 353.788 61.4133 352.167 59.7732ZM388.654 45.475C387.01 43.8891 385.566 42.133 384.324 40.2066C383.074 38.2608 382.004 36.1758 381.114 33.9514C380.224 31.7271 379.541 29.4872 379.065 27.2319C378.589 24.9765 378.372 22.696 378.414 20.3903C378.456 18.0845 378.796 15.9625 379.434 14.0242C380.084 12.0589 381.163 10.2695 382.671 8.65601C384.172 7.02321 386.035 5.76175 388.259 4.87163C390.503 3.97376 392.696 3.62332 394.84 3.8203C396.994 3.9902 398.96 4.58374 400.736 5.60093C402.523 6.59104 404.218 7.91 405.82 9.5578C408.834 12.66 411.27 16.5322 413.127 21.1743C416.525 29.6655 416.853 36.8495 414.111 42.7264C412.63 45.9221 410.033 48.263 406.319 49.7492C404.172 50.6083 402.019 50.9762 399.86 50.8527C397.694 50.7099 395.696 50.1744 393.866 49.2462C392.047 48.2909 390.31 47.0338 388.654 45.475ZM382.656 20.645C382.734 22.5212 383.01 24.4188 383.487 26.3376C383.955 28.237 384.65 30.3376 385.571 32.6393C386.492 34.941 387.612 37.0957 388.932 39.1033C390.263 41.0839 391.735 42.7723 393.348 44.1686C394.981 45.5572 396.786 46.4506 398.763 46.8488C400.752 47.2199 402.694 47.0262 404.589 46.2676C406.504 45.5014 407.988 44.4701 409.04 43.174C410.103 41.8507 410.807 40.4134 411.151 38.8621C411.495 37.3107 411.601 35.5852 411.47 33.6857C411.245 30.3201 410.366 26.7223 408.833 22.8926C406.287 16.529 403.143 12.0651 399.402 9.50074C398.067 8.57633 396.568 7.99819 394.904 7.76632C393.233 7.51511 391.527 7.73781 389.786 8.43443C388.045 9.13105 386.618 10.1062 385.504 11.3598C384.409 12.6056 383.643 14.0004 383.206 15.5441C382.781 17.0606 382.598 18.7609 382.656 20.645ZM-75.7781 340.284C-76.7493 338.922 -77.6238 337.522 -78.4016 336.083C-79.1601 334.636 -79.9147 332.974 -80.6655 331.098C-81.4241 329.203 -82.053 327.154 -82.5524 324.953C-83.0402 322.725 -83.2785 320.475 -83.2672 318.204C-83.2637 315.914 -82.9622 313.808 -82.3629 311.885C-81.7635 309.962 -80.7483 308.209 -79.3171 306.627C-77.8744 305.017 -76.2245 303.841 -74.3677 303.098C-72.5109 302.355 -70.8377 301.966 -69.3483 301.931C-67.8473 301.869 -66.501 302.037 -65.3094 302.435C-64.1177 302.833 -62.9687 303.35 -61.8622 303.984C-60.7634 304.599 -59.8154 305.285 -59.0184 306.044C-57.3624 307.602 -56.2306 308.832 -55.6231 309.734L-55.1704 310.36L-55.1587 310.389L-59.0927 313.344C-60.2846 311.263 -61.3235 309.816 -62.2096 309.004C-63.084 308.164 -63.8907 307.522 -64.6297 307.077C-65.3571 306.606 -66.0999 306.263 -66.8582 306.051C-68.6417 305.575 -70.4909 305.72 -72.4058 306.487C-79.9492 309.505 -81.2092 317.291 -76.1858 329.844C-74.0341 335.221 -71.484 339.295 -68.5357 342.064C-65.212 345.155 -61.4709 345.868 -57.3124 344.204C-53.9082 342.841 -51.7924 340.446 -50.965 337.019C-50.4005 334.616 -50.5827 332.254 -51.5116 329.933L-47.0086 328.906C-47.0008 329.149 -46.9756 329.745 -46.9329 330.693C-46.8708 331.633 -46.832 332.403 -46.8165 333.002C-46.8009 333.602 -46.8337 334.445 -46.9148 335.533C-46.9842 336.593 -47.1214 337.511 -47.3264 338.289C-47.5119 339.059 -47.8252 339.958 -48.266 340.988C-48.6953 341.99 -49.231 342.866 -49.8731 343.617C-51.4164 345.423 -53.2132 346.737 -55.2634 347.558C-57.3137 348.378 -59.1377 348.839 -60.7354 348.939C-62.3138 349.033 -63.7839 348.892 -65.1458 348.517C-66.5153 348.122 -67.8501 347.534 -69.1501 346.753C-70.4385 345.945 -71.6224 345.005 -72.7019 343.933C-73.7892 342.843 -74.8146 341.626 -75.7781 340.284ZM-39.2018 340.592L-44.2578 291.621L-37.9909 289.113L-7.86762 328.052L-12.3357 329.84L-21.6571 317.481L-36.4248 323.391L-34.7338 338.804L-39.2018 340.592ZM-36.878 319.399L-24.1122 314.29L-39.6614 294.023L-36.878 319.399ZM-27.0349 288.903L-28.4746 285.305L0.886713 273.555L2.32639 277.153L-10.2073 282.169L5.94264 322.526L1.64869 324.244L-14.5012 283.887L-27.0349 288.903ZM11.3074 264.101L16.4413 252.117L19.9755 253.631L13.977 265.22L11.3074 264.101ZM15.459 318.718L10.403 269.747L16.6699 267.239L46.7932 306.179L42.3251 307.967L33.0037 295.608L18.236 301.517L19.927 316.93L15.459 318.718ZM17.7828 297.525L30.5486 292.416L14.9993 272.149L17.7828 297.525ZM51.4353 304.321L33.8457 260.366L38.1396 258.648L54.0806 298.483L73.5774 290.681L75.2261 294.801L51.4353 304.321ZM75.0968 284.048C73.4524 282.462 72.0091 280.706 70.767 278.779C69.5171 276.833 68.4471 274.748 67.557 272.524C66.6669 270.3 65.9837 268.06 65.5075 265.805C65.0314 263.549 64.8144 261.269 64.8566 258.963C64.8988 256.657 65.2389 254.535 65.8769 252.597C66.5266 250.632 67.6057 248.842 69.1142 247.229C70.615 245.596 72.4776 244.334 74.7019 243.444C76.9456 242.546 79.1391 242.196 81.2823 242.393C83.4372 242.563 85.4026 243.156 87.1784 244.174C88.9659 245.164 90.6606 246.483 92.2624 248.13C95.2766 251.233 97.7125 255.105 99.5701 259.747C102.968 268.238 103.296 275.422 100.554 281.299C99.0728 284.495 96.4754 286.836 92.7617 288.322C90.6147 289.181 88.4619 289.549 86.3031 289.425C84.1367 289.283 82.1384 288.747 80.3084 287.819C78.49 286.864 76.7528 285.606 75.0968 284.048ZM69.0986 259.218C69.1762 261.094 69.4531 262.991 69.9293 264.91C70.3977 266.81 71.0924 268.91 72.0135 271.212C72.9346 273.514 74.0549 275.668 75.3744 277.676C76.7055 279.656 78.1778 281.345 79.7912 282.741C81.424 284.13 83.2288 285.023 85.2058 285.421C87.1943 285.793 89.1364 285.599 91.0319 284.84C92.9468 284.074 94.4302 283.043 95.4823 281.747C96.546 280.423 97.2499 278.986 97.5939 277.435C97.938 275.883 98.0442 274.158 97.9123 272.258C97.6875 268.893 96.8087 265.295 95.2762 261.465C92.7296 255.102 89.5857 250.638 85.8443 248.073C84.5095 247.149 83.0103 246.571 81.3468 246.339C79.6755 246.088 77.9694 246.31 76.2286 247.007C74.4878 247.704 73.0604 248.679 71.9465 249.932C70.8518 251.178 70.086 252.573 69.6491 254.117C69.2238 255.633 69.0403 257.334 69.0986 259.218ZM111.433 269.204C109.823 267.537 108.413 265.723 107.202 263.761C106.01 261.792 105.008 259.793 104.195 257.762C103.374 255.711 102.747 253.752 102.314 251.883C101.88 250.015 101.601 248.141 101.477 246.26C101.353 244.38 101.457 242.566 101.79 240.817C102.134 239.041 102.664 237.393 103.379 235.873C104.957 232.638 107.603 230.278 111.317 228.792C114.044 227.701 116.936 227.497 119.992 228.181C123.563 228.974 126.95 231.523 130.154 235.828L126.365 238.556C126.292 238.429 126.189 238.256 126.057 238.04C125.938 237.796 125.641 237.365 125.169 236.746C124.717 236.119 124.241 235.547 123.742 235.028C123.235 234.491 122.569 233.949 121.745 233.404C120.933 232.831 120.095 232.392 119.232 232.087C117.236 231.36 115.116 231.445 112.872 232.343C110.629 233.241 108.923 234.53 107.755 236.209C106.587 237.888 105.931 239.811 105.788 241.977C105.499 246.132 106.352 250.705 108.349 255.695C110.733 261.652 113.287 265.792 116.011 268.112C119.59 271.168 123.565 271.821 127.937 270.072C133.372 267.897 135.261 263.506 133.604 256.898C133.236 255.475 132.708 253.902 132.019 252.181L122.242 256.093L120.802 252.496L134.786 246.9L143.088 267.644L139.606 269.037L137.377 263.467C136.399 267.359 134.831 270.141 132.672 271.812C131.713 272.555 130.343 273.283 128.564 273.995C126.784 274.707 124.788 274.989 122.575 274.843C120.382 274.688 118.382 274.12 116.575 273.138C114.768 272.155 113.054 270.844 111.433 269.204ZM147.92 254.906C146.275 253.32 144.832 251.564 143.59 249.637C142.34 247.692 141.27 245.607 140.38 243.382C139.49 241.158 138.807 238.918 138.331 236.663C137.854 234.407 137.637 232.127 137.68 229.821C137.722 227.515 138.062 225.393 138.7 223.455C139.35 221.49 140.429 219.7 141.937 218.087C143.438 216.454 145.301 215.193 147.525 214.302C149.769 213.405 151.962 213.054 154.105 213.251C156.26 213.421 158.226 214.015 160.001 215.032C161.789 216.022 163.484 217.341 165.085 218.989C168.1 222.091 170.535 225.963 172.393 230.605C175.791 239.096 176.119 246.28 173.377 252.157C171.896 255.353 169.298 257.694 165.585 259.18C163.438 260.039 161.285 260.407 159.126 260.283C156.96 260.141 154.961 259.605 153.131 258.677C151.313 257.722 149.576 256.465 147.92 254.906ZM141.922 230.076C141.999 231.952 142.276 233.85 142.752 235.768C143.221 237.668 143.915 239.768 144.837 242.07C145.758 244.372 146.878 246.526 148.197 248.534C149.529 250.515 151.001 252.203 152.614 253.599C154.247 254.988 156.052 255.881 158.029 256.28C160.017 256.651 161.959 256.457 163.855 255.698C165.77 254.932 167.253 253.901 168.305 252.605C169.369 251.282 170.073 249.844 170.417 248.293C170.761 246.741 170.867 245.016 170.735 243.117C170.51 239.751 169.632 236.153 168.099 232.323C165.553 225.96 162.409 221.496 158.667 218.931C157.333 218.007 155.833 217.429 154.17 217.197C152.498 216.946 150.792 217.169 149.052 217.865C147.311 218.562 145.883 219.537 144.769 220.791C143.675 222.036 142.909 223.431 142.472 224.975C142.047 226.491 141.863 228.192 141.922 230.076ZM211.394 225.365C210.423 224.003 209.548 222.603 208.771 221.164C208.012 219.717 207.257 218.056 206.507 216.18C205.748 214.284 205.119 212.236 204.62 210.034C204.132 207.806 203.894 205.557 203.905 203.286C203.909 200.995 204.21 198.889 204.809 196.966C205.409 195.043 206.424 193.291 207.855 191.708C209.298 190.099 210.948 188.922 212.805 188.179C214.661 187.436 216.335 187.047 217.824 187.012C219.325 186.95 220.671 187.118 221.863 187.516C223.054 187.915 224.204 188.431 225.31 189.065C226.409 189.68 227.357 190.367 228.154 191.125C229.81 192.684 230.942 193.914 231.549 194.815L232.002 195.442L232.013 195.471L228.08 198.425C226.888 196.344 225.849 194.897 224.963 194.085C224.088 193.245 223.282 192.603 222.543 192.159C221.815 191.687 221.072 191.344 220.314 191.132C218.531 190.656 216.681 190.802 214.766 191.568C207.223 194.587 205.963 202.372 210.986 214.925C213.138 220.303 215.688 224.376 218.637 227.145C221.96 230.236 225.701 230.949 229.86 229.285C233.264 227.923 235.38 225.528 236.207 222.1C236.772 219.697 236.59 217.336 235.661 215.015L240.164 213.987C240.171 214.23 240.197 214.826 240.239 215.774C240.301 216.714 240.34 217.484 240.356 218.084C240.371 218.683 240.339 219.527 240.257 220.614C240.188 221.674 240.051 222.593 239.846 223.37C239.66 224.14 239.347 225.04 238.906 226.069C238.477 227.071 237.941 227.947 237.299 228.698C235.756 230.505 233.959 231.818 231.909 232.639C229.859 233.459 228.035 233.92 226.437 234.021C224.858 234.114 223.388 233.973 222.026 233.598C220.657 233.203 219.322 232.616 218.022 231.834C216.734 231.026 215.55 230.086 214.47 229.015C213.383 227.924 212.358 226.707 211.394 225.365ZM247.97 225.673L242.914 176.702L249.181 174.194L279.305 213.134L274.837 214.922L265.515 202.563L250.747 208.472L252.438 223.885L247.97 225.673ZM250.294 204.48L263.06 199.371L247.511 179.104L250.294 204.48ZM260.137 173.984L258.698 170.386L288.059 158.637L289.499 162.234L276.965 167.25L293.115 207.607L288.821 209.325L272.671 168.968L260.137 173.984ZM298.48 149.182L303.614 137.198L307.148 138.712L301.149 150.302L298.48 149.182ZM302.631 203.799L297.575 154.828L303.842 152.321L333.965 191.26L329.497 193.048L320.176 180.689L305.408 186.599L307.099 202.011L302.631 203.799ZM304.955 182.606L317.721 177.498L302.172 157.23L304.955 182.606ZM338.608 189.402L321.018 145.447L325.312 143.729L341.253 183.564L360.75 175.762L362.398 179.882L338.608 189.402ZM362.269 169.129C360.625 167.543 359.181 165.787 357.939 163.86C356.689 161.915 355.619 159.83 354.729 157.605C353.839 155.381 353.156 153.141 352.68 150.886C352.204 148.63 351.987 146.35 352.029 144.044C352.071 141.738 352.411 139.616 353.049 137.678C353.699 135.713 354.778 133.923 356.286 132.31C357.787 130.677 359.65 129.416 361.874 128.525C364.118 127.628 366.311 127.277 368.455 127.474C370.609 127.644 372.575 128.238 374.351 129.255C376.138 130.245 377.833 131.564 379.435 133.212C382.449 136.314 384.885 140.186 386.742 144.828C390.14 153.319 390.468 160.503 387.726 166.38C386.245 169.576 383.648 171.917 379.934 173.403C377.787 174.262 375.634 174.63 373.475 174.507C371.309 174.364 369.311 173.828 367.481 172.9C365.662 171.945 363.925 170.688 362.269 169.129ZM356.271 144.299C356.348 146.175 356.625 148.073 357.102 149.991C357.57 151.891 358.265 153.991 359.186 156.293C360.107 158.595 361.227 160.75 362.547 162.757C363.878 164.738 365.35 166.426 366.963 167.822C368.596 169.211 370.401 170.104 372.378 170.503C374.367 170.874 376.309 170.68 378.204 169.921C380.119 169.155 381.602 168.124 382.655 166.828C383.718 165.505 384.422 164.067 384.766 162.516C385.11 160.965 385.216 159.239 385.085 157.34C384.86 153.974 383.981 150.376 382.448 146.546C379.902 140.183 376.758 135.719 373.017 133.155C371.682 132.23 370.183 131.652 368.519 131.42C366.848 131.169 365.142 131.392 363.401 132.088C361.66 132.785 360.233 133.76 359.119 135.014C358.024 136.259 357.258 137.654 356.821 139.198C356.396 140.714 356.213 142.415 356.271 144.299ZM398.605 154.285C396.995 152.618 395.585 150.804 394.374 148.843C393.182 146.874 392.18 144.874 391.367 142.843C390.547 140.793 389.92 138.833 389.486 136.965C389.052 135.096 388.774 133.222 388.65 131.342C388.525 129.462 388.63 127.647 388.962 125.898C389.306 124.123 389.836 122.475 390.551 120.954C392.129 117.72 394.775 115.359 398.489 113.873C401.216 112.782 404.108 112.578 407.164 113.263C410.735 114.055 414.122 116.604 417.326 120.909L413.537 123.637C413.464 123.51 413.361 123.338 413.23 123.121C413.11 122.877 412.814 122.446 412.342 121.827C411.889 121.2 411.413 120.628 410.914 120.11C410.407 119.572 409.742 119.03 408.917 118.485C408.105 117.913 407.267 117.474 406.405 117.168C404.408 116.441 402.288 116.527 400.044 117.424C397.801 118.322 396.095 119.611 394.927 121.29C393.759 122.969 393.103 124.892 392.96 127.058C392.671 131.213 393.525 135.786 395.522 140.776C397.906 146.734 400.46 150.873 403.183 153.194C406.762 156.249 410.738 156.902 415.109 155.153C420.544 152.978 422.433 148.587 420.776 141.98C420.409 140.556 419.88 138.983 419.191 137.262L409.414 141.175L407.974 137.577L421.959 131.981L430.26 152.725L426.779 154.118L424.549 148.548C423.571 152.44 422.003 155.222 419.844 156.893C418.885 157.636 417.516 158.364 415.736 159.076C413.957 159.788 411.961 160.071 409.748 159.924C407.554 159.77 405.554 159.201 403.747 158.219C401.94 157.236 400.226 155.925 398.605 154.285ZM435.092 139.987C433.448 138.401 432.004 136.645 430.762 134.719C429.512 132.773 428.442 130.688 427.552 128.463C426.662 126.239 425.979 123.999 425.503 121.744C425.027 119.489 424.81 117.208 424.852 114.902C424.894 112.597 425.234 110.475 425.872 108.536C426.522 106.571 427.601 104.781 429.109 103.168C430.61 101.535 432.473 100.274 434.697 99.3836C436.941 98.4857 439.134 98.1353 441.278 98.3323C443.432 98.5022 445.398 99.0957 447.174 100.113C448.961 101.103 450.656 102.422 452.258 104.07C455.272 107.172 457.708 111.044 459.565 115.686C462.963 124.177 463.291 131.361 460.549 137.238C459.068 140.434 456.471 142.775 452.757 144.261C450.61 145.12 448.457 145.488 446.298 145.365C444.132 145.222 442.134 144.686 440.304 143.758C438.485 142.803 436.748 141.546 435.092 139.987ZM429.094 115.157C429.172 117.033 429.448 118.931 429.925 120.85C430.393 122.749 431.088 124.85 432.009 127.151C432.93 129.453 434.05 131.608 435.37 133.615C436.701 135.596 438.173 137.284 439.786 138.681C441.419 140.069 443.224 140.963 445.201 141.361C447.19 141.732 449.132 141.538 451.027 140.78C452.942 140.013 454.426 138.982 455.478 137.686C456.541 136.363 457.245 134.925 457.589 133.374C457.933 131.823 458.039 130.097 457.908 128.198C457.683 124.832 456.804 121.234 455.271 117.405C452.725 111.041 449.581 106.577 445.84 104.013C444.505 103.088 443.006 102.51 441.342 102.278C439.671 102.027 437.965 102.25 436.224 102.946C434.483 103.643 433.056 104.618 431.942 105.872C430.847 107.118 430.081 108.512 429.644 110.056C429.219 111.573 429.036 113.273 429.094 115.157ZM-29.3401 434.796C-30.3113 433.434 -31.1858 432.034 -31.9636 430.595C-32.7221 429.148 -33.4768 427.486 -34.2276 425.61C-34.9861 423.715 -35.6151 421.666 -36.1144 419.465C-36.6022 417.237 -36.8405 414.987 -36.8292 412.716C-36.8257 410.426 -36.5243 408.32 -35.9249 406.397C-35.3256 404.474 -34.3103 402.721 -32.8791 401.139C-31.4364 399.529 -29.7866 398.353 -27.9297 397.61C-26.0729 396.867 -24.3997 396.478 -22.9103 396.443C-21.4093 396.381 -20.063 396.549 -18.8714 396.947C-17.6798 397.345 -16.5307 397.862 -15.4242 398.496C-14.3254 399.111 -13.3774 399.797 -12.5804 400.556C-10.9244 402.114 -9.79261 403.344 -9.1851 404.246L-8.73237 404.872L-8.72076 404.901L-12.6547 407.856C-13.8466 405.775 -14.8855 404.328 -15.7716 403.516C-16.646 402.676 -17.4527 402.034 -18.1917 401.589C-18.9191 401.117 -19.6619 400.775 -20.4202 400.563C-22.2037 400.087 -24.0529 400.232 -25.9678 400.999C-33.5112 404.017 -34.7712 411.803 -29.7478 424.356C-27.5961 429.733 -25.046 433.807 -22.0977 436.576C-18.7741 439.667 -15.033 440.38 -10.8744 438.716C-7.47019 437.353 -5.3544 434.958 -4.52702 431.531C-3.96256 429.128 -4.14474 426.766 -5.07356 424.445L-0.570603 423.418C-0.562829 423.661 -0.537594 424.257 -0.494897 425.205C-0.432858 426.145 -0.394056 426.915 -0.378491 427.514C-0.362927 428.114 -0.395684 428.957 -0.476763 430.045C-0.54624 431.105 -0.68344 432.023 -0.888362 432.801C-1.07394 433.571 -1.38717 434.47 -1.82804 435.5C-2.25731 436.502 -2.79299 437.378 -3.43507 438.129C-4.97839 439.935 -6.77519 441.249 -8.82545 442.07C-10.8757 442.89 -12.6997 443.351 -14.2975 443.451C-15.8758 443.545 -17.346 443.404 -18.7078 443.029C-20.0773 442.634 -21.4121 442.046 -22.7121 441.265C-24.0005 440.457 -25.1844 439.517 -26.2639 438.445C-27.3512 437.354 -28.3766 436.138 -29.3401 434.796ZM7.23615 435.104L2.18023 386.133L8.44707 383.625L38.5704 422.564L34.1023 424.352L24.7809 411.993L10.0132 417.903L11.7042 433.316L7.23615 435.104ZM9.55998 413.911L22.3258 408.802L6.77655 388.535L9.55998 413.911ZM19.4031 383.415L17.9634 379.817L47.3247 368.067L48.7644 371.665L36.2307 376.681L52.3806 417.038L48.0867 418.756L31.9367 378.399L19.4031 383.415ZM57.7454 358.613L62.8793 346.629L66.4135 348.143L60.415 359.732L57.7454 358.613ZM61.8969 413.23L56.841 364.259L63.1079 361.751L93.2312 400.691L88.7631 402.479L79.4417 390.12L64.674 396.029L66.365 411.442L61.8969 413.23ZM64.2208 392.037L76.9866 386.928L61.4373 366.661L64.2208 392.037ZM97.8733 398.833L80.2837 354.878L84.5776 353.16L100.519 392.995L120.015 385.193L121.664 389.313L97.8733 398.833ZM121.535 378.56C119.89 376.974 118.447 375.218 117.205 373.291C115.955 371.345 114.885 369.26 113.995 367.036C113.105 364.812 112.422 362.572 111.946 360.316C111.469 358.061 111.252 355.781 111.295 353.475C111.337 351.169 111.677 349.047 112.315 347.109C112.965 345.143 114.044 343.354 115.552 341.741C117.053 340.108 118.916 338.846 121.14 337.956C123.384 337.058 125.577 336.708 127.72 336.905C129.875 337.075 131.841 337.668 133.616 338.686C135.404 339.676 137.099 340.995 138.7 342.642C141.715 345.745 144.15 349.617 146.008 354.259C149.406 362.75 149.734 369.934 146.992 375.811C145.511 379.007 142.913 381.348 139.2 382.834C137.053 383.693 134.9 384.061 132.741 383.937C130.575 383.794 128.576 383.259 126.746 382.331C124.928 381.375 123.191 380.118 121.535 378.56ZM115.537 353.73C115.614 355.606 115.891 357.503 116.367 359.422C116.836 361.322 117.53 363.422 118.451 365.724C119.373 368.026 120.493 370.18 121.812 372.188C123.143 374.168 124.616 375.857 126.229 377.253C127.862 378.642 129.667 379.535 131.644 379.933C133.632 380.305 135.574 380.111 137.47 379.352C139.385 378.586 140.868 377.555 141.92 376.259C142.984 374.935 143.688 373.498 144.032 371.947C144.376 370.395 144.482 368.67 144.35 366.77C144.125 363.405 143.247 359.807 141.714 355.977C139.168 349.614 136.024 345.15 132.282 342.585C130.947 341.661 129.448 341.083 127.785 340.851C126.113 340.6 124.407 340.822 122.667 341.519C120.926 342.216 119.498 343.191 118.384 344.444C117.29 345.69 116.524 347.085 116.087 348.629C115.662 350.145 115.478 351.846 115.537 353.73ZM157.871 363.716C156.261 362.049 154.851 360.235 153.64 358.273C152.448 356.304 151.446 354.304 150.633 352.274C149.812 350.223 149.185 348.264 148.752 346.395C148.318 344.527 148.039 342.653 147.915 340.772C147.791 338.892 147.895 337.078 148.228 335.329C148.572 333.553 149.102 331.905 149.817 330.385C151.395 327.15 154.041 324.79 157.755 323.304C160.482 322.213 163.374 322.009 166.43 322.693C170.001 323.486 173.388 326.035 176.592 330.34L172.803 333.068C172.73 332.941 172.627 332.768 172.495 332.552C172.375 332.308 172.079 331.877 171.607 331.258C171.155 330.631 170.679 330.059 170.18 329.54C169.673 329.003 169.007 328.461 168.183 327.916C167.371 327.343 166.533 326.904 165.67 326.599C163.674 325.872 161.554 325.957 159.31 326.855C157.067 327.753 155.361 329.042 154.193 330.721C153.025 332.4 152.369 334.323 152.226 336.489C151.937 340.644 152.79 345.217 154.787 350.207C157.171 356.164 159.725 360.304 162.449 362.624C166.028 365.68 170.003 366.333 174.375 364.584C179.81 362.409 181.699 358.018 180.042 351.41C179.674 349.987 179.146 348.414 178.457 346.693L168.68 350.605L167.24 347.008L181.224 341.412L189.526 362.156L186.044 363.549L183.815 357.979C182.837 361.871 181.269 364.653 179.11 366.324C178.151 367.067 176.781 367.795 175.002 368.507C173.222 369.219 171.226 369.501 169.013 369.355C166.82 369.2 164.82 368.632 163.013 367.65C161.206 366.667 159.492 365.356 157.871 363.716ZM194.358 349.418C192.713 347.832 191.27 346.076 190.028 344.149C188.778 342.204 187.708 340.119 186.818 337.894C185.928 335.67 185.245 333.43 184.769 331.175C184.292 328.919 184.075 326.639 184.118 324.333C184.16 322.027 184.5 319.905 185.138 317.967C185.788 316.002 186.867 314.212 188.375 312.599C189.876 310.966 191.739 309.704 193.963 308.814C196.207 307.917 198.4 307.566 200.543 307.763C202.698 307.933 204.664 308.526 206.439 309.544C208.227 310.534 209.922 311.853 211.523 313.501C214.538 316.603 216.973 320.475 218.831 325.117C222.229 333.608 222.557 340.792 219.815 346.669C218.334 349.865 215.736 352.206 212.023 353.692C209.876 354.551 207.723 354.919 205.564 354.795C203.398 354.653 201.399 354.117 199.569 353.189C197.751 352.234 196.014 350.977 194.358 349.418ZM188.36 324.588C188.437 326.464 188.714 328.362 189.19 330.28C189.659 332.18 190.353 334.28 191.275 336.582C192.196 338.884 193.316 341.038 194.635 343.046C195.967 345.027 197.439 346.715 199.052 348.111C200.685 349.5 202.49 350.393 204.467 350.792C206.455 351.163 208.397 350.969 210.293 350.21C212.208 349.444 213.691 348.413 214.743 347.117C215.807 345.793 216.511 344.356 216.855 342.805C217.199 341.253 217.305 339.528 217.173 337.628C216.948 334.263 216.07 330.665 214.537 326.835C211.991 320.472 208.847 316.008 205.105 313.443C203.771 312.519 202.271 311.941 200.608 311.709C198.936 311.458 197.23 311.681 195.49 312.377C193.749 313.074 192.321 314.049 191.207 315.303C190.113 316.548 189.347 317.943 188.91 319.487C188.485 321.003 188.301 322.704 188.36 324.588ZM242.977 325.821C242.006 324.46 241.132 323.059 240.354 321.62C239.595 320.174 238.841 318.512 238.09 316.636C237.331 314.74 236.702 312.692 236.203 310.491C235.715 308.263 235.477 306.013 235.488 303.742C235.492 301.452 235.793 299.345 236.393 297.423C236.992 295.5 238.007 293.747 239.438 292.165C240.881 290.555 242.531 289.379 244.388 288.636C246.245 287.893 247.918 287.504 249.407 287.469C250.908 287.406 252.255 287.574 253.446 287.973C254.638 288.371 255.787 288.887 256.893 289.522C257.992 290.137 258.94 290.823 259.737 291.581C261.393 293.14 262.525 294.37 263.132 295.271L263.585 295.898L263.597 295.927L259.663 298.881C258.471 296.8 257.432 295.354 256.546 294.541C255.671 293.702 254.865 293.06 254.126 292.615C253.398 292.143 252.656 291.801 251.897 291.588C250.114 291.113 248.265 291.258 246.35 292.024C238.806 295.043 237.546 302.829 242.57 315.382C244.721 320.759 247.271 324.832 250.22 327.602C253.543 330.692 257.285 331.406 261.443 329.741C264.847 328.379 266.963 325.984 267.79 322.556C268.355 320.154 268.173 317.792 267.244 315.471L271.747 314.443C271.755 314.687 271.78 315.283 271.823 316.231C271.885 317.171 271.923 317.94 271.939 318.54C271.955 319.14 271.922 319.983 271.841 321.07C271.771 322.13 271.634 323.049 271.429 323.827C271.244 324.597 270.93 325.496 270.489 326.525C270.06 327.527 269.525 328.404 268.882 329.154C267.339 330.961 265.542 332.275 263.492 333.095C261.442 333.916 259.618 334.376 258.02 334.477C256.442 334.57 254.972 334.429 253.61 334.054C252.24 333.66 250.905 333.072 249.605 332.291C248.317 331.482 247.133 330.542 246.054 329.471C244.966 328.38 243.941 327.164 242.977 325.821ZM279.554 326.129L274.498 277.159L280.765 274.651L310.888 313.59L306.42 315.378L297.098 303.019L282.331 308.929L284.022 324.341L279.554 326.129ZM281.877 304.936L294.643 299.828L279.094 279.56L281.877 304.936ZM291.721 274.44L290.281 270.843L319.642 259.093L321.082 262.691L308.548 267.706L324.698 308.064L320.404 309.782L304.254 269.425L291.721 274.44ZM330.063 249.638L335.197 237.654L338.731 239.169L332.732 250.758L330.063 249.638ZM334.214 304.255L329.159 255.285L335.425 252.777L365.549 291.716L361.081 293.504L351.759 281.145L336.992 287.055L338.682 302.467L334.214 304.255ZM336.538 283.063L349.304 277.954L333.755 257.687L336.538 283.063ZM370.191 289.859L352.601 245.904L356.895 244.185L372.836 284.02L392.333 276.218L393.982 280.338L370.191 289.859ZM393.852 269.585C392.208 267.999 390.765 266.243 389.522 264.317C388.273 262.371 387.203 260.286 386.312 258.062C385.422 255.837 384.739 253.598 384.263 251.342C383.787 249.087 383.57 246.806 383.612 244.501C383.654 242.195 383.994 240.073 384.632 238.135C385.282 236.169 386.361 234.38 387.87 232.766C389.37 231.133 391.233 229.872 393.457 228.982C395.701 228.084 397.895 227.734 400.038 227.931C402.193 228.1 404.158 228.694 405.934 229.711C407.721 230.701 409.416 232.02 411.018 233.668C414.032 236.77 416.468 240.642 418.326 245.285C421.724 253.776 422.052 260.96 419.31 266.837C417.828 270.032 415.231 272.373 411.517 273.859C409.37 274.719 407.217 275.086 405.059 274.963C402.892 274.82 400.894 274.285 399.064 273.356C397.246 272.401 395.508 271.144 393.852 269.585ZM387.854 244.755C387.932 246.632 388.209 248.529 388.685 250.448C389.153 252.347 389.848 254.448 390.769 256.75C391.69 259.051 392.81 261.206 394.13 263.214C395.461 265.194 396.933 266.883 398.547 268.279C400.179 269.668 401.984 270.561 403.961 270.959C405.95 271.33 407.892 271.136 409.787 270.378C411.702 269.612 413.186 268.58 414.238 267.284C415.301 265.961 416.005 264.524 416.349 262.972C416.694 261.421 416.8 259.696 416.668 257.796C416.443 254.43 415.564 250.833 414.032 247.003C411.485 240.639 408.341 236.175 404.6 233.611C403.265 232.687 401.766 232.108 400.102 231.877C398.431 231.625 396.725 231.848 394.984 232.545C393.243 233.241 391.816 234.216 390.702 235.47C389.607 236.716 388.842 238.111 388.405 239.654C387.979 241.171 387.796 242.871 387.854 244.755ZM430.188 254.742C428.579 253.074 427.168 251.26 425.957 249.299C424.765 247.33 423.763 245.33 422.95 243.299C422.13 241.249 421.503 239.29 421.069 237.421C420.636 235.553 420.357 233.678 420.233 231.798C420.109 229.918 420.213 228.104 420.545 226.355C420.889 224.579 421.419 222.931 422.135 221.411C423.713 218.176 426.358 215.816 430.072 214.33C432.799 213.238 435.691 213.035 438.747 213.719C442.318 214.512 445.706 217.061 448.91 221.366L445.121 224.094C445.047 223.966 444.945 223.794 444.813 223.577C444.693 223.334 444.397 222.902 443.925 222.284C443.472 221.657 442.996 221.084 442.497 220.566C441.99 220.028 441.325 219.487 440.501 218.942C439.688 218.369 438.851 217.93 437.988 217.625C435.991 216.898 433.871 216.983 431.628 217.881C429.384 218.779 427.678 220.067 426.51 221.746C425.342 223.426 424.687 225.348 424.544 227.515C424.254 231.67 425.108 236.243 427.105 241.233C429.489 247.19 432.043 251.329 434.767 253.65C438.346 256.706 442.321 257.359 446.692 255.61C452.127 253.435 454.016 249.043 452.36 242.436C451.992 241.012 451.464 239.44 450.775 237.718L440.997 241.631L439.558 238.033L453.542 232.437L461.843 253.182L458.362 254.575L456.133 249.004C455.154 252.896 453.586 255.678 451.428 257.35C450.468 258.093 449.099 258.82 447.319 259.532C445.54 260.244 443.544 260.527 441.331 260.38C439.137 260.226 437.137 259.658 435.33 258.675C433.524 257.693 431.81 256.382 430.188 254.742ZM466.675 240.443C465.031 238.858 463.588 237.101 462.346 235.175C461.096 233.229 460.026 231.144 459.136 228.92C458.245 226.696 457.562 224.456 457.086 222.2C456.61 219.945 456.393 217.664 456.435 215.359C456.477 213.053 456.817 210.931 457.455 208.993C458.105 207.027 459.184 205.238 460.693 203.624C462.194 201.992 464.056 200.73 466.28 199.84C468.524 198.942 470.718 198.592 472.861 198.789C475.016 198.959 476.981 199.552 478.757 200.569C480.544 201.559 482.239 202.878 483.841 204.526C486.855 207.628 489.291 211.501 491.149 216.143C494.547 224.634 494.875 231.818 492.133 237.695C490.651 240.891 488.054 243.231 484.34 244.718C482.193 245.577 480.04 245.945 477.882 245.821C475.715 245.678 473.717 245.143 471.887 244.215C470.069 243.259 468.331 242.002 466.675 240.443ZM460.677 215.613C460.755 217.49 461.032 219.387 461.508 221.306C461.976 223.205 462.671 225.306 463.592 227.608C464.513 229.909 465.633 232.064 466.953 234.072C468.284 236.052 469.756 237.741 471.37 239.137C473.003 240.526 474.807 241.419 476.784 241.817C478.773 242.188 480.715 241.995 482.61 241.236C484.525 240.47 486.009 239.439 487.061 238.142C488.125 236.819 488.828 235.382 489.172 233.83C489.517 232.279 489.623 230.554 489.491 228.654C489.266 225.288 488.387 221.691 486.855 217.861C484.308 211.497 481.164 207.034 477.423 204.469C476.088 203.545 474.589 202.967 472.925 202.735C471.254 202.484 469.548 202.706 467.807 203.403C466.066 204.099 464.639 205.075 463.525 206.328C462.43 207.574 461.665 208.969 461.228 210.512C460.802 212.029 460.619 213.729 460.677 215.613Z" fill="white" fill-opacity="0.4"/>
</g>
<path d="M191.472 89.5175H124.517V156.222H191.472V89.5175Z" fill="#4EBAB1"/>
<path d="M176.243 104.69H139.746V141.05H176.243V104.69Z" fill="#44A397"/>
<path d="M160.747 59H152.206V94.5171H160.747V59Z" fill="#4EBAB1"/>
<path d="M119.545 256.804L158 151.234V256.804" stroke="#4EBAB1" stroke-miterlimit="10"/>
<path d="M196.456 256.804L158 151.234V256.804" stroke="#4EBAB1" stroke-miterlimit="10"/>
<path d="M158 136.754C165.694 136.754 171.931 130.541 171.931 122.875C171.931 115.21 165.694 108.996 158 108.996C150.306 108.996 144.069 115.21 144.069 122.875C144.069 130.541 150.306 136.754 158 136.754Z" fill="#4EBAB1"/>
<path opacity="0.11" d="M169.377 122.903C170.904 120.342 168.634 116.192 164.308 113.633C159.982 111.074 155.238 111.075 153.712 113.636C152.185 116.197 154.455 120.347 158.781 122.906C163.107 125.465 167.851 125.464 169.377 122.903Z" fill="white"/>
</svg>
