<svg width="1500" height="1055" viewBox="0 0 1500 1055" fill="none" xmlns="http://www.w3.org/2000/svg">
<path d="M-112.716 116.085C-140.326 182.855 -74.7444 220.356 -98.4359 305.213C-120.69 384.921 -24.1109 406.764 42.1437 357.954C53.3266 353.177 78.0229 333.313 87.3451 292.073C98.9977 240.522 142.442 222.666 129.399 169.665C116.355 116.663 57.0436 115.123 21.6039 56.6765C-13.8358 -1.77029 -85.1063 49.3155 -112.716 116.085Z" fill="white"/>
<path d="M54.5644 347.606C50.5776 351.352 46.4239 354.801 42.1437 357.954M42.1437 357.954C-24.1109 406.764 -120.69 384.921 -98.4359 305.213C-74.7444 220.356 -140.326 182.855 -112.716 116.085C-85.1063 49.3155 -13.8358 -1.77029 21.6039 56.6765C57.0436 115.123 116.355 116.663 129.399 169.665C142.442 222.666 98.9977 240.522 87.3451 292.073C78.0229 333.313 53.3266 353.177 42.1437 357.954Z" stroke="white"/>
<path d="M1526.54 966.673C1576.43 914.407 1528.85 855.727 1581.62 785.182C1631.2 718.917 1549.05 663.625 1469.63 685.17C1457.48 685.579 1427.27 695.167 1403.66 730.245C1374.16 774.092 1327.19 775.028 1320.19 829.159C1313.18 883.29 1367.92 906.176 1379.82 973.483C1391.73 1040.79 1476.65 1018.94 1526.54 966.673Z" fill="white"/>
<path d="M1454.31 690.326C1459.38 688.275 1464.5 686.562 1469.63 685.17M1469.63 685.17C1549.05 663.625 1631.2 718.917 1581.62 785.182C1528.85 855.727 1576.43 914.407 1526.54 966.673C1476.65 1018.94 1391.73 1040.79 1379.82 973.483C1367.92 906.176 1313.18 883.29 1320.19 829.159C1327.19 775.028 1374.16 774.092 1403.66 730.245C1427.27 695.167 1457.48 685.579 1469.63 685.17Z" stroke="white"/>
<path d="M1435.71 231.091C1468.38 295.536 1539.55 270.209 1588.5 343.463C1634.48 412.272 1713.97 353.227 1720.09 271.163C1723.76 259.567 1724.77 227.89 1699.56 193.951C1668.04 151.528 1682.79 106.935 1634.08 82.3033C1585.37 57.6721 1545.57 101.669 1478.14 90.4818C1410.71 79.2951 1403.04 166.647 1435.71 231.091Z" fill="white"/>
<path d="M1720.34 254.998C1720.58 260.464 1720.49 265.862 1720.09 271.163M1720.09 271.163C1713.97 353.227 1634.48 412.272 1588.5 343.463C1539.55 270.209 1468.38 295.536 1435.71 231.091C1403.04 166.647 1410.71 79.2951 1478.14 90.4818C1545.57 101.669 1585.37 57.6721 1634.08 82.3033C1682.79 106.935 1668.04 151.528 1699.56 193.951C1724.77 227.89 1723.76 259.567 1720.09 271.163Z" stroke="white"/>
<path d="M-168.293 823.201C-135.621 758.757 -64.4469 784.084 -15.4997 710.829C30.4772 642.02 109.965 701.065 116.094 783.129C119.755 794.726 120.772 826.403 95.5561 860.341C64.0357 902.765 78.7897 947.358 30.0808 971.989C-18.628 996.62 -58.4347 952.624 -125.865 963.811C-193.295 974.997 -200.965 887.645 -168.293 823.201Z" fill="white"/>
<path d="M116.334 799.294C116.58 793.829 116.49 788.431 116.094 783.129M116.094 783.129C109.965 701.065 30.4772 642.02 -15.4997 710.829C-64.4469 784.084 -135.621 758.757 -168.293 823.201C-200.965 887.645 -193.295 974.997 -125.865 963.811C-58.4347 952.624 -18.628 996.62 30.0808 971.989C78.7897 947.358 64.0357 902.765 95.5561 860.341C120.772 826.403 119.755 794.726 116.094 783.129Z" stroke="white"/>
<path d="M104.688 209.504L126.949 275.295L58.842 261.679L104.688 209.504Z" stroke="#FADA5E" stroke-opacity="0.6" stroke-width="3"/>
<path d="M1393.4 625.332L1347.27 619.397L1375.48 582.418L1393.4 625.332Z" stroke="#FADA5E" stroke-opacity="0.6" stroke-width="3"/>
<circle cx="93" cy="718" r="40.5" stroke="#FADA5E" stroke-opacity="0.6" stroke-width="3"/>
<circle cx="1273.5" cy="386.5" r="22" stroke="#FADA5E" stroke-opacity="0.6" stroke-width="3"/>
<rect x="1291.79" y="858.545" width="58.0396" height="58.0396" transform="rotate(-12.6925 1291.79 858.545)" stroke="#FADA5E" stroke-opacity="0.6" stroke-width="3"/>
<rect x="242.52" y="449.77" width="33.7752" height="33.7752" transform="rotate(11.5299 242.52 449.77)" stroke="#FADA5E" stroke-opacity="0.6" stroke-width="3"/>
<path d="M1400 169L1446 227.5" stroke="#FADA5E" stroke-opacity="0.6" stroke-width="3"/>
<path d="M1398 227.5L1448 169" stroke="#FADA5E" stroke-opacity="0.6" stroke-width="3"/>
<path d="M287 844L321 886" stroke="#FADA5E" stroke-opacity="0.6" stroke-width="3"/>
<path d="M286 886L322 844" stroke="#FADA5E" stroke-opacity="0.6" stroke-width="3"/>
</svg>
