<svg width="316" height="316" viewBox="0 0 316 316" fill="none" xmlns="http://www.w3.org/2000/svg">
<mask id="mask0_325_92" style="mask-type:alpha" maskUnits="userSpaceOnUse" x="0" y="0" width="316" height="316">
<rect width="316" height="316" fill="#4BC3B5"/>
</mask>
<g mask="url(#mask0_325_92)">
<path d="M-56.7074 111.482L-54.3294 108.752C-53.3717 109.806 -52.0462 110.658 -50.3528 111.307C-49.6376 111.582 -48.7539 111.746 -47.7017 111.798C-46.6572 111.831 -45.6414 111.651 -44.6542 111.258C-42.2928 110.318 -40.9285 108.844 -40.5615 106.837C-40.1828 104.803 -40.5868 102.295 -41.7733 99.3146L-54.3245 67.7833L-50.0274 66.0728L-37.4762 97.6041C-34.9644 103.914 -35.4581 108.786 -38.9573 112.219C-40.0771 113.293 -41.45 114.153 -43.0759 114.801C-44.7019 115.448 -46.2537 115.774 -47.7316 115.779C-49.2171 115.765 -50.4451 115.581 -51.4156 115.228C-52.3937 114.855 -53.3194 114.36 -54.1927 113.743C-55.4369 112.871 -56.2752 112.117 -56.7074 111.482ZM-27.4597 97.2495C-29.1012 95.6606 -30.5412 93.9018 -31.7798 91.9732C-33.0262 90.0251 -34.0923 87.9381 -34.9784 85.7122C-35.8644 83.4862 -36.5435 81.2451 -37.0156 78.9889C-37.4876 76.7327 -37.7004 74.4517 -37.654 72.1461C-37.6076 69.8405 -37.2636 67.7191 -36.622 65.7819C-35.9688 63.8178 -34.8864 62.0303 -33.3749 60.4196C-31.8712 58.7896 -30.0063 57.5315 -27.7803 56.6455C-25.535 55.7517 -23.3409 55.4053 -21.198 55.6062C-19.0435 55.78 -17.0792 56.3771 -15.3052 57.3976C-13.5195 58.391 -11.8273 59.713 -10.2284 61.3637C-7.21995 64.4715 -4.79113 68.3481 -2.94197 72.9935C0.440454 81.4909 0.755301 88.6756 -1.99743 94.5474C-3.48448 97.7404 -6.08621 100.077 -9.8026 101.556C-11.9511 102.411 -14.1047 102.775 -16.2632 102.648C-18.4294 102.501 -20.4266 101.962 -22.2549 101.03C-24.0716 100.072 -25.8065 98.8114 -27.4597 97.2495ZM-33.4125 72.4085C-33.3383 74.285 -33.0648 76.183 -32.5922 78.1027C-32.1273 80.0029 -31.4364 82.1048 -30.5195 84.4082C-29.6026 86.7116 -28.4863 88.8683 -27.1704 90.8783C-25.8429 92.8613 -24.3738 94.5524 -22.7629 95.9517C-21.1326 97.3433 -19.3294 98.24 -17.3532 98.6418C-15.3653 99.0165 -13.423 98.8263 -11.526 98.0713C-9.60978 97.3085 -8.12442 96.28 -7.06998 94.9857C-6.00388 93.6645 -5.29737 92.2284 -4.95046 90.6777C-4.60355 89.1269 -4.49427 87.4017 -4.62261 85.502C-4.84135 82.1359 -5.71349 78.5366 -7.23905 74.704C-9.77394 68.3358 -12.9097 63.8661 -16.6464 61.2949C-17.9795 60.3681 -19.4777 59.7872 -21.1408 59.5523C-22.8116 59.298 -24.5181 59.5176 -26.2601 60.2111C-28.0022 60.9045 -29.4314 61.877 -30.5476 63.1286C-31.6446 64.3724 -32.4129 65.7658 -32.8526 67.3087C-33.2807 68.8245 -33.4673 70.5244 -33.4125 72.4085ZM8.90343 82.4723C7.29687 80.8022 5.88979 78.9854 4.6822 77.022C3.49396 75.0509 2.49534 73.0491 1.68633 71.0167C0.869616 68.9649 0.246183 67.0044 -0.18397 65.1351C-0.614124 63.2658 -0.889521 61.391 -1.01016 59.5106C-1.1308 57.6303 -1.02331 55.8161 -0.687669 54.068C-0.34038 52.2929 0.19239 50.6457 0.910641 49.1265C2.49448 45.895 5.14459 43.5395 8.86098 42.0602C11.5902 40.9738 14.4824 40.7756 17.5374 41.4655C21.1069 42.2645 24.4896 44.8196 27.6856 49.1308L23.8917 51.8519C23.8184 51.7241 23.7162 51.5517 23.585 51.3349C23.4655 51.091 23.1703 50.6591 22.6993 50.0393C22.2477 49.4119 21.7729 48.8385 21.2747 48.3193C20.7688 47.7807 20.1043 47.2379 19.2812 46.6911C18.4697 46.1172 17.6329 45.6767 16.7707 45.3696C14.7757 44.6389 12.6555 44.7205 10.4102 45.6142C8.1649 46.508 6.45667 47.7934 5.28552 49.4704C4.11437 51.1475 3.45541 53.0691 3.30863 55.2353C3.01151 59.3897 3.85687 63.9639 5.84472 68.9578C8.21781 74.9195 10.7642 79.0633 13.4838 81.389C17.0572 84.4513 21.0311 85.1117 25.4056 83.3704C30.8447 81.2054 32.7419 76.8176 31.0972 70.2072C30.7321 68.7829 30.2067 67.2094 29.5209 65.4867L19.7364 69.3815L18.3033 65.7813L32.2978 60.2107L40.5612 80.9702L37.0771 82.3571L34.8581 76.7825C33.8728 80.6727 32.2994 83.4516 30.1379 85.1193C29.1773 85.8604 27.8065 86.5854 26.0258 87.2943C24.245 88.0031 22.2483 88.2822 20.0357 88.1315C17.8424 87.973 15.8433 87.401 14.0383 86.4153C12.2333 85.4297 10.5216 84.1153 8.90343 82.4723ZM45.4165 68.2408C43.775 66.6519 42.3349 64.8931 41.0963 62.9644C39.85 61.0164 38.7838 58.9294 37.8978 56.7035C37.0117 54.4775 36.3327 52.2364 35.8606 49.9802C35.3885 47.724 35.1757 45.443 35.2221 43.1374C35.2686 40.8317 35.6126 38.7104 36.2542 36.7732C36.9074 34.8091 37.9897 33.0216 39.5012 31.4109C41.005 29.7809 42.8699 28.5228 45.0958 27.6368C47.3411 26.743 49.5353 26.3966 51.6782 26.5975C53.8327 26.7713 55.797 27.3684 57.571 28.3889C59.3566 29.3822 61.0489 30.7043 62.6478 32.355C65.6562 35.4627 68.085 39.3393 69.9342 43.9848C73.3166 52.4822 73.6315 59.6668 70.8787 65.5387C69.3917 68.7317 66.79 71.0679 63.0736 72.5472C60.925 73.4025 58.7715 73.7664 56.613 73.639C54.4468 73.4922 52.4495 72.953 50.6212 72.0215C48.8046 71.0629 47.0697 69.8026 45.4165 68.2408ZM39.4637 43.3998C39.5379 45.2763 39.8113 47.1743 40.284 49.0939C40.7489 50.9942 41.4398 53.0961 42.3567 55.3995C43.2735 57.7028 44.3899 59.8596 45.7057 61.8696C47.0332 63.8526 48.5024 65.5437 50.1133 66.943C51.7435 68.3346 53.5468 69.2313 55.523 69.6331C57.5108 70.0078 59.4532 69.8176 61.3501 69.0625C63.2664 68.2998 64.7517 67.2713 65.8062 65.977C66.8723 64.6557 67.5788 63.2197 67.9257 61.669C68.2726 60.1182 68.3819 58.393 68.2536 56.4933C68.0348 53.1272 67.1627 49.5278 65.6371 45.6953C63.1022 39.3271 59.9664 34.8574 56.2298 32.2862C54.8966 31.3594 53.3985 30.7785 51.7354 30.5436C50.0645 30.2893 48.3581 30.5089 46.616 31.2023C44.874 31.8958 43.4448 32.8683 42.3285 34.1199C41.2316 35.3637 40.4633 36.7571 40.0235 38.2999C39.5954 39.8157 39.4088 41.5157 39.4637 43.3998ZM77.8853 53.7356L81.3083 50.7586C81.3276 50.7509 81.4319 50.9 81.6209 51.2059C81.8293 51.5042 82.1246 51.8799 82.5069 52.3332C82.9085 52.7788 83.3912 53.2593 83.9552 53.7748C84.5192 54.2903 85.2089 54.7557 86.0245 55.171C86.8595 55.5786 87.7584 55.8935 88.7213 56.1156C90.856 56.6337 93.2879 56.3496 96.0171 55.2632C98.7463 54.1768 100.482 52.6226 101.224 50.6005C101.967 48.5785 101.906 46.4835 101.043 44.3156C100.173 42.1283 99.0651 40.5848 97.7203 39.685C96.3872 38.7582 94.4923 38.2791 92.0358 38.2479C91.3162 38.2429 90.3838 38.2665 89.2386 38.3187L86.099 38.4585C80.6862 38.7744 76.6641 38.021 74.0326 36.1983C72.2048 34.9302 70.8325 33.1444 69.9156 30.841C68.8292 28.1118 68.9 25.135 70.1279 21.9106C70.7223 20.4183 71.6783 19.0175 72.9958 17.7082C74.3134 16.399 75.8432 15.3976 77.5852 14.7042C79.3467 14.003 80.9915 13.6286 82.5197 13.5809C84.0595 13.5061 85.3746 13.6553 86.4649 14.0285C87.5746 14.394 88.6396 14.9007 89.6598 15.5485C90.6801 16.1963 91.4779 16.8204 92.0533 17.4211L93.7506 19.2344C94.2719 19.8117 94.5847 20.1469 94.689 20.2399L91.4924 23.1941C91.4151 23.1127 91.1989 22.8512 90.8437 22.4096C90.5002 21.9409 90.2049 21.5652 89.9578 21.2823C89.73 20.9918 89.3651 20.6101 88.8629 20.1373C88.3802 19.6568 87.9166 19.2807 87.4721 19.0092C87.0393 18.7106 86.4982 18.4215 85.8487 18.1418C85.2109 17.8351 84.5729 17.6406 83.9347 17.5583C82.3798 17.37 80.7991 17.5956 79.1925 18.2351C76.8117 19.1828 75.1573 20.6598 74.2294 22.6661C73.2937 24.653 73.2881 26.8078 74.2127 29.1306C75.222 31.6662 76.589 33.185 78.3136 33.687C79.2532 33.9632 80.015 34.1309 80.5991 34.1899C81.2025 34.2412 81.8834 34.2617 82.6417 34.2513C83.4116 34.2139 83.9784 34.2013 84.342 34.2136C84.6979 34.2064 85.3847 34.1573 86.4023 34.0661L89.1417 33.8502C94.1794 33.437 98.0795 34.2502 100.842 36.2897C102.716 37.674 104.173 39.6726 105.213 42.2857C105.968 44.1826 106.158 46.4055 105.783 48.9543C105.34 52.18 103.769 54.8236 101.069 56.8849C100.05 57.6492 98.7761 58.3357 97.247 58.9443C95.7372 59.5453 94.1659 59.9353 92.533 60.1144C90.9001 60.2935 89.4494 60.2543 88.1809 59.9969C86.9318 59.7317 85.7428 59.3641 84.614 58.8941C83.5044 58.4164 82.5498 57.8771 81.75 57.2761C80.2817 56.1788 79.1518 55.171 78.3603 54.2528L77.8853 53.7356ZM123.77 39.6417L126.148 36.9125C127.106 37.9663 128.431 38.8177 130.125 39.4666C130.84 39.7425 131.724 39.9065 132.776 39.9585C133.82 39.9913 134.836 39.8111 135.823 39.4182C138.185 38.4782 139.549 37.0046 139.916 34.9974C140.295 32.9631 139.891 30.4555 138.704 27.4747L126.153 -4.05662L130.45 -5.76709L143.001 25.7642C145.513 32.0743 145.019 36.9461 141.52 40.3794C140.4 41.453 139.027 42.3134 137.401 42.9607C135.776 43.6079 134.224 43.9341 132.746 43.9393C131.26 43.9252 130.032 43.7414 129.062 43.3877C128.084 43.0147 127.158 42.5198 126.285 41.9033C125.04 41.0307 124.202 40.2769 123.77 39.6417ZM153.018 25.4096C151.376 23.8207 149.936 22.0619 148.698 20.1332C147.451 18.1852 146.385 16.0982 145.499 13.8723C144.613 11.6463 143.934 9.4052 143.462 7.14898C142.99 4.89276 142.777 2.61183 142.823 0.306187C142.87 -1.99946 143.214 -4.12084 143.855 -6.05796C144.509 -8.02214 145.591 -9.80958 147.102 -11.4203C148.606 -13.0503 150.471 -14.3084 152.697 -15.1944C154.942 -16.0882 157.136 -16.4346 159.279 -16.2337C161.434 -16.0599 163.398 -15.4628 165.172 -14.4423C166.958 -13.449 168.65 -12.1269 170.249 -10.4762C173.257 -7.36846 175.686 -3.49185 177.535 1.15364C180.918 9.65102 181.233 16.8356 178.48 22.7075C176.993 25.9005 174.391 28.2367 170.675 29.716C168.526 30.5713 166.373 30.9352 164.214 30.8078C162.048 30.661 160.051 30.1218 158.222 29.1903C156.406 28.2317 154.671 26.9714 153.018 25.4096ZM147.065 0.568635C147.139 2.44506 147.413 4.34309 147.885 6.26274C148.35 8.16303 149.041 10.2649 149.958 12.5683C150.875 14.8717 151.991 17.0284 153.307 19.0384C154.634 21.0214 156.104 22.7125 157.715 24.1118C159.345 25.5034 161.148 26.4001 163.124 26.8019C165.112 27.1766 167.054 26.9864 168.951 26.2314C170.868 25.4686 172.353 24.4401 173.407 23.1458C174.474 21.8245 175.18 20.3885 175.527 18.8378C175.874 17.287 175.983 15.5618 175.855 13.6621C175.636 10.296 174.764 6.69664 173.238 2.86411C170.703 -3.50408 167.568 -7.97378 163.831 -10.545C162.498 -11.4718 161 -12.0527 159.337 -12.2876C157.666 -12.5419 155.959 -12.3223 154.217 -11.6288C152.475 -10.9354 151.046 -9.96291 149.93 -8.71134C148.833 -7.46747 148.065 -6.07411 147.625 -4.53125C147.197 -3.01546 147.01 -1.31549 147.065 0.568635ZM189.381 10.6324C187.774 8.9623 186.367 7.14553 185.16 5.1821C183.971 3.21096 182.973 1.20919 182.164 -0.823218C181.347 -2.87498 180.724 -4.8355 180.293 -6.70478C179.863 -8.57407 179.588 -10.4489 179.467 -12.3293C179.347 -14.2096 179.454 -16.0239 179.79 -17.7719C180.137 -19.5471 180.67 -21.1942 181.388 -22.7134C182.972 -25.9449 185.622 -28.3004 189.338 -29.7797C192.068 -30.8661 194.96 -31.0643 198.015 -30.3744C201.584 -29.5754 204.967 -27.0203 208.163 -22.7091L204.369 -19.988C204.296 -20.1158 204.194 -20.2882 204.062 -20.505C203.943 -20.749 203.648 -21.1808 203.177 -21.8006C202.725 -22.4281 202.25 -23.0014 201.752 -23.5207C201.246 -24.0592 200.582 -24.602 199.759 -25.1488C198.947 -25.7228 198.11 -26.1633 197.248 -26.4703C195.253 -27.201 193.133 -27.1194 190.888 -26.2257C188.642 -25.3319 186.934 -24.0465 185.763 -22.3695C184.592 -20.6924 183.933 -18.7708 183.786 -16.6046C183.489 -12.4502 184.334 -7.87601 186.322 -2.8821C188.695 3.07961 191.242 7.22335 193.961 9.54911C197.535 12.6113 201.509 13.2718 205.883 11.5305C211.322 9.36546 213.219 4.97772 211.575 -1.63271C211.209 -3.05699 210.684 -4.63048 209.998 -6.35318L200.214 -2.45839L198.781 -6.05865L212.775 -11.6292L221.039 9.1303L217.555 10.5172L215.336 4.94258C214.35 8.8328 212.777 11.6117 210.615 13.2794C209.655 14.0205 208.284 14.7455 206.503 15.4544C204.722 16.1632 202.726 16.4423 200.513 16.2916C198.32 16.1331 196.321 15.5611 194.516 14.5754C192.711 13.5898 190.999 12.2754 189.381 10.6324ZM225.894 -3.59911C224.252 -5.18801 222.812 -6.9468 221.574 -8.87547C220.327 -10.8235 219.261 -12.9105 218.375 -15.1365C217.489 -17.3624 216.81 -19.6035 216.338 -21.8597C215.866 -24.116 215.653 -26.3969 215.7 -28.7025C215.746 -31.0082 216.09 -33.1296 216.732 -35.0667C217.385 -37.0309 218.467 -38.8183 219.979 -40.429C221.482 -42.059 223.347 -43.3171 225.573 -44.2031C227.819 -45.0969 230.013 -45.4433 232.156 -45.2424C234.31 -45.0686 236.274 -44.4715 238.048 -43.451C239.834 -42.4577 241.526 -41.1356 243.125 -39.4849C246.134 -36.3772 248.562 -32.5006 250.412 -27.8551C253.794 -19.3577 254.109 -12.1731 251.356 -6.3012C249.869 -3.10818 247.267 -0.772007 243.551 0.707322C241.402 1.56256 239.249 1.92647 237.09 1.79905C234.924 1.65227 232.927 1.11311 231.099 0.181567C229.282 -0.77704 227.547 -2.03726 225.894 -3.59911ZM219.941 -28.4401C220.015 -26.5637 220.289 -24.6656 220.761 -22.746C221.226 -20.8457 221.917 -18.7438 222.834 -16.4405C223.751 -14.1371 224.867 -11.9803 226.183 -9.9703C227.511 -7.98732 228.98 -6.29619 230.591 -4.8969C232.221 -3.50532 234.024 -2.60863 236 -2.20684C237.988 -1.83211 239.931 -2.02229 241.828 -2.77736C243.744 -3.54014 245.229 -4.56865 246.284 -5.86288C247.35 -7.18417 248.056 -8.62019 248.403 -10.1709C248.75 -11.7217 248.859 -13.4469 248.731 -15.3467C248.512 -18.7128 247.64 -22.3121 246.115 -26.1446C243.58 -32.5128 240.444 -36.9825 236.707 -39.5537C235.374 -40.4805 233.876 -41.0614 232.213 -41.2963C230.542 -41.5506 228.835 -41.331 227.093 -40.6376C225.351 -39.9441 223.922 -38.9716 222.806 -37.7201C221.709 -36.4762 220.941 -35.0828 220.501 -33.54C220.073 -32.0242 219.886 -30.3242 219.941 -28.4401ZM258.363 -18.1043L261.786 -21.0813C261.805 -21.089 261.909 -20.9399 262.098 -20.634C262.307 -20.3357 262.602 -19.96 262.984 -19.5067C263.386 -19.0611 263.869 -18.5806 264.433 -18.0651C264.997 -17.5496 265.686 -17.0842 266.502 -16.6689C267.337 -16.2613 268.236 -15.9465 269.199 -15.7243C271.333 -15.2062 273.765 -15.4903 276.495 -16.5767C279.224 -17.6631 280.959 -19.2173 281.702 -21.2394C282.444 -23.2615 282.384 -25.3564 281.521 -27.5243C280.65 -29.7116 279.542 -31.2551 278.198 -32.1549C276.865 -33.0817 274.97 -33.5608 272.513 -33.592C271.794 -33.597 270.861 -33.5735 269.716 -33.5212L266.576 -33.3814C261.164 -33.0655 257.141 -33.8189 254.51 -35.6416C252.682 -36.9097 251.31 -38.6955 250.393 -40.9989C249.307 -43.7281 249.377 -46.7049 250.605 -49.9293C251.2 -51.4216 252.156 -52.8224 253.473 -54.1317C254.791 -55.4409 256.321 -56.4423 258.063 -57.1357C259.824 -57.8369 261.469 -58.2113 262.997 -58.259C264.537 -58.3338 265.852 -58.1846 266.942 -57.8114C268.052 -57.4459 269.117 -56.9392 270.137 -56.2914C271.157 -55.6437 271.955 -55.0195 272.531 -54.4189L274.228 -52.6055C274.749 -52.0282 275.062 -51.693 275.166 -51.6L271.97 -48.6458C271.893 -48.7272 271.676 -48.9887 271.321 -49.4303C270.978 -49.899 270.682 -50.2748 270.435 -50.5576C270.207 -50.8481 269.842 -51.2298 269.34 -51.7026C268.858 -52.1831 268.394 -52.5592 267.95 -52.8307C267.517 -53.1293 266.976 -53.4185 266.326 -53.6981C265.688 -54.0048 265.05 -54.1993 264.412 -54.2816C262.857 -54.4699 261.277 -54.2443 259.67 -53.6048C257.289 -52.6571 255.635 -51.1801 254.707 -49.1738C253.771 -47.1869 253.766 -45.0321 254.69 -42.7093C255.699 -40.1737 257.066 -38.6549 258.791 -38.1529C259.731 -37.8767 260.492 -37.709 261.077 -37.65C261.68 -37.5987 262.361 -37.5782 263.119 -37.5886C263.889 -37.626 264.456 -37.6386 264.819 -37.6263C265.175 -37.6335 265.862 -37.6826 266.88 -37.7738L269.619 -37.9897C274.657 -38.4029 278.557 -37.5898 281.32 -35.5502C283.194 -34.1659 284.651 -32.1673 285.691 -29.5542C286.446 -27.6573 286.636 -25.4344 286.26 -22.8856C285.817 -19.6599 284.246 -17.0164 281.546 -14.955C280.527 -14.1907 279.254 -13.5043 277.724 -12.8956C276.215 -12.2946 274.643 -11.9046 273.01 -11.7255C271.377 -11.5464 269.927 -11.5856 268.658 -11.843C267.409 -12.1082 266.22 -12.4758 265.091 -12.9458C263.982 -13.4235 263.027 -13.9628 262.227 -14.5638C260.759 -15.6611 259.629 -16.6689 258.838 -17.5871L258.363 -18.1043ZM-108.114 244.957L-105.736 242.228C-104.778 243.282 -103.453 244.133 -101.759 244.782C-101.044 245.058 -100.16 245.222 -99.108 245.274C-98.0635 245.306 -97.0477 245.126 -96.0605 244.733C-93.6991 243.793 -92.3348 242.32 -91.9678 240.313C-91.5891 238.278 -91.9931 235.771 -93.1796 232.79L-105.731 201.259L-101.434 199.548L-88.8825 231.079C-86.3708 237.39 -86.8644 242.261 -90.3636 245.695C-91.4835 246.768 -92.8563 247.629 -94.4823 248.276C-96.1082 248.923 -97.6601 249.249 -99.1379 249.255C-100.623 249.24 -101.851 249.057 -102.822 248.703C-103.8 248.33 -104.726 247.835 -105.599 247.218C-106.843 246.346 -107.681 245.592 -108.114 244.957ZM-78.866 230.725C-80.5075 229.136 -81.9476 227.377 -83.1862 225.448C-84.4325 223.5 -85.4986 221.413 -86.3847 219.187C-87.2708 216.962 -87.9498 214.72 -88.4219 212.464C-88.8939 210.208 -89.1068 207.927 -89.0603 205.621C-89.0139 203.316 -88.6699 201.194 -88.0283 199.257C-87.3751 197.293 -86.2927 195.506 -84.7813 193.895C-83.2775 192.265 -81.4126 191.007 -79.1867 190.121C-76.9413 189.227 -74.7472 188.881 -72.6043 189.081C-70.4498 189.255 -68.4855 189.852 -66.7115 190.873C-64.9258 191.866 -63.2336 193.188 -61.6347 194.839C-58.6263 197.947 -56.1974 201.823 -54.3483 206.469C-50.9659 214.966 -50.651 222.151 -53.4037 228.023C-54.8908 231.216 -57.4925 233.552 -61.2089 235.031C-63.3575 235.886 -65.511 236.25 -67.6695 236.123C-69.8357 235.976 -71.8329 235.437 -73.6612 234.505C-75.4779 233.547 -77.2128 232.287 -78.866 230.725ZM-84.8188 205.884C-84.7446 207.76 -84.4711 209.658 -83.9985 211.578C-83.5336 213.478 -82.8427 215.58 -81.9258 217.883C-81.0089 220.187 -79.8926 222.344 -78.5768 224.354C-77.2493 226.337 -75.7801 228.028 -74.1692 229.427C-72.539 230.819 -70.7357 231.715 -68.7595 232.117C-66.7717 232.492 -64.8293 232.302 -62.9324 231.547C-61.0161 230.784 -59.5307 229.755 -58.4763 228.461C-57.4102 227.14 -56.7037 225.704 -56.3568 224.153C-56.0099 222.602 -55.9006 220.877 -56.0289 218.977C-56.2477 215.611 -57.1198 212.012 -58.6454 208.179C-61.1803 201.811 -64.316 197.341 -68.0527 194.77C-69.3859 193.843 -70.884 193.263 -72.5471 193.028C-74.2179 192.773 -75.9244 192.993 -77.6665 193.686C-79.4085 194.38 -80.8377 195.352 -81.954 196.604C-83.0509 197.848 -83.8192 199.241 -84.2589 200.784C-84.687 202.3 -84.8737 204 -84.8188 205.884ZM-42.5029 215.948C-44.1094 214.278 -45.5165 212.461 -46.7241 210.497C-47.9124 208.526 -48.911 206.524 -49.72 204.492C-50.5367 202.44 -51.1601 200.48 -51.5903 198.61C-52.0204 196.741 -52.2958 194.866 -52.4165 192.986C-52.5371 191.106 -52.4296 189.291 -52.094 187.543C-51.7467 185.768 -51.2139 184.121 -50.4957 182.602C-48.9118 179.37 -46.2617 177.015 -42.5453 175.536C-39.8161 174.449 -36.9239 174.251 -33.8689 174.941C-30.2994 175.74 -26.9167 178.295 -23.7207 182.606L-27.5146 185.327C-27.5879 185.199 -27.6901 185.027 -27.8213 184.81C-27.9408 184.566 -28.2361 184.134 -28.707 183.515C-29.1586 182.887 -29.6334 182.314 -30.1316 181.795C-30.6375 181.256 -31.302 180.713 -32.1251 180.166C-32.9366 179.592 -33.7734 179.152 -34.6356 178.845C-36.6306 178.114 -38.7508 178.196 -40.9961 179.09C-43.2414 179.983 -44.9496 181.269 -46.1208 182.946C-47.2919 184.623 -47.9509 186.544 -48.0977 188.711C-48.3948 192.865 -47.5494 197.439 -45.5616 202.433C-43.1885 208.395 -40.6421 212.539 -37.9225 214.864C-34.3491 217.927 -30.3752 218.587 -26.0007 216.846C-20.5616 214.681 -18.6644 210.293 -20.3091 203.682C-20.6742 202.258 -21.1997 200.685 -21.8854 198.962L-31.67 202.857L-33.1031 199.257L-19.1085 193.686L-10.8451 214.446L-14.3292 215.832L-16.5482 210.258C-17.5335 214.148 -19.1069 216.927 -21.2684 218.595C-22.2291 219.336 -23.5998 220.061 -25.3806 220.77C-27.1613 221.478 -29.158 221.757 -31.3706 221.607C-33.5639 221.448 -35.563 220.876 -37.3681 219.891C-39.1731 218.905 -40.8847 217.591 -42.5029 215.948ZM-5.98982 201.716C-7.63133 200.127 -9.07139 198.368 -10.31 196.44C-11.5563 194.492 -12.6225 192.405 -13.5085 190.179C-14.3946 187.953 -15.0737 185.712 -15.5457 183.455C-16.0178 181.199 -16.2306 178.918 -16.1842 176.613C-16.1377 174.307 -15.7937 172.186 -15.1522 170.249C-14.4989 168.284 -13.4166 166.497 -11.9051 164.886C-10.4013 163.256 -8.53645 161.998 -6.31049 161.112C-4.06516 160.218 -1.87105 159.872 0.271846 160.073C2.4264 160.247 4.39067 160.844 6.16468 161.864C7.95033 162.858 9.64258 164.18 11.2414 165.83C14.2499 168.938 16.6787 172.815 18.5279 177.46C21.9103 185.958 22.2252 193.142 19.4724 199.014C17.9854 202.207 15.3836 204.543 11.6673 206.023C9.51871 206.878 7.36519 207.242 5.20669 207.114C3.04049 206.967 1.04323 206.428 -0.785078 205.497C-2.60174 204.538 -4.33665 203.278 -5.98982 201.716ZM-11.9426 176.875C-11.8684 178.752 -11.595 180.65 -11.1223 182.569C-10.6574 184.47 -9.96653 186.571 -9.04966 188.875C-8.13278 191.178 -7.01642 193.335 -5.70058 195.345C-4.37309 197.328 -2.90391 199.019 -1.29302 200.418C0.337216 201.81 2.14044 202.707 4.11665 203.108C6.10451 203.483 8.0469 203.293 9.94381 202.538C11.8601 201.775 13.3454 200.747 14.3999 199.452C15.466 198.131 16.1725 196.695 16.5194 195.144C16.8663 193.594 16.9756 191.868 16.8472 189.969C16.6285 186.602 15.7564 183.003 14.2308 179.171C11.6959 172.802 8.56013 168.333 4.82345 165.762C3.49032 164.835 1.99219 164.254 0.329057 164.019C-1.34178 163.765 -3.04822 163.984 -4.79028 164.678C-6.53234 165.371 -7.96151 166.344 -9.07778 167.595C-10.1747 168.839 -10.943 170.232 -11.3828 171.775C-11.8109 173.291 -11.9975 174.991 -11.9426 176.875ZM26.479 187.211L29.902 184.234C29.9213 184.226 30.0255 184.375 30.2146 184.681C30.423 184.979 30.7183 185.355 31.1006 185.809C31.5021 186.254 31.9849 186.735 32.5489 187.25C33.1128 187.766 33.8026 188.231 34.6182 188.646C35.4532 189.054 36.3521 189.369 37.315 189.591C39.4496 190.109 41.8816 189.825 44.6108 188.738C47.34 187.652 49.0758 186.098 49.8181 184.076C50.5604 182.054 50.5001 179.959 49.6371 177.791C48.7665 175.604 47.6588 174.06 46.314 173.16C44.9809 172.233 43.086 171.754 40.6295 171.723C39.9099 171.718 38.9775 171.742 37.8323 171.794L34.6927 171.934C29.2799 172.25 25.2578 171.496 22.6263 169.674C20.7985 168.405 19.4262 166.62 18.5093 164.316C17.4229 161.587 17.4937 158.61 18.7216 155.386C19.316 153.894 20.272 152.493 21.5895 151.184C22.9071 149.874 24.4369 148.873 26.1789 148.179C27.9403 147.478 29.5852 147.104 31.1134 147.056C32.6532 146.981 33.9683 147.131 35.0586 147.504C36.1683 147.869 37.2333 148.376 38.2535 149.024C39.2738 149.672 40.0716 150.296 40.647 150.896L42.3443 152.71C42.8656 153.287 43.1784 153.622 43.2827 153.715L40.0861 156.669C40.0088 156.588 39.7926 156.327 39.4374 155.885C39.0939 155.416 38.7986 155.04 38.5515 154.758C38.3237 154.467 37.9588 154.085 37.4566 153.613C36.9738 153.132 36.5102 152.756 36.0658 152.484C35.633 152.186 35.0919 151.897 34.4424 151.617C33.8046 151.31 33.1666 151.116 32.5284 151.034C30.9735 150.845 29.3928 151.071 27.7862 151.71C25.4054 152.658 23.751 154.135 22.823 156.141C21.8874 158.128 21.8818 160.283 22.8064 162.606C23.8157 165.142 25.1827 166.66 26.9073 167.162C27.8469 167.439 28.6087 167.606 29.1928 167.665C29.7962 167.716 30.4771 167.737 31.2354 167.727C32.0053 167.689 32.5721 167.677 32.9357 167.689C33.2916 167.682 33.9784 167.633 34.996 167.541L37.7354 167.326C42.7731 166.912 46.6732 167.725 49.4359 169.765C51.3099 171.149 52.7669 173.148 53.8071 175.761C54.5622 177.658 54.7519 179.881 54.3762 182.43C53.9336 185.655 52.3624 188.299 49.6625 190.36C48.6437 191.124 47.3698 191.811 45.8407 192.42C44.3309 193.021 42.7595 193.411 41.1267 193.59C39.4938 193.769 38.0431 193.73 36.7746 193.472C35.5255 193.207 34.3365 192.839 33.2076 192.369C32.0981 191.892 31.1435 191.352 30.3437 190.751C28.8754 189.654 27.7455 188.646 26.954 187.728L26.479 187.211ZM72.3637 173.117L74.7417 170.388C75.6993 171.442 77.0249 172.293 78.7182 172.942C79.4335 173.218 80.3172 173.382 81.3694 173.434C82.4139 173.467 83.4297 173.286 84.4169 172.893C86.7783 171.953 88.1426 170.48 88.5096 168.473C88.8883 166.438 88.4843 163.931 87.2978 160.95L74.7466 129.419L79.0437 127.708L91.5949 159.239C94.1066 165.55 93.6129 170.421 90.1138 173.855C88.9939 174.928 87.6211 175.789 85.9951 176.436C84.3692 177.083 82.8173 177.409 81.3395 177.415C79.854 177.401 78.626 177.217 77.6555 176.863C76.6774 176.49 75.7517 175.995 74.8784 175.379C73.6341 174.506 72.7959 173.752 72.3637 173.117ZM101.611 158.885C99.9699 157.296 98.5298 155.537 97.2912 153.609C96.0449 151.661 94.9787 149.574 94.0927 147.348C93.2066 145.122 92.5276 142.881 92.0555 140.624C91.5835 138.368 91.3706 136.087 91.4171 133.781C91.4635 131.476 91.8075 129.354 92.4491 127.417C93.1023 125.453 94.1847 123.666 95.6961 122.055C97.1999 120.425 99.0648 119.167 101.291 118.281C103.536 117.387 105.73 117.041 107.873 117.242C110.028 117.415 111.992 118.013 113.766 119.033C115.552 120.026 117.244 121.348 118.843 122.999C121.851 126.107 124.28 129.983 126.129 134.629C129.512 143.126 129.826 150.311 127.074 156.183C125.587 159.376 122.985 161.712 119.268 163.191C117.12 164.047 114.966 164.41 112.808 164.283C110.642 164.136 108.644 163.597 106.816 162.666C104.999 161.707 103.265 160.447 101.611 158.885ZM95.6586 134.044C95.7328 135.92 96.0063 137.818 96.4789 139.738C96.9438 141.638 97.6347 143.74 98.5516 146.044C99.4684 148.347 100.585 150.504 101.901 152.514C103.228 154.497 104.697 156.188 106.308 157.587C107.938 158.979 109.742 159.875 111.718 160.277C113.706 160.652 115.648 160.462 117.545 159.707C119.461 158.944 120.947 157.915 122.001 156.621C123.067 155.3 123.774 153.864 124.121 152.313C124.468 150.762 124.577 149.037 124.448 147.137C124.23 143.771 123.358 140.172 121.832 136.339C119.297 129.971 116.161 125.502 112.425 122.93C111.092 122.003 109.593 121.423 107.93 121.188C106.259 120.933 104.553 121.153 102.811 121.846C101.069 122.54 99.6397 123.512 98.5234 124.764C97.4265 126.008 96.6582 127.401 96.2184 128.944C95.7903 130.46 95.6037 132.16 95.6586 134.044ZM137.975 144.108C136.368 142.438 134.961 140.621 133.753 138.657C132.565 136.686 131.566 134.684 130.757 132.652C129.941 130.6 129.317 128.64 128.887 126.771C128.457 124.901 128.182 123.026 128.061 121.146C127.94 119.266 128.048 117.451 128.383 115.703C128.731 113.928 129.263 112.281 129.982 110.762C131.566 107.53 134.216 105.175 137.932 103.696C140.661 102.609 143.553 102.411 146.609 103.101C150.178 103.9 153.561 106.455 156.757 110.766L152.963 113.487C152.889 113.359 152.787 113.187 152.656 112.97C152.537 112.726 152.241 112.295 151.77 111.675C151.319 111.047 150.844 110.474 150.346 109.955C149.84 109.416 149.175 108.873 148.352 108.326C147.541 107.753 146.704 107.312 145.842 107.005C143.847 106.274 141.727 106.356 139.481 107.25C137.236 108.143 135.528 109.429 134.357 111.106C133.185 112.783 132.526 114.704 132.38 116.871C132.083 121.025 132.928 125.599 134.916 130.593C137.289 136.555 139.835 140.699 142.555 143.024C146.128 146.087 150.102 146.747 154.477 145.006C159.916 142.841 161.813 138.453 160.168 131.843C159.803 130.418 159.278 128.845 158.592 127.122L148.807 131.017L147.374 127.417L161.369 121.846L169.632 142.606L166.148 143.992L163.929 138.418C162.944 142.308 161.371 145.087 159.209 146.755C158.248 147.496 156.878 148.221 155.097 148.93C153.316 149.639 151.319 149.918 149.107 149.767C146.913 149.608 144.914 149.036 143.109 148.051C141.304 147.065 139.593 145.751 137.975 144.108ZM174.488 129.876C172.846 128.287 171.406 126.529 170.167 124.6C168.921 122.652 167.855 120.565 166.969 118.339C166.083 116.113 165.404 113.872 164.932 111.616C164.46 109.359 164.247 107.078 164.293 104.773C164.34 102.467 164.684 100.346 165.325 98.4086C165.978 96.4444 167.061 94.657 168.572 93.0463C170.076 91.4163 171.941 90.1582 174.167 89.2722C176.412 88.3784 178.606 88.032 180.749 88.2329C182.904 88.4067 184.868 89.0038 186.642 90.0243C188.428 91.0176 190.12 92.3397 191.719 93.9904C194.727 97.0981 197.156 100.975 199.005 105.62C202.388 114.118 202.703 121.302 199.95 127.174C198.463 130.367 195.861 132.703 192.145 134.183C189.996 135.038 187.843 135.402 185.684 135.274C183.518 135.128 181.521 134.588 179.692 133.657C177.876 132.698 176.141 131.438 174.488 129.876ZM168.535 105.035C168.609 106.912 168.882 108.81 169.355 110.729C169.82 112.63 170.511 114.731 171.428 117.035C172.345 119.338 173.461 121.495 174.777 123.505C176.104 125.488 177.573 127.179 179.184 128.578C180.815 129.97 182.618 130.867 184.594 131.268C186.582 131.643 188.524 131.453 190.421 130.698C192.337 129.935 193.823 128.907 194.877 127.612C195.943 126.291 196.65 124.855 196.997 123.304C197.344 121.754 197.453 120.028 197.325 118.129C197.106 114.763 196.234 111.163 194.708 107.331C192.173 100.963 189.038 96.4928 185.301 93.9216C183.968 92.9948 182.47 92.4139 180.806 92.179C179.136 91.9247 177.429 92.1443 175.687 92.8377C173.945 93.5312 172.516 94.5037 171.4 95.7552C170.303 96.9991 169.534 98.3925 169.095 99.9353C168.667 101.451 168.48 103.151 168.535 105.035ZM206.956 115.371L210.379 112.394C210.399 112.386 210.503 112.535 210.692 112.841C210.9 113.14 211.196 113.515 211.578 113.969C211.98 114.414 212.462 114.895 213.026 115.41C213.59 115.926 214.28 116.391 215.096 116.806C215.931 117.214 216.829 117.529 217.792 117.751C219.927 118.269 222.359 117.985 225.088 116.899C227.817 115.812 229.553 114.258 230.295 112.236C231.038 110.214 230.977 108.119 230.115 105.951C229.244 103.764 228.136 102.22 226.791 101.32C225.458 100.394 223.563 99.9145 221.107 99.8833C220.387 99.8783 219.455 99.9018 218.31 99.9541L215.17 100.094C209.757 100.41 205.735 99.6564 203.104 97.8337C201.276 96.5656 199.904 94.7798 198.987 92.4764C197.9 89.7472 197.971 86.7704 199.199 83.546C199.793 82.0537 200.749 80.6529 202.067 79.3436C203.384 78.0344 204.914 77.033 206.656 76.3396C208.418 75.6384 210.063 75.264 211.591 75.2163C213.131 75.1415 214.446 75.2907 215.536 75.6639C216.646 76.0294 217.711 76.5361 218.731 77.1839C219.751 77.8316 220.549 78.4558 221.124 79.0564L222.822 80.8698C223.343 81.4471 223.656 81.7823 223.76 81.8753L220.563 84.8295C220.486 84.7481 220.27 84.4866 219.915 84.045C219.571 83.5763 219.276 83.2005 219.029 82.9177C218.801 82.6272 218.436 82.2455 217.934 81.7727C217.451 81.2922 216.988 80.9161 216.543 80.6446C216.11 80.346 215.569 80.0568 214.92 79.7772C214.282 79.4705 213.644 79.276 213.006 79.1937C211.451 79.0054 209.87 79.231 208.264 79.8705C205.883 80.8182 204.228 82.2952 203.3 84.3015C202.365 86.2884 202.359 88.4432 203.284 90.766C204.293 93.3016 205.66 94.8204 207.385 95.3224C208.324 95.5986 209.086 95.7663 209.67 95.8253C210.274 95.8766 210.954 95.8971 211.713 95.8867C212.483 95.8493 213.049 95.8367 213.413 95.849C213.769 95.8418 214.456 95.7927 215.473 95.7015L218.213 95.4856C223.25 95.0724 227.151 95.8855 229.913 97.9251C231.787 99.3094 233.244 101.308 234.284 103.921C235.04 105.818 235.229 108.041 234.854 110.59C234.411 113.815 232.84 116.459 230.14 118.52C229.121 119.285 227.847 119.971 226.318 120.58C224.808 121.181 223.237 121.571 221.604 121.75C219.971 121.929 218.521 121.89 217.252 121.632C216.003 121.367 214.814 121 213.685 120.53C212.576 120.052 211.621 119.512 210.821 118.911C209.353 117.814 208.223 116.806 207.431 115.888L206.956 115.371ZM252.841 101.277L255.219 98.5479C256.177 99.6017 257.502 100.453 259.196 101.102C259.911 101.378 260.795 101.542 261.847 101.594C262.891 101.627 263.907 101.447 264.894 101.054C267.256 100.114 268.62 98.64 268.987 96.6328C269.366 94.5985 268.962 92.0909 267.775 89.1101L255.224 57.5788L259.521 55.8683L272.072 87.3996C274.584 93.7097 274.09 98.5815 270.591 102.015C269.471 103.088 268.098 103.949 266.473 104.596C264.847 105.243 263.295 105.569 261.817 105.575C260.331 105.561 259.103 105.377 258.133 105.023C257.155 104.65 256.229 104.155 255.356 103.539C254.112 102.666 253.273 101.912 252.841 101.277ZM282.089 87.045C280.447 85.4561 279.007 83.6973 277.769 81.7686C276.522 79.8206 275.456 77.7336 274.57 75.5077C273.684 73.2817 273.005 71.0406 272.533 68.7844C272.061 66.5282 271.848 64.2472 271.894 61.9416C271.941 59.6359 272.285 57.5146 272.926 55.5774C273.58 53.6133 274.662 51.8258 276.174 50.2151C277.677 48.5851 279.542 47.327 281.768 46.441C284.013 45.5472 286.208 45.2008 288.35 45.4017C290.505 45.5755 292.469 46.1726 294.243 47.1931C296.029 48.1864 297.721 49.5085 299.32 51.1592C302.329 54.2669 304.757 58.1435 306.607 62.789C309.989 71.2864 310.304 78.471 307.551 84.3429C306.064 87.5359 303.462 89.8721 299.746 91.3514C297.597 92.2067 295.444 92.5706 293.285 92.4432C291.119 92.2964 289.122 91.7572 287.294 90.8257C285.477 89.8671 283.742 88.6068 282.089 87.045ZM276.136 62.204C276.21 64.0805 276.484 65.9785 276.956 67.8981C277.421 69.7984 278.112 71.9003 279.029 74.2037C279.946 76.507 281.062 78.6638 282.378 80.6738C283.706 82.6568 285.175 84.3479 286.786 85.7472C288.416 87.1388 290.219 88.0355 292.195 88.4373C294.183 88.812 296.126 88.6218 298.022 87.8667C299.939 87.104 301.424 86.0755 302.478 84.7812C303.545 83.4599 304.251 82.0239 304.598 80.4732C304.945 78.9224 305.054 77.1972 304.926 75.2975C304.707 71.9314 303.835 68.332 302.309 64.4995C299.775 58.1313 296.639 53.6616 292.902 51.0904C291.569 50.1636 290.071 49.5827 288.408 49.3478C286.737 49.0935 285.03 49.3131 283.288 50.0065C281.546 50.7 280.117 51.6725 279.001 52.9241C277.904 54.1679 277.136 55.5613 276.696 57.1041C276.268 58.6199 276.081 60.3199 276.136 62.204ZM318.452 72.2678C316.845 70.5977 315.438 68.7809 314.231 66.8175C313.042 64.8464 312.044 62.8446 311.235 60.8122C310.418 58.7604 309.795 56.7999 309.365 54.9306C308.934 53.0613 308.659 51.1865 308.538 49.3061C308.418 47.4258 308.525 45.6115 308.861 43.8635C309.208 42.0883 309.741 40.4412 310.459 38.922C312.043 35.6905 314.693 33.335 318.409 31.8557C321.139 30.7693 324.031 30.5711 327.086 31.2609C330.655 32.06 334.038 34.6151 337.234 38.9263L333.44 41.6473C333.367 41.5196 333.265 41.3472 333.133 41.1304C333.014 40.8864 332.719 40.4546 332.248 39.8348C331.796 39.2073 331.321 38.634 330.823 38.1147C330.317 37.5761 329.653 37.0334 328.83 36.4866C328.018 35.9126 327.181 35.4721 326.319 35.1651C324.324 34.4344 322.204 34.516 319.959 35.4097C317.713 36.3035 316.005 37.5889 314.834 39.2659C313.663 40.943 313.004 42.8646 312.857 45.0308C312.56 49.1852 313.405 53.7594 315.393 58.7533C317.766 64.715 320.313 68.8587 323.032 71.1845C326.606 74.2467 330.58 74.9072 334.954 73.1659C340.393 71.0009 342.29 66.6131 340.646 60.0027C340.281 58.5784 339.755 57.0049 339.069 55.2822L329.285 59.177L327.852 55.5767L341.846 50.0062L350.11 70.7657L346.626 72.1526L344.407 66.578C343.421 70.4682 341.848 73.2471 339.686 74.9148C338.726 75.6559 337.355 76.3809 335.574 77.0898C333.793 77.7986 331.797 78.0777 329.584 77.927C327.391 77.7685 325.392 77.1965 323.587 76.2108C321.782 75.2251 320.07 73.9108 318.452 72.2678ZM354.965 58.0363C353.323 56.4474 351.883 54.6886 350.645 52.7599C349.398 50.8119 348.332 48.7249 347.446 46.4989C346.56 44.273 345.881 42.0319 345.409 39.7757C344.937 37.5194 344.724 35.2385 344.771 32.9329C344.817 30.6272 345.161 28.5058 345.803 26.5687C346.456 24.6045 347.538 22.8171 349.05 21.2064C350.553 19.5764 352.418 18.3183 354.644 17.4322C356.89 16.5385 359.084 16.1921 361.227 16.3929C363.381 16.5668 365.345 17.1639 367.119 18.1844C368.905 19.1777 370.597 20.4998 372.196 22.1505C375.205 25.2582 377.634 29.1348 379.483 33.7803C382.865 42.2777 383.18 49.4623 380.427 55.3342C378.94 58.5272 376.338 60.8634 372.622 62.3427C370.473 63.198 368.32 63.5619 366.161 63.4344C363.995 63.2877 361.998 62.7485 360.17 61.817C358.353 60.8584 356.618 59.5981 354.965 58.0363ZM349.012 33.1953C349.086 35.0717 349.36 36.9698 349.832 38.8894C350.297 40.7897 350.988 42.8916 351.905 45.1949C352.822 47.4983 353.938 49.655 355.254 51.6651C356.582 53.6481 358.051 55.3392 359.662 56.7385C361.292 58.1301 363.095 59.0268 365.071 59.4286C367.059 59.8033 369.002 59.6131 370.899 58.858C372.815 58.0953 374.3 57.0667 375.355 55.7725C376.421 54.4512 377.127 53.0152 377.474 51.4645C377.821 49.9137 377.93 48.1885 377.802 46.2887C377.583 42.9226 376.711 39.3233 375.186 35.4908C372.651 29.1226 369.515 24.6529 365.778 22.0817C364.445 21.1549 362.947 20.574 361.284 20.3391C359.613 20.0848 357.907 20.3044 356.165 20.9978C354.422 21.6913 352.993 22.6638 351.877 23.9153C350.78 25.1592 350.012 26.5526 349.572 28.0954C349.144 29.6112 348.957 31.3112 349.012 33.1953ZM387.434 43.5311L390.857 40.5541C390.876 40.5464 390.98 40.6955 391.169 41.0014C391.378 41.2997 391.673 41.6754 392.055 42.1287C392.457 42.5743 392.94 43.0548 393.504 43.5703C394.068 44.0857 394.757 44.5511 395.573 44.9665C396.408 45.3741 397.307 45.6889 398.27 45.9111C400.404 46.4292 402.836 46.145 405.566 45.0587C408.295 43.9723 410.031 42.4181 410.773 40.396C411.515 38.3739 411.455 36.279 410.592 34.1111C409.721 31.9238 408.614 30.3803 407.269 29.4805C405.936 28.5537 404.041 28.0746 401.584 28.0434C400.865 28.0384 399.932 28.0619 398.787 28.1142L395.647 28.254C390.235 28.5699 386.213 27.8165 383.581 25.9938C381.753 24.7257 380.381 22.9399 379.464 20.6365C378.378 17.9073 378.448 14.9305 379.676 11.7061C380.271 10.2138 381.227 8.81299 382.544 7.50372C383.862 6.19446 385.392 5.19311 387.134 4.49967C388.895 3.79853 390.54 3.4241 392.068 3.37637C393.608 3.30158 394.923 3.4508 396.013 3.82402C397.123 4.18953 398.188 4.69618 399.208 5.34396C400.229 5.99174 401.026 6.61593 401.602 7.21654L403.299 9.02992C403.82 9.60722 404.133 9.94239 404.237 10.0354L401.041 12.9896C400.964 12.9082 400.747 12.6467 400.392 12.2051C400.049 11.7364 399.753 11.3606 399.506 11.0778C399.278 10.7873 398.914 10.4056 398.411 9.93278C397.929 9.45226 397.465 9.07622 397.021 8.80467C396.588 8.50606 396.047 8.21694 395.397 7.9373C394.759 7.63061 394.121 7.4361 393.483 7.35379C391.928 7.16549 390.348 7.39109 388.741 8.03059C386.36 8.97828 384.706 10.4553 383.778 12.4615C382.842 14.4485 382.837 16.6033 383.761 18.926C384.771 21.4617 386.137 22.9805 387.862 23.4825C388.802 23.7587 389.564 23.9263 390.148 23.9854C390.751 24.0367 391.432 24.0572 392.19 24.0468C392.96 24.0094 393.527 23.9968 393.89 24.009C394.246 24.0019 394.933 23.9528 395.951 23.8616L398.69 23.6457C403.728 23.2325 407.628 24.0456 410.391 26.0852C412.265 27.4694 413.722 29.4681 414.762 32.0812C415.517 33.9781 415.707 36.201 415.331 38.7498C414.888 41.9755 413.317 44.619 410.617 46.6804C409.599 47.4447 408.325 48.1311 406.795 48.7398C405.286 49.3408 403.714 49.7308 402.081 49.9099C400.449 50.089 398.998 50.0498 397.729 49.7924C396.48 49.5272 395.291 49.1596 394.162 48.6896C393.053 48.2119 392.098 47.6726 391.298 47.0716C389.83 45.9743 388.7 44.9665 387.909 44.0483L387.434 43.5311ZM20.9574 306.592L23.3354 303.863C24.293 304.917 25.6186 305.768 27.3119 306.417C28.0272 306.693 28.9109 306.857 29.9631 306.909C31.0076 306.942 32.0234 306.762 33.0105 306.369C35.372 305.429 36.7362 303.955 37.1033 301.948C37.4819 299.914 37.078 297.406 35.8915 294.425L23.3403 262.894L27.6374 261.184L40.1885 292.715C42.7003 299.025 42.2066 303.897 38.7075 307.33C37.5876 308.404 36.2147 309.264 34.5888 309.911C32.9629 310.558 31.411 310.885 29.9332 310.89C28.4476 310.876 27.2197 310.692 26.2492 310.338C25.2711 309.965 24.3454 309.47 23.4721 308.854C22.2278 307.981 21.3896 307.227 20.9574 306.592ZM50.2051 292.36C48.5636 290.771 47.1235 289.013 45.8849 287.084C44.6386 285.136 43.5724 283.049 42.6864 280.823C41.8003 278.597 41.1213 276.356 40.6492 274.1C40.1771 271.843 39.9643 269.562 40.0107 267.257C40.0572 264.951 40.4012 262.83 41.0428 260.893C41.696 258.928 42.7783 257.141 44.2898 255.53C45.7936 253.9 47.6585 252.642 49.8844 251.756C52.1297 250.862 54.3239 250.516 56.4668 250.717C58.6213 250.891 60.5856 251.488 62.3596 252.508C64.1452 253.502 65.8375 254.824 67.4363 256.474C70.4448 259.582 72.8736 263.459 74.7228 268.104C78.1052 276.602 78.4201 283.786 75.6673 289.658C74.1803 292.851 71.5786 295.187 67.8622 296.667C65.7136 297.522 63.5601 297.886 61.4016 297.758C59.2354 297.612 57.2381 297.072 55.4098 296.141C53.5932 295.182 51.8583 293.922 50.2051 292.36ZM44.2523 267.519C44.3265 269.396 44.5999 271.294 45.0726 273.213C45.5375 275.114 46.2284 277.215 47.1453 279.519C48.0621 281.822 49.1785 283.979 50.4943 285.989C51.8218 287.972 53.291 289.663 54.9019 291.062C56.5321 292.454 58.3354 293.351 60.3116 293.752C62.2994 294.127 64.2418 293.937 66.1387 293.182C68.055 292.419 69.5403 291.391 70.5948 290.096C71.6609 288.775 72.3674 287.339 72.7143 285.788C73.0612 284.238 73.1705 282.512 73.0422 280.613C72.8234 277.247 71.9513 273.647 70.4257 269.815C67.8908 263.447 64.755 258.977 61.0184 256.406C59.6852 255.479 58.1871 254.898 56.524 254.663C54.8531 254.409 53.1467 254.628 51.4046 255.322C49.6626 256.015 48.2334 256.988 47.1171 258.239C46.0202 259.483 45.2519 260.876 44.8121 262.419C44.384 263.935 44.1974 265.635 44.2523 267.519ZM86.5682 277.583C84.9616 275.913 83.5546 274.096 82.347 272.133C81.1587 270.162 80.1601 268.16 79.3511 266.127C78.5344 264.076 77.9109 262.115 77.4808 260.246C77.0506 258.377 76.7752 256.502 76.6546 254.621C76.534 252.741 76.6415 250.927 76.9771 249.179C77.3244 247.404 77.8572 245.756 78.5754 244.237C80.1592 241.006 82.8094 238.65 86.5258 237.171C89.255 236.085 92.1471 235.886 95.2022 236.576C98.7716 237.375 102.154 239.93 105.35 244.242L101.556 246.963C101.483 246.835 101.381 246.662 101.25 246.446C101.13 246.202 100.835 245.77 100.364 245.15C99.9125 244.523 99.4376 243.949 98.9394 243.43C98.4336 242.891 97.7691 242.349 96.9459 241.802C96.1345 241.228 95.2977 240.787 94.4355 240.48C92.4405 239.75 90.3203 239.831 88.075 240.725C85.8297 241.619 84.1214 242.904 82.9503 244.581C81.7791 246.258 81.1202 248.18 80.9734 250.346C80.6763 254.5 81.5216 259.075 83.5095 264.068C85.8826 270.03 88.4289 274.174 91.1486 276.5C94.7219 279.562 98.6959 280.222 103.07 278.481C108.509 276.316 110.407 271.928 108.762 265.318C108.397 263.894 107.871 262.32 107.186 260.597L97.4011 264.492L95.968 260.892L109.963 255.321L118.226 276.081L114.742 277.468L112.523 271.893C111.538 275.783 109.964 278.562 107.803 280.23C106.842 280.971 105.471 281.696 103.691 282.405C101.91 283.114 99.9131 283.393 97.7004 283.242C95.5072 283.084 93.508 282.512 91.703 281.526C89.898 280.54 88.1864 279.226 86.5682 277.583ZM123.081 263.351C121.44 261.763 120 260.004 118.761 258.075C117.515 256.127 116.449 254.04 115.563 251.814C114.676 249.588 113.997 247.347 113.525 245.091C113.053 242.835 112.84 240.554 112.887 238.248C112.933 235.942 113.277 233.821 113.919 231.884C114.572 229.92 115.655 228.132 117.166 226.522C118.67 224.892 120.535 223.634 122.761 222.747C125.006 221.854 127.2 221.507 129.343 221.708C131.497 221.882 133.462 222.479 135.236 223.5C137.021 224.493 138.714 225.815 140.313 227.466C143.321 230.573 145.75 234.45 147.599 239.096C150.981 247.593 151.296 254.778 148.544 260.649C147.056 263.842 144.455 266.179 140.738 267.658C138.59 268.513 136.436 268.877 134.278 268.75C132.112 268.603 130.114 268.064 128.286 267.132C126.469 266.174 124.734 264.913 123.081 263.351ZM117.128 238.511C117.203 240.387 117.476 242.285 117.949 244.205C118.414 246.105 119.105 248.207 120.021 250.51C120.938 252.814 122.055 254.97 123.37 256.98C124.698 258.963 126.167 260.654 127.778 262.054C129.408 263.445 131.212 264.342 133.188 264.744C135.176 265.118 137.118 264.928 139.015 264.173C140.931 263.41 142.417 262.382 143.471 261.088C144.537 259.766 145.244 258.33 145.59 256.78C145.937 255.229 146.047 253.504 145.918 251.604C145.7 248.238 144.827 244.639 143.302 240.806C140.767 234.438 137.631 229.968 133.895 227.397C132.561 226.47 131.063 225.889 129.4 225.654C127.729 225.4 126.023 225.62 124.281 226.313C122.539 227.006 121.11 227.979 119.993 229.231C118.896 230.474 118.128 231.868 117.688 233.411C117.26 234.926 117.074 236.626 117.128 238.511ZM155.55 248.846L158.973 245.869C158.992 245.862 159.097 246.011 159.286 246.317C159.494 246.615 159.789 246.991 160.172 247.444C160.573 247.889 161.056 248.37 161.62 248.885C162.184 249.401 162.874 249.866 163.689 250.282C164.524 250.689 165.423 251.004 166.386 251.226C168.521 251.744 170.953 251.46 173.682 250.374C176.411 249.287 178.147 247.733 178.889 245.711C179.631 243.689 179.571 241.594 178.708 239.426C177.838 237.239 176.73 235.695 175.385 234.796C174.052 233.869 172.157 233.39 169.701 233.359C168.981 233.354 168.049 233.377 166.903 233.429L163.764 233.569C158.351 233.885 154.329 233.132 151.697 231.309C149.87 230.041 148.497 228.255 147.58 225.952C146.494 223.223 146.565 220.246 147.793 217.021C148.387 215.529 149.343 214.128 150.661 212.819C151.978 211.51 153.508 210.508 155.25 209.815C157.011 209.114 158.656 208.739 160.184 208.692C161.724 208.617 163.039 208.766 164.13 209.139C165.239 209.505 166.304 210.011 167.325 210.659C168.345 211.307 169.143 211.931 169.718 212.532L171.415 214.345C171.937 214.922 172.249 215.258 172.354 215.351L169.157 218.305C169.08 218.223 168.864 217.962 168.509 217.52C168.165 217.052 167.87 216.676 167.623 216.393C167.395 216.102 167.03 215.721 166.528 215.248C166.045 214.767 165.581 214.391 165.137 214.12C164.704 213.821 164.163 213.532 163.513 213.253C162.876 212.946 162.238 212.751 161.599 212.669C160.045 212.481 158.464 212.706 156.857 213.346C154.476 214.293 152.822 215.77 151.894 217.777C150.958 219.764 150.953 221.919 151.877 224.241C152.887 226.777 154.254 228.296 155.978 228.798C156.918 229.074 157.68 229.242 158.264 229.301C158.867 229.352 159.548 229.372 160.306 229.362C161.076 229.325 161.643 229.312 162.007 229.324C162.363 229.317 163.049 229.268 164.067 229.177L166.806 228.961C171.844 228.548 175.744 229.361 178.507 231.4C180.381 232.785 181.838 234.783 182.878 237.396C183.633 239.293 183.823 241.516 183.447 244.065C183.005 247.291 181.433 249.934 178.734 251.996C177.715 252.76 176.441 253.446 174.912 254.055C173.402 254.656 171.831 255.046 170.198 255.225C168.565 255.404 167.114 255.365 165.846 255.108C164.597 254.842 163.408 254.475 162.279 254.005C161.169 253.527 160.215 252.988 159.415 252.387C157.947 251.289 156.817 250.282 156.025 249.364L155.55 248.846ZM201.435 234.752L203.813 232.023C204.77 233.077 206.096 233.928 207.789 234.577C208.505 234.853 209.388 235.017 210.44 235.069C211.485 235.102 212.501 234.922 213.488 234.529C215.849 233.589 217.214 232.115 217.581 230.108C217.959 228.074 217.555 225.566 216.369 222.585L203.818 191.054L208.115 189.344L220.666 220.875C223.178 227.185 222.684 232.057 219.185 235.49C218.065 236.564 216.692 237.424 215.066 238.071C213.44 238.719 211.888 239.045 210.411 239.05C208.925 239.036 207.697 238.852 206.727 238.498C205.748 238.125 204.823 237.631 203.949 237.014C202.705 236.141 201.867 235.388 201.435 234.752ZM230.682 220.52C229.041 218.931 227.601 217.173 226.362 215.244C225.116 213.296 224.05 211.209 223.164 208.983C222.278 206.757 221.599 204.516 221.127 202.26C220.655 200.003 220.442 197.723 220.488 195.417C220.535 193.111 220.879 190.99 221.52 189.053C222.173 187.089 223.256 185.301 224.767 183.69C226.271 182.06 228.136 180.802 230.362 179.916C232.607 179.022 234.801 178.676 236.944 178.877C239.099 179.051 241.063 179.648 242.837 180.668C244.623 181.662 246.315 182.984 247.914 184.635C250.922 187.742 253.351 191.619 255.2 196.264C258.583 204.762 258.897 211.946 256.145 217.818C254.658 221.011 252.056 223.347 248.34 224.827C246.191 225.682 244.037 226.046 241.879 225.918C239.713 225.772 237.716 225.233 235.887 224.301C234.071 223.342 232.336 222.082 230.682 220.52ZM224.73 195.679C224.804 197.556 225.077 199.454 225.55 201.373C226.015 203.274 226.706 205.376 227.623 207.679C228.54 209.982 229.656 212.139 230.972 214.149C232.299 216.132 233.768 217.823 235.379 219.223C237.01 220.614 238.813 221.511 240.789 221.913C242.777 222.287 244.719 222.097 246.616 221.342C248.532 220.579 250.018 219.551 251.072 218.257C252.138 216.935 252.845 215.499 253.192 213.948C253.539 212.398 253.648 210.672 253.52 208.773C253.301 205.407 252.429 201.807 250.903 197.975C248.368 191.607 245.232 187.137 241.496 184.566C240.163 183.639 238.664 183.058 237.001 182.823C235.331 182.569 233.624 182.788 231.882 183.482C230.14 184.175 228.711 185.148 227.595 186.399C226.498 187.643 225.729 189.037 225.29 190.579C224.861 192.095 224.675 193.795 224.73 195.679ZM267.046 205.743C265.439 204.073 264.032 202.256 262.824 200.293C261.636 198.322 260.637 196.32 259.828 194.287C259.012 192.236 258.388 190.275 257.958 188.406C257.528 186.537 257.253 184.662 257.132 182.781C257.011 180.901 257.119 179.087 257.454 177.339C257.802 175.564 258.335 173.916 259.053 172.397C260.637 169.166 263.287 166.81 267.003 165.331C269.732 164.245 272.625 164.046 275.68 164.736C279.249 165.535 282.632 168.09 285.828 172.402L282.034 175.123C281.961 174.995 281.858 174.823 281.727 174.606C281.608 174.362 281.312 173.93 280.841 173.31C280.39 172.683 279.915 172.109 279.417 171.59C278.911 171.051 278.246 170.509 277.423 169.962C276.612 169.388 275.775 168.947 274.913 168.64C272.918 167.91 270.798 167.991 268.552 168.885C266.307 169.779 264.599 171.064 263.428 172.741C262.257 174.418 261.598 176.34 261.451 178.506C261.154 182.661 261.999 187.235 263.987 192.229C266.36 198.19 268.906 202.334 271.626 204.66C275.199 207.722 279.173 208.383 283.548 206.641C288.987 204.476 290.884 200.088 289.239 193.478C288.874 192.054 288.349 190.48 287.663 188.758L277.879 192.652L276.445 189.052L290.44 183.481L298.703 204.241L295.219 205.628L293 200.053C292.015 203.943 290.442 206.722 288.28 208.39C287.319 209.131 285.949 209.856 284.168 210.565C282.387 211.274 280.39 211.553 278.178 211.402C275.985 211.244 273.985 210.672 272.18 209.686C270.375 208.7 268.664 207.386 267.046 205.743ZM303.559 191.512C301.917 189.923 300.477 188.164 299.238 186.235C297.992 184.287 296.926 182.2 296.04 179.974C295.154 177.748 294.475 175.507 294.003 173.251C293.531 170.995 293.318 168.714 293.364 166.408C293.411 164.103 293.755 161.981 294.396 160.044C295.05 158.08 296.132 156.292 297.643 154.682C299.147 153.052 301.012 151.794 303.238 150.908C305.483 150.014 307.677 149.667 309.82 149.868C311.975 150.042 313.939 150.639 315.713 151.66C317.499 152.653 319.191 153.975 320.79 155.626C323.798 158.734 326.227 162.61 328.076 167.256C331.459 175.753 331.774 182.938 329.021 188.809C327.534 192.003 324.932 194.339 321.216 195.818C319.067 196.673 316.914 197.037 314.755 196.91C312.589 196.763 310.592 196.224 308.763 195.292C306.947 194.334 305.212 193.073 303.559 191.512ZM297.606 166.671C297.68 168.547 297.953 170.445 298.426 172.365C298.891 174.265 299.582 176.367 300.499 178.67C301.416 180.974 302.532 183.13 303.848 185.14C305.175 187.123 306.645 188.815 308.255 190.214C309.886 191.605 311.689 192.502 313.665 192.904C315.653 193.279 317.595 193.088 319.492 192.333C321.409 191.571 322.894 190.542 323.948 189.248C325.014 187.927 325.721 186.491 326.068 184.94C326.415 183.389 326.524 181.664 326.396 179.764C326.177 176.398 325.305 172.799 323.779 168.966C321.244 162.598 318.109 158.128 314.372 155.557C313.039 154.63 311.541 154.049 309.878 153.814C308.207 153.56 306.5 153.78 304.758 154.473C303.016 155.167 301.587 156.139 300.471 157.391C299.374 158.635 298.605 160.028 298.166 161.571C297.738 163.087 297.551 164.786 297.606 166.671ZM336.027 177.006L339.45 174.029C339.47 174.022 339.574 174.171 339.763 174.477C339.971 174.775 340.267 175.151 340.649 175.604C341.051 176.05 341.533 176.53 342.097 177.046C342.661 177.561 343.351 178.026 344.167 178.442C345.002 178.849 345.901 179.164 346.863 179.386C348.998 179.904 351.43 179.62 354.159 178.534C356.888 177.448 358.624 175.893 359.367 173.871C360.109 171.849 360.049 169.754 359.186 167.586C358.315 165.399 357.207 163.856 355.862 162.956C354.529 162.029 352.635 161.55 350.178 161.519C349.458 161.514 348.526 161.537 347.381 161.589L344.241 161.729C338.828 162.045 334.806 161.292 332.175 159.469C330.347 158.201 328.975 156.415 328.058 154.112C326.971 151.383 327.042 148.406 328.27 145.181C328.864 143.689 329.82 142.288 331.138 140.979C332.456 139.67 333.985 138.668 335.727 137.975C337.489 137.274 339.134 136.899 340.662 136.852C342.202 136.777 343.517 136.926 344.607 137.299C345.717 137.665 346.782 138.171 347.802 138.819C348.822 139.467 349.62 140.091 350.195 140.692L351.893 142.505C352.414 143.083 352.727 143.418 352.831 143.511L349.635 146.465C349.557 146.383 349.341 146.122 348.986 145.68C348.642 145.212 348.347 144.836 348.1 144.553C347.872 144.263 347.507 143.881 347.005 143.408C346.522 142.928 346.059 142.552 345.614 142.28C345.181 141.981 344.64 141.692 343.991 141.413C343.353 141.106 342.715 140.911 342.077 140.829C340.522 140.641 338.941 140.866 337.335 141.506C334.954 142.454 333.299 143.931 332.372 145.937C331.436 147.924 331.43 150.079 332.355 152.401C333.364 154.937 334.731 156.456 336.456 156.958C337.395 157.234 338.157 157.402 338.741 157.461C339.345 157.512 340.026 157.532 340.784 157.522C341.554 157.485 342.121 157.472 342.484 157.484C342.84 157.477 343.527 157.428 344.544 157.337L347.284 157.121C352.322 156.708 356.222 157.521 358.984 159.56C360.858 160.945 362.315 162.943 363.356 165.557C364.111 167.453 364.3 169.676 363.925 172.225C363.482 175.451 361.911 178.094 359.211 180.156C358.192 180.92 356.918 181.606 355.389 182.215C353.879 182.816 352.308 183.206 350.675 183.385C349.042 183.564 347.592 183.525 346.323 183.268C345.074 183.002 343.885 182.635 342.756 182.165C341.647 181.687 340.692 181.148 339.892 180.547C338.424 179.45 337.294 178.442 336.502 177.524L336.027 177.006ZM-30.4489 440.068L-28.0709 437.338C-27.1133 438.392 -25.7878 439.244 -24.0944 439.893C-23.3791 440.168 -22.4954 440.332 -21.4432 440.384C-20.3988 440.417 -19.3829 440.237 -18.3958 439.844C-16.0343 438.904 -14.6701 437.43 -14.303 435.423C-13.9244 433.389 -14.3283 430.881 -15.5149 427.901L-28.066 396.369L-23.769 394.659L-11.2178 426.19C-8.70599 432.5 -9.19968 437.372 -12.6988 440.805C-13.8187 441.879 -15.1916 442.739 -16.8175 443.387C-18.4434 444.034 -19.9953 444.36 -21.4731 444.365C-22.9587 444.351 -24.1867 444.167 -25.1571 443.814C-26.1352 443.441 -27.061 442.946 -27.9342 442.329C-29.1785 441.457 -30.0167 440.703 -30.4489 440.068ZM-1.20122 425.836C-2.84273 424.247 -4.28279 422.488 -5.52139 420.559C-6.7677 418.611 -7.83388 416.524 -8.71994 414.298C-9.606 412.072 -10.2851 409.831 -10.7571 407.575C-11.2292 405.319 -11.442 403.038 -11.3956 400.732C-11.3491 398.426 -11.0051 396.305 -10.3636 394.368C-9.71033 392.404 -8.62798 390.616 -7.1165 389.006C-5.61272 387.376 -3.74785 386.118 -1.52189 385.231C0.723434 384.338 2.91754 383.991 5.06044 384.192C7.215 384.366 9.17927 384.963 10.9533 385.984C12.7389 386.977 14.4312 388.299 16.03 389.95C19.0385 393.057 21.4673 396.934 23.3165 401.58C26.6989 410.077 27.0138 417.262 24.261 423.133C22.774 426.326 20.1722 428.663 16.4558 430.142C14.3073 430.997 12.1538 431.361 9.99529 431.234C7.82909 431.087 5.83183 430.548 4.00352 429.616C2.18686 428.658 0.451947 427.397 -1.20122 425.836ZM-7.15402 400.995C-7.0798 402.871 -6.80637 404.769 -6.33375 406.689C-5.86883 408.589 -5.17793 410.691 -4.26106 412.994C-3.34418 415.298 -2.22782 417.454 -0.911984 419.464C0.415507 421.447 1.88469 423.138 3.49558 424.538C5.12581 425.929 6.92904 426.826 8.90525 427.228C10.8931 427.603 12.8355 427.412 14.7324 426.657C16.6487 425.894 18.134 424.866 19.1885 423.572C20.2546 422.25 20.9611 420.814 21.308 419.264C21.6549 417.713 21.7642 415.988 21.6358 414.088C21.4171 410.722 20.545 407.123 19.0194 403.29C16.4845 396.922 13.3487 392.452 9.61205 389.881C8.27892 388.954 6.78078 388.373 5.11766 388.138C3.44682 387.884 1.74038 388.104 -0.00168433 388.797C-1.74374 389.49 -3.17291 390.463 -4.28918 391.715C-5.3861 392.958 -6.15443 394.352 -6.59418 395.895C-7.02228 397.41 -7.20889 399.11 -7.15402 400.995ZM35.1619 411.058C33.5553 409.388 32.1482 407.571 30.9407 405.608C29.7524 403.637 28.7538 401.635 27.9448 399.603C27.1281 397.551 26.5046 395.59 26.0745 393.721C25.6443 391.852 25.3689 389.977 25.2483 388.097C25.1276 386.216 25.2351 384.402 25.5708 382.654C25.9181 380.879 26.4508 379.232 27.1691 377.713C28.7529 374.481 31.403 372.126 35.1194 370.646C37.8487 369.56 40.7408 369.362 43.7959 370.051C47.3653 370.851 50.7481 373.406 53.9441 377.717L50.1502 380.438C50.0769 380.31 49.9746 380.138 49.8435 379.921C49.7239 379.677 49.4287 379.245 48.9578 378.625C48.5062 377.998 48.0313 377.424 47.5331 376.905C47.0272 376.367 46.3627 375.824 45.5396 375.277C44.7282 374.703 43.8914 374.263 43.0292 373.956C41.0342 373.225 38.914 373.306 36.6687 374.2C34.4234 375.094 32.7151 376.379 31.544 378.056C30.3728 379.733 29.7139 381.655 29.5671 383.821C29.27 387.976 30.1153 392.55 32.1032 397.544C34.4763 403.506 37.0226 407.649 39.7423 409.975C43.3156 413.037 47.2896 413.698 51.6641 411.956C57.1032 409.791 59.0004 405.404 57.3557 398.793C56.9905 397.369 56.4651 395.795 55.7794 394.073L45.9948 397.968L44.5617 394.367L58.5563 388.797L66.8197 409.556L63.3356 410.943L61.1166 405.368C60.1313 409.259 58.5579 412.038 56.3964 413.705C55.4357 414.446 54.065 415.171 52.2842 415.88C50.5034 416.589 48.5067 416.868 46.2941 416.717C44.1009 416.559 42.1017 415.987 40.2967 415.001C38.4917 414.016 36.7801 412.701 35.1619 411.058ZM71.6749 396.827C70.0334 395.238 68.5934 393.479 67.3548 391.55C66.1085 389.602 65.0423 387.515 64.1562 385.289C63.2702 383.063 62.5911 380.822 62.1191 378.566C61.647 376.31 61.4342 374.029 61.4806 371.723C61.527 369.418 61.871 367.296 62.5126 365.359C63.1658 363.395 64.2482 361.608 65.7597 359.997C67.2634 358.367 69.1283 357.109 71.3543 356.223C73.5996 355.329 75.7937 354.983 77.9366 355.183C80.0912 355.357 82.0554 355.954 83.8294 356.975C85.6151 357.968 87.3073 359.29 88.9062 360.941C91.9147 364.049 94.3435 367.925 96.1927 372.571C99.5751 381.068 99.8899 388.253 97.1372 394.125C95.6501 397.318 93.0484 399.654 89.332 401.133C87.1835 401.988 85.03 402.352 82.8715 402.225C80.7053 402.078 78.708 401.539 76.8797 400.607C75.063 399.649 73.3281 398.389 71.6749 396.827ZM65.7221 371.986C65.7964 373.862 66.0698 375.76 66.5424 377.68C67.0073 379.58 67.6982 381.682 68.6151 383.985C69.532 386.289 70.6483 388.446 71.9642 390.456C73.2917 392.439 74.7609 394.13 76.3717 395.529C78.002 396.921 79.8052 397.817 81.7814 398.219C83.7693 398.594 85.7117 398.404 87.6086 397.649C89.5248 396.886 91.0102 395.857 92.0646 394.563C93.1307 393.242 93.8372 391.806 94.1842 390.255C94.5311 388.704 94.6404 386.979 94.512 385.079C94.2933 381.713 93.4211 378.114 91.8956 374.281C89.3607 367.913 86.2249 363.443 82.4882 360.872C81.1551 359.945 79.657 359.364 77.9938 359.13C76.323 358.875 74.6165 359.095 72.8745 359.788C71.1324 360.482 69.7033 361.454 68.587 362.706C67.4901 363.95 66.7217 365.343 66.282 366.886C65.8539 368.402 65.6673 370.102 65.7221 371.986ZM104.144 382.322L107.567 379.345C107.586 379.337 107.69 379.486 107.879 379.792C108.088 380.09 108.383 380.466 108.765 380.919C109.167 381.365 109.65 381.845 110.214 382.361C110.778 382.876 111.467 383.342 112.283 383.757C113.118 384.165 114.017 384.479 114.98 384.702C117.114 385.22 119.546 384.936 122.276 383.849C125.005 382.763 126.741 381.209 127.483 379.187C128.225 377.164 128.165 375.069 127.302 372.902C126.431 370.714 125.324 369.171 123.979 368.271C122.646 367.344 120.751 366.865 118.294 366.834C117.575 366.829 116.642 366.852 115.497 366.905L112.357 367.044C106.945 367.36 102.923 366.607 100.291 364.784C98.4633 363.516 97.091 361.73 96.1741 359.427C95.0877 356.698 95.1585 353.721 96.3864 350.497C96.9808 349.004 97.9368 347.603 99.2543 346.294C100.572 344.985 102.102 343.984 103.844 343.29C105.605 342.589 107.25 342.215 108.778 342.167C110.318 342.092 111.633 342.241 112.723 342.615C113.833 342.98 114.898 343.487 115.918 344.134C116.939 344.782 117.736 345.406 118.312 346.007L120.009 347.82C120.53 348.398 120.843 348.733 120.947 348.826L117.751 351.78C117.674 351.699 117.457 351.437 117.102 350.996C116.759 350.527 116.463 350.151 116.216 349.868C115.988 349.578 115.624 349.196 115.121 348.723C114.639 348.243 114.175 347.867 113.731 347.595C113.298 347.297 112.757 347.007 112.107 346.728C111.469 346.421 110.831 346.227 110.193 346.144C108.638 345.956 107.058 346.182 105.451 346.821C103.07 347.769 101.416 349.246 100.488 351.252C99.5521 353.239 99.5466 355.394 100.471 357.717C101.48 360.252 102.847 361.771 104.572 362.273C105.512 362.549 106.273 362.717 106.858 362.776C107.461 362.827 108.142 362.848 108.9 362.837C109.67 362.8 110.237 362.787 110.6 362.8C110.956 362.792 111.643 362.743 112.661 362.652L115.4 362.436C120.438 362.023 124.338 362.836 127.101 364.876C128.975 366.26 130.432 368.259 131.472 370.872C132.227 372.769 132.417 374.991 132.041 377.54C131.598 380.766 130.027 383.41 127.327 385.471C126.309 386.235 125.035 386.922 123.505 387.53C121.996 388.131 120.424 388.521 118.791 388.7C117.159 388.88 115.708 388.84 114.439 388.583C113.19 388.318 112.001 387.95 110.872 387.48C109.763 387.002 108.808 386.463 108.008 385.862C106.54 384.765 105.41 383.757 104.619 382.839L104.144 382.322ZM150.028 368.228L152.406 365.498C153.364 366.552 154.69 367.404 156.383 368.053C157.098 368.329 157.982 368.492 159.034 368.545C160.079 368.577 161.094 368.397 162.082 368.004C164.443 367.064 165.807 365.591 166.174 363.583C166.553 361.549 166.149 359.042 164.963 356.061L152.411 324.529L156.708 322.819L169.26 354.35C171.771 360.66 171.278 365.532 167.779 368.965C166.659 370.039 165.286 370.899 163.66 371.547C162.034 372.194 160.482 372.52 159.004 372.525C157.519 372.511 156.291 372.327 155.32 371.974C154.342 371.601 153.416 371.106 152.543 370.489C151.299 369.617 150.461 368.863 150.028 368.228ZM179.276 353.996C177.635 352.407 176.195 350.648 174.956 348.719C173.71 346.771 172.644 344.684 171.757 342.458C170.871 340.232 170.192 337.991 169.72 335.735C169.248 333.479 169.035 331.198 169.082 328.892C169.128 326.587 169.472 324.465 170.114 322.528C170.767 320.564 171.849 318.776 173.361 317.166C174.865 315.536 176.73 314.278 178.956 313.392C181.201 312.498 183.395 312.151 185.538 312.352C187.692 312.526 189.657 313.123 191.431 314.144C193.216 315.137 194.909 316.459 196.507 318.11C199.516 321.218 201.945 325.094 203.794 329.74C207.176 338.237 207.491 345.422 204.738 351.294C203.251 354.487 200.65 356.823 196.933 358.302C194.785 359.157 192.631 359.521 190.473 359.394C188.306 359.247 186.309 358.708 184.481 357.776C182.664 356.818 180.929 355.557 179.276 353.996ZM173.323 329.155C173.398 331.031 173.671 332.929 174.144 334.849C174.609 336.749 175.299 338.851 176.216 341.154C177.133 343.458 178.25 345.614 179.565 347.624C180.893 349.607 182.362 351.299 183.973 352.698C185.603 354.089 187.406 354.986 189.383 355.388C191.371 355.763 193.313 355.572 195.21 354.817C197.126 354.055 198.611 353.026 199.666 351.732C200.732 350.411 201.438 348.975 201.785 347.424C202.132 345.873 202.242 344.148 202.113 342.248C201.894 338.882 201.022 335.283 199.497 331.45C196.962 325.082 193.826 320.612 190.089 318.041C188.756 317.114 187.258 316.533 185.595 316.298C183.924 316.044 182.218 316.264 180.476 316.957C178.734 317.651 177.304 318.623 176.188 319.875C175.091 321.119 174.323 322.512 173.883 324.055C173.455 325.571 173.269 327.271 173.323 329.155ZM215.639 339.218C214.033 337.548 212.626 335.732 211.418 333.768C210.23 331.797 209.231 329.795 208.422 327.763C207.605 325.711 206.982 323.75 206.552 321.881C206.122 320.012 205.846 318.137 205.726 316.257C205.605 314.376 205.713 312.562 206.048 310.814C206.395 309.039 206.928 307.392 207.646 305.873C209.23 302.641 211.88 300.286 215.597 298.806C218.326 297.72 221.218 297.522 224.273 298.212C227.843 299.011 231.225 301.566 234.421 305.877L230.628 308.598C230.554 308.47 230.452 308.298 230.321 308.081C230.201 307.837 229.906 307.405 229.435 306.785C228.984 306.158 228.509 305.585 228.011 305.065C227.505 304.527 226.84 303.984 226.017 303.437C225.206 302.863 224.369 302.423 223.507 302.116C221.512 301.385 219.391 301.467 217.146 302.36C214.901 303.254 213.193 304.539 212.021 306.217C210.85 307.894 210.191 309.815 210.044 311.981C209.747 316.136 210.593 320.71 212.581 325.704C214.954 331.666 217.5 335.809 220.22 338.135C223.793 341.197 227.767 341.858 232.141 340.117C237.581 337.951 239.478 333.564 237.833 326.953C237.468 325.529 236.943 323.956 236.257 322.233L226.472 326.128L225.039 322.527L239.034 316.957L247.297 337.716L243.813 339.103L241.594 333.529C240.609 337.419 239.035 340.198 236.874 341.865C235.913 342.607 234.542 343.332 232.762 344.04C230.981 344.749 228.984 345.028 226.772 344.878C224.578 344.719 222.579 344.147 220.774 343.161C218.969 342.176 217.257 340.861 215.639 339.218ZM252.152 324.987C250.511 323.398 249.071 321.639 247.832 319.711C246.586 317.763 245.52 315.676 244.634 313.45C243.748 311.224 243.069 308.982 242.596 306.726C242.124 304.47 241.912 302.189 241.958 299.883C242.004 297.578 242.348 295.456 242.99 293.519C243.643 291.555 244.726 289.768 246.237 288.157C247.741 286.527 249.606 285.269 251.832 284.383C254.077 283.489 256.271 283.143 258.414 283.344C260.569 283.517 262.533 284.115 264.307 285.135C266.092 286.128 267.785 287.45 269.384 289.101C272.392 292.209 274.821 296.085 276.67 300.731C280.052 309.228 280.367 316.413 277.615 322.285C276.128 325.478 273.526 327.814 269.809 329.293C267.661 330.149 265.507 330.512 263.349 330.385C261.183 330.238 259.185 329.699 257.357 328.768C255.54 327.809 253.806 326.549 252.152 324.987ZM246.2 300.146C246.274 302.022 246.547 303.92 247.02 305.84C247.485 307.74 248.176 309.842 249.093 312.146C250.009 314.449 251.126 316.606 252.442 318.616C253.769 320.599 255.238 322.29 256.849 323.689C258.479 325.081 260.283 325.977 262.259 326.379C264.247 326.754 266.189 326.564 268.086 325.809C270.002 325.046 271.488 324.017 272.542 322.723C273.608 321.402 274.315 319.966 274.662 318.415C275.008 316.864 275.118 315.139 274.989 313.239C274.771 309.873 273.899 306.274 272.373 302.441C269.838 296.073 266.702 291.604 262.966 289.032C261.632 288.105 260.134 287.525 258.471 287.29C256.8 287.035 255.094 287.255 253.352 287.948C251.61 288.642 250.181 289.614 249.064 290.866C247.967 292.11 247.199 293.503 246.759 295.046C246.331 296.562 246.145 298.262 246.2 300.146ZM284.621 310.482L288.044 307.505C288.063 307.497 288.168 307.646 288.357 307.952C288.565 308.25 288.86 308.626 289.243 309.079C289.644 309.525 290.127 310.005 290.691 310.521C291.255 311.036 291.945 311.502 292.76 311.917C293.595 312.325 294.494 312.64 295.457 312.862C297.592 313.38 300.024 313.096 302.753 312.009C305.482 310.923 307.218 309.369 307.96 307.347C308.703 305.325 308.642 303.23 307.779 301.062C306.909 298.874 305.801 297.331 304.456 296.431C303.123 295.504 301.228 295.025 298.772 294.994C298.052 294.989 297.12 295.013 295.974 295.065L292.835 295.205C287.422 295.52 283.4 294.767 280.768 292.944C278.941 291.676 277.568 289.891 276.651 287.587C275.565 284.858 275.636 281.881 276.864 278.657C277.458 277.164 278.414 275.764 279.732 274.454C281.049 273.145 282.579 272.144 284.321 271.45C286.083 270.749 287.727 270.375 289.256 270.327C290.795 270.252 292.11 270.401 293.201 270.775C294.31 271.14 295.375 271.647 296.396 272.295C297.416 272.942 298.214 273.567 298.789 274.167L300.486 275.981C301.008 276.558 301.321 276.893 301.425 276.986L298.228 279.94C298.151 279.859 297.935 279.597 297.58 279.156C297.236 278.687 296.941 278.311 296.694 278.028C296.466 277.738 296.101 277.356 295.599 276.883C295.116 276.403 294.652 276.027 294.208 275.755C293.775 275.457 293.234 275.168 292.585 274.888C291.947 274.581 291.309 274.387 290.671 274.304C289.116 274.116 287.535 274.342 285.928 274.981C283.548 275.929 281.893 277.406 280.965 279.412C280.03 281.399 280.024 283.554 280.949 285.877C281.958 288.412 283.325 289.931 285.049 290.433C285.989 290.709 286.751 290.877 287.335 290.936C287.938 290.987 288.619 291.008 289.378 290.997C290.147 290.96 290.714 290.947 291.078 290.96C291.434 290.953 292.121 290.903 293.138 290.812L295.878 290.596C300.915 290.183 304.815 290.996 307.578 293.036C309.452 294.42 310.909 296.419 311.949 299.032C312.704 300.929 312.894 303.152 312.518 305.7C312.076 308.926 310.505 311.57 307.805 313.631C306.786 314.395 305.512 315.082 303.983 315.69C302.473 316.291 300.902 316.681 299.269 316.861C297.636 317.04 296.185 317 294.917 316.743C293.668 316.478 292.479 316.11 291.35 315.64C290.24 315.163 289.286 314.623 288.486 314.022C287.018 312.925 285.888 311.917 285.096 310.999L284.621 310.482ZM330.506 296.388L332.884 293.659C333.842 294.712 335.167 295.564 336.86 296.213C337.576 296.489 338.459 296.653 339.512 296.705C340.556 296.737 341.572 296.557 342.559 296.164C344.92 295.224 346.285 293.751 346.652 291.743C347.03 289.709 346.626 287.202 345.44 284.221L332.889 252.689L337.186 250.979L349.737 282.51C352.249 288.82 351.755 293.692 348.256 297.126C347.136 298.199 345.763 299.06 344.137 299.707C342.511 300.354 340.959 300.68 339.482 300.685C337.996 300.671 336.768 300.487 335.798 300.134C334.82 299.761 333.894 299.266 333.021 298.649C331.776 297.777 330.938 297.023 330.506 296.388ZM359.754 282.156C358.112 280.567 356.672 278.808 355.433 276.879C354.187 274.931 353.121 272.844 352.235 270.618C351.349 268.392 350.67 266.151 350.198 263.895C349.726 261.639 349.513 259.358 349.559 257.052C349.606 254.747 349.95 252.625 350.591 250.688C351.244 248.724 352.327 246.937 353.838 245.326C355.342 243.696 357.207 242.438 359.433 241.552C361.678 240.658 363.872 240.311 366.015 240.512C368.17 240.686 370.134 241.283 371.908 242.304C373.694 243.297 375.386 244.619 376.985 246.27C379.993 249.378 382.422 253.254 384.271 257.9C387.654 266.397 387.969 273.582 385.216 279.454C383.729 282.647 381.127 284.983 377.411 286.462C375.262 287.317 373.109 287.681 370.95 287.554C368.784 287.407 366.787 286.868 364.958 285.936C363.142 284.978 361.407 283.718 359.754 282.156ZM353.801 257.315C353.875 259.191 354.148 261.089 354.621 263.009C355.086 264.909 355.777 267.011 356.694 269.314C357.611 271.618 358.727 273.774 360.043 275.784C361.37 277.767 362.839 279.459 364.45 280.858C366.081 282.249 367.884 283.146 369.86 283.548C371.848 283.923 373.79 283.733 375.687 282.977C377.603 282.215 379.089 281.186 380.143 279.892C381.209 278.571 381.916 277.135 382.263 275.584C382.61 274.033 382.719 272.308 382.591 270.408C382.372 267.042 381.5 263.443 379.974 259.61C377.439 253.242 374.304 248.772 370.567 246.201C369.234 245.274 367.736 244.693 366.072 244.458C364.402 244.204 362.695 244.424 360.953 245.117C359.211 245.811 357.782 246.783 356.666 248.035C355.569 249.279 354.8 250.672 354.361 252.215C353.933 253.731 353.746 255.431 353.801 257.315ZM396.117 267.378C394.51 265.708 393.103 263.892 391.895 261.928C390.707 259.957 389.709 257.955 388.9 255.923C388.083 253.871 387.459 251.911 387.029 250.041C386.599 248.172 386.324 246.297 386.203 244.417C386.082 242.536 386.19 240.722 386.526 238.974C386.873 237.199 387.406 235.552 388.124 234.033C389.708 230.801 392.358 228.446 396.074 226.966C398.803 225.88 401.696 225.682 404.751 226.372C408.32 227.171 411.703 229.726 414.899 234.037L411.105 236.758C411.032 236.63 410.929 236.458 410.798 236.241C410.679 235.997 410.384 235.565 409.913 234.946C409.461 234.318 408.986 233.745 408.488 233.225C407.982 232.687 407.318 232.144 406.494 231.597C405.683 231.023 404.846 230.583 403.984 230.276C401.989 229.545 399.869 229.627 397.623 230.52C395.378 231.414 393.67 232.7 392.499 234.377C391.328 236.054 390.669 237.975 390.522 240.141C390.225 244.296 391.07 248.87 393.058 253.864C395.431 259.826 397.977 263.969 400.697 266.295C404.27 269.357 408.244 270.018 412.619 268.277C418.058 266.112 419.955 261.724 418.31 255.113C417.945 253.689 417.42 252.116 416.734 250.393L406.95 254.288L405.517 250.687L419.511 245.117L427.774 265.876L424.29 267.263L422.071 261.689C421.086 265.579 419.513 268.358 417.351 270.025C416.39 270.767 415.02 271.492 413.239 272.2C411.458 272.909 409.462 273.188 407.249 273.038C405.056 272.879 403.057 272.307 401.252 271.322C399.446 270.336 397.735 269.021 396.117 267.378ZM432.63 253.147C430.988 251.558 429.548 249.799 428.31 247.871C427.063 245.923 425.997 243.836 425.111 241.61C424.225 239.384 423.546 237.143 423.074 234.886C422.602 232.63 422.389 230.349 422.435 228.044C422.482 225.738 422.826 223.617 423.467 221.679C424.121 219.715 425.203 217.928 426.714 216.317C428.218 214.687 430.083 213.429 432.309 212.543C434.554 211.649 436.748 211.303 438.891 211.504C441.046 211.677 443.01 212.275 444.784 213.295C446.57 214.288 448.262 215.61 449.861 217.261C452.869 220.369 455.298 224.246 457.147 228.891C460.53 237.388 460.845 244.573 458.092 250.445C456.605 253.638 454.003 255.974 450.287 257.453C448.138 258.309 445.985 258.673 443.826 258.545C441.66 258.398 439.663 257.859 437.834 256.928C436.018 255.969 434.283 254.709 432.63 253.147ZM426.677 228.306C426.751 230.182 427.025 232.08 427.497 234C427.962 235.9 428.653 238.002 429.57 240.306C430.487 242.609 431.603 244.766 432.919 246.776C434.246 248.759 435.716 250.45 437.327 251.849C438.957 253.241 440.76 254.137 442.736 254.539C444.724 254.914 446.666 254.724 448.563 253.969C450.48 253.206 451.965 252.177 453.019 250.883C454.086 249.562 454.792 248.126 455.139 246.575C455.486 245.024 455.595 243.299 455.467 241.399C455.248 238.033 454.376 234.434 452.85 230.601C450.315 224.233 447.18 219.764 443.443 217.192C442.11 216.266 440.612 215.685 438.949 215.45C437.278 215.196 435.571 215.415 433.829 216.109C432.087 216.802 430.658 217.774 429.542 219.026C428.445 220.27 427.677 221.663 427.237 223.206C426.809 224.722 426.622 226.422 426.677 228.306ZM465.099 238.642L468.522 235.665C468.541 235.657 468.645 235.806 468.834 236.112C469.043 236.41 469.338 236.786 469.72 237.239C470.122 237.685 470.604 238.165 471.168 238.681C471.732 239.196 472.422 239.662 473.238 240.077C474.073 240.485 474.972 240.8 475.935 241.022C478.069 241.54 480.501 241.256 483.23 240.169C485.96 239.083 487.695 237.529 488.438 235.507C489.18 233.485 489.12 231.39 488.257 229.222C487.386 227.035 486.278 225.491 484.934 224.591C483.6 223.664 481.706 223.185 479.249 223.154C478.529 223.149 477.597 223.173 476.452 223.225L473.312 223.365C467.899 223.681 463.877 222.927 461.246 221.104C459.418 219.836 458.046 218.051 457.129 215.747C456.042 213.018 456.113 210.041 457.341 206.817C457.936 205.324 458.892 203.924 460.209 202.614C461.527 201.305 463.056 200.304 464.798 199.61C466.56 198.909 468.205 198.535 469.733 198.487C471.273 198.412 472.588 198.561 473.678 198.935C474.788 199.3 475.853 199.807 476.873 200.455C477.893 201.102 478.691 201.727 479.267 202.327L480.964 204.141C481.485 204.718 481.798 205.053 481.902 205.146L478.706 208.1C478.628 208.019 478.412 207.757 478.057 207.316C477.713 206.847 477.418 206.471 477.171 206.189C476.943 205.898 476.578 205.516 476.076 205.043C475.593 204.563 475.13 204.187 474.685 203.915C474.253 203.617 473.711 203.328 473.062 203.048C472.424 202.741 471.786 202.547 471.148 202.464C469.593 202.276 468.012 202.502 466.406 203.141C464.025 204.089 462.371 205.566 461.443 207.572C460.507 209.559 460.501 211.714 461.426 214.037C462.435 216.572 463.802 218.091 465.527 218.593C466.466 218.869 467.228 219.037 467.812 219.096C468.416 219.147 469.097 219.168 469.855 219.158C470.625 219.12 471.192 219.108 471.555 219.12C471.911 219.113 472.598 219.063 473.616 218.972L476.355 218.756C481.393 218.343 485.293 219.156 488.055 221.196C489.929 222.58 491.386 224.579 492.427 227.192C493.182 229.089 493.371 231.312 492.996 233.86C492.553 237.086 490.982 239.73 488.282 241.791C487.263 242.555 485.989 243.242 484.46 243.851C482.95 244.451 481.379 244.842 479.746 245.021C478.113 245.2 476.663 245.161 475.394 244.903C474.145 244.638 472.956 244.27 471.827 243.8C470.718 243.323 469.763 242.783 468.963 242.182C467.495 241.085 466.365 240.077 465.574 239.159L465.099 238.642ZM98.6221 501.703L101 498.974C101.958 500.028 103.283 500.879 104.977 501.528C105.692 501.804 106.576 501.968 107.628 502.02C108.672 502.053 109.688 501.872 110.675 501.479C113.037 500.539 114.401 499.066 114.768 497.059C115.147 495.024 114.743 492.517 113.556 489.536L101.005 458.005L105.302 456.294L117.853 487.825C120.365 494.136 119.871 499.007 116.372 502.441C115.252 503.514 113.88 504.375 112.254 505.022C110.628 505.669 109.076 505.995 107.598 506.001C106.112 505.987 104.884 505.803 103.914 505.449C102.936 505.076 102.01 504.581 101.137 503.965C99.8926 503.092 99.0544 502.338 98.6221 501.703ZM127.87 487.471C126.228 485.882 124.788 484.123 123.55 482.195C122.303 480.247 121.237 478.16 120.351 475.934C119.465 473.708 118.786 471.466 118.314 469.21C117.842 466.954 117.629 464.673 117.676 462.367C117.722 460.062 118.066 457.94 118.708 456.003C119.361 454.039 120.443 452.252 121.955 450.641C123.458 449.011 125.323 447.753 127.549 446.867C129.795 445.973 131.989 445.627 134.132 445.828C136.286 446.001 138.25 446.599 140.024 447.619C141.81 448.612 143.502 449.934 145.101 451.585C148.11 454.693 150.538 458.569 152.388 463.215C155.77 471.712 156.085 478.897 153.332 484.769C151.845 487.962 149.243 490.298 145.527 491.777C143.378 492.633 141.225 492.996 139.066 492.869C136.9 492.722 134.903 492.183 133.075 491.252C131.258 490.293 129.523 489.033 127.87 487.471ZM121.917 462.63C121.991 464.506 122.265 466.404 122.737 468.324C123.202 470.224 123.893 472.326 124.81 474.63C125.727 476.933 126.843 479.09 128.159 481.1C129.487 483.083 130.956 484.774 132.567 486.173C134.197 487.565 136 488.461 137.976 488.863C139.964 489.238 141.907 489.048 143.803 488.293C145.72 487.53 147.205 486.501 148.26 485.207C149.326 483.886 150.032 482.45 150.379 480.899C150.726 479.348 150.835 477.623 150.707 475.723C150.488 472.357 149.616 468.758 148.09 464.925C145.556 458.557 142.42 454.088 138.683 451.516C137.35 450.589 135.852 450.009 134.189 449.774C132.518 449.519 130.811 449.739 129.069 450.432C127.327 451.126 125.898 452.098 124.782 453.35C123.685 454.594 122.917 455.987 122.477 457.53C122.049 459.046 121.862 460.746 121.917 462.63ZM164.233 472.694C162.626 471.024 161.219 469.207 160.012 467.243C158.823 465.272 157.825 463.27 157.016 461.238C156.199 459.186 155.576 457.226 155.146 455.357C154.715 453.487 154.44 451.612 154.319 449.732C154.199 447.852 154.306 446.037 154.642 444.289C154.989 442.514 155.522 440.867 156.24 439.348C157.824 436.116 160.474 433.761 164.191 432.282C166.92 431.195 169.812 430.997 172.867 431.687C176.436 432.486 179.819 435.041 183.015 439.352L179.221 442.073C179.148 441.945 179.046 441.773 178.915 441.556C178.795 441.312 178.5 440.88 178.029 440.261C177.577 439.633 177.102 439.06 176.604 438.541C176.098 438.002 175.434 437.459 174.611 436.912C173.799 436.339 172.962 435.898 172.1 435.591C170.105 434.86 167.985 434.942 165.74 435.836C163.494 436.729 161.786 438.015 160.615 439.692C159.444 441.369 158.785 443.29 158.638 445.457C158.341 449.611 159.186 454.185 161.174 459.179C163.547 465.141 166.094 469.285 168.813 471.61C172.387 474.673 176.361 475.333 180.735 473.592C186.174 471.427 188.071 467.039 186.427 460.429C186.062 459.004 185.536 457.431 184.85 455.708L175.066 459.603L173.633 456.003L187.627 450.432L195.891 471.192L192.407 472.578L190.188 467.004C189.202 470.894 187.629 473.673 185.467 475.341C184.507 476.082 183.136 476.807 181.355 477.516C179.575 478.225 177.578 478.504 175.365 478.353C173.172 478.194 171.173 477.622 169.368 476.637C167.563 475.651 165.851 474.337 164.233 472.694ZM200.746 458.462C199.105 456.873 197.664 455.114 196.426 453.186C195.18 451.238 194.113 449.151 193.227 446.925C192.341 444.699 191.662 442.458 191.19 440.202C190.718 437.945 190.505 435.664 190.552 433.359C190.598 431.053 190.942 428.932 191.584 426.995C192.237 425.03 193.319 423.243 194.831 421.632C196.335 420.002 198.199 418.744 200.425 417.858C202.671 416.964 204.865 416.618 207.008 416.819C209.162 416.993 211.127 417.59 212.901 418.61C214.686 419.604 216.378 420.926 217.977 422.576C220.986 425.684 223.415 429.561 225.264 434.206C228.646 442.704 228.961 449.888 226.208 455.76C224.721 458.953 222.119 461.289 218.403 462.769C216.255 463.624 214.101 463.988 211.943 463.86C209.776 463.714 207.779 463.174 205.951 462.243C204.134 461.284 202.399 460.024 200.746 458.462ZM194.793 433.621C194.867 435.498 195.141 437.396 195.613 439.315C196.078 441.216 196.769 443.317 197.686 445.621C198.603 447.924 199.719 450.081 201.035 452.091C202.363 454.074 203.832 455.765 205.443 457.164C207.073 458.556 208.876 459.453 210.852 459.854C212.84 460.229 214.783 460.039 216.68 459.284C218.596 458.521 220.081 457.493 221.136 456.198C222.202 454.877 222.908 453.441 223.255 451.89C223.602 450.34 223.711 448.614 223.583 446.715C223.364 443.349 222.492 439.749 220.967 435.917C218.432 429.548 215.296 425.079 211.559 422.508C210.226 421.581 208.728 421 207.065 420.765C205.394 420.511 203.688 420.73 201.946 421.424C200.204 422.117 198.774 423.09 197.658 424.341C196.561 425.585 195.793 426.978 195.353 428.521C194.925 430.037 194.738 431.737 194.793 433.621ZM233.215 443.957L236.638 440.98C236.657 440.972 236.761 441.121 236.95 441.427C237.159 441.726 237.454 442.101 237.836 442.555C238.238 443 238.721 443.481 239.285 443.996C239.849 444.512 240.538 444.977 241.354 445.392C242.189 445.8 243.088 446.115 244.051 446.337C246.185 446.855 248.617 446.571 251.347 445.485C254.076 444.398 255.812 442.844 256.554 440.822C257.296 438.8 257.236 436.705 256.373 434.537C255.502 432.35 254.395 430.806 253.05 429.906C251.717 428.98 249.822 428.501 247.365 428.469C246.646 428.464 245.713 428.488 244.568 428.54L241.429 428.68C236.016 428.996 231.994 428.242 229.362 426.42C227.534 425.152 226.162 423.366 225.245 421.062C224.159 418.333 224.23 415.356 225.457 412.132C226.052 410.64 227.008 409.239 228.325 407.93C229.643 406.62 231.173 405.619 232.915 404.926C234.676 404.224 236.321 403.85 237.849 403.802C239.389 403.727 240.704 403.877 241.794 404.25C242.904 404.615 243.969 405.122 244.989 405.77C246.01 406.418 246.807 407.042 247.383 407.642L249.08 409.456C249.601 410.033 249.914 410.368 250.018 410.461L246.822 413.415C246.745 413.334 246.528 413.073 246.173 412.631C245.83 412.162 245.534 411.787 245.287 411.504C245.06 411.213 244.695 410.832 244.192 410.359C243.71 409.878 243.246 409.502 242.802 409.231C242.369 408.932 241.828 408.643 241.178 408.363C240.54 408.057 239.902 407.862 239.264 407.78C237.709 407.591 236.129 407.817 234.522 408.456C232.141 409.404 230.487 410.881 229.559 412.887C228.623 414.874 228.618 417.029 229.542 419.352C230.552 421.888 231.919 423.406 233.643 423.908C234.583 424.185 235.345 424.352 235.929 424.411C236.532 424.463 237.213 424.483 237.971 424.473C238.741 424.435 239.308 424.423 239.672 424.435C240.027 424.428 240.714 424.379 241.732 424.288L244.471 424.072C249.509 423.658 253.409 424.472 256.172 426.511C258.046 427.895 259.503 429.894 260.543 432.507C261.298 434.404 261.488 436.627 261.112 439.176C260.669 442.401 259.098 445.045 256.398 447.106C255.38 447.871 254.106 448.557 252.577 449.166C251.067 449.767 249.495 450.157 247.863 450.336C246.23 450.515 244.779 450.476 243.51 450.218C242.261 449.953 241.072 449.586 239.943 449.116C238.834 448.638 237.879 448.098 237.08 447.497C235.611 446.4 234.481 445.392 233.69 444.474L233.215 443.957ZM279.1 429.863L281.478 427.134C282.435 428.188 283.761 429.039 285.454 429.688C286.169 429.964 287.053 430.128 288.105 430.18C289.15 430.213 290.166 430.033 291.153 429.64C293.514 428.7 294.878 427.226 295.245 425.219C295.624 423.184 295.22 420.677 294.034 417.696L281.482 386.165L285.78 384.454L298.331 415.986C300.842 422.296 300.349 427.167 296.85 430.601C295.73 431.674 294.357 432.535 292.731 433.182C291.105 433.829 289.553 434.155 288.075 434.161C286.59 434.147 285.362 433.963 284.391 433.609C283.413 433.236 282.488 432.741 281.614 432.125C280.37 431.252 279.532 430.498 279.1 429.863ZM308.347 415.631C306.706 414.042 305.266 412.283 304.027 410.355C302.781 408.407 301.715 406.32 300.829 404.094C299.942 401.868 299.263 399.627 298.791 397.37C298.319 395.114 298.106 392.833 298.153 390.528C298.199 388.222 298.543 386.101 299.185 384.163C299.838 382.199 300.92 380.412 302.432 378.801C303.936 377.171 305.801 375.913 308.027 375.027C310.272 374.133 312.466 373.787 314.609 373.988C316.763 374.161 318.728 374.759 320.502 375.779C322.287 376.772 323.98 378.094 325.579 379.745C328.587 382.853 331.016 386.73 332.865 391.375C336.247 399.872 336.562 407.057 333.809 412.929C332.322 416.122 329.721 418.458 326.004 419.937C323.856 420.793 321.702 421.157 319.544 421.029C317.378 420.882 315.38 420.343 313.552 419.412C311.735 418.453 310 417.193 308.347 415.631ZM302.394 390.79C302.469 392.666 302.742 394.564 303.215 396.484C303.68 398.384 304.371 400.486 305.287 402.79C306.204 405.093 307.321 407.25 308.636 409.26C309.964 411.243 311.433 412.934 313.044 414.333C314.674 415.725 316.478 416.621 318.454 417.023C320.442 417.398 322.384 417.208 324.281 416.453C326.197 415.69 327.683 414.661 328.737 413.367C329.803 412.046 330.51 410.61 330.856 409.059C331.203 407.508 331.313 405.783 331.184 403.883C330.966 400.517 330.093 396.918 328.568 393.086C326.033 386.717 322.897 382.248 319.161 379.676C317.827 378.75 316.329 378.169 314.666 377.934C312.995 377.68 311.289 377.899 309.547 378.593C307.805 379.286 306.376 380.258 305.259 381.51C304.162 382.754 303.394 384.147 302.954 385.69C302.526 387.206 302.34 388.906 302.394 390.79ZM344.71 400.854C343.104 399.184 341.697 397.367 340.489 395.403C339.301 393.432 338.302 391.431 337.493 389.398C336.677 387.346 336.053 385.386 335.623 383.517C335.193 381.647 334.917 379.772 334.797 377.892C334.676 376.012 334.784 374.198 335.119 372.449C335.467 370.674 335.999 369.027 336.718 367.508C338.301 364.276 340.952 361.921 344.668 360.442C347.397 359.355 350.289 359.157 353.344 359.847C356.914 360.646 360.297 363.201 363.493 367.512L359.699 370.233C359.625 370.106 359.523 369.933 359.392 369.716C359.272 369.472 358.977 369.041 358.506 368.421C358.055 367.793 357.58 367.22 357.082 366.701C356.576 366.162 355.911 365.619 355.088 365.073C354.277 364.499 353.44 364.058 352.578 363.751C350.583 363.02 348.462 363.102 346.217 363.996C343.972 364.889 342.264 366.175 341.092 367.852C339.921 369.529 339.262 371.451 339.116 373.617C338.818 377.771 339.664 382.345 341.652 387.339C344.025 393.301 346.571 397.445 349.291 399.77C352.864 402.833 356.838 403.493 361.213 401.752C366.652 399.587 368.549 395.199 366.904 388.589C366.539 387.164 366.014 385.591 365.328 383.868L355.543 387.763L354.11 384.163L368.105 378.592L376.368 399.352L372.884 400.739L370.665 395.164C369.68 399.054 368.106 401.833 365.945 403.501C364.984 404.242 363.613 404.967 361.833 405.676C360.052 406.385 358.055 406.664 355.843 406.513C353.649 406.355 351.65 405.782 349.845 404.797C348.04 403.811 346.329 402.497 344.71 400.854ZM381.223 386.622C379.582 385.033 378.142 383.275 376.903 381.346C375.657 379.398 374.591 377.311 373.705 375.085C372.819 372.859 372.14 370.618 371.668 368.362C371.195 366.105 370.983 363.825 371.029 361.519C371.075 359.213 371.419 357.092 372.061 355.155C372.714 353.191 373.797 351.403 375.308 349.792C376.812 348.162 378.677 346.904 380.903 346.018C383.148 345.124 385.342 344.778 387.485 344.979C389.64 345.153 391.604 345.75 393.378 346.77C395.164 347.764 396.856 349.086 398.455 350.737C401.463 353.844 403.892 357.721 405.741 362.366C409.124 370.864 409.438 378.048 406.686 383.92C405.199 387.113 402.597 389.449 398.88 390.929C396.732 391.784 394.578 392.148 392.42 392.02C390.254 391.874 388.256 391.335 386.428 390.403C384.611 389.444 382.877 388.184 381.223 386.622ZM375.271 361.781C375.345 363.658 375.618 365.556 376.091 367.475C376.556 369.376 377.247 371.478 378.164 373.781C379.08 376.084 380.197 378.241 381.513 380.251C382.84 382.234 384.309 383.925 385.92 385.324C387.55 386.716 389.354 387.613 391.33 388.015C393.318 388.389 395.26 388.199 397.157 387.444C399.073 386.681 400.559 385.653 401.613 384.359C402.679 383.037 403.386 381.601 403.733 380.05C404.08 378.5 404.189 376.774 404.06 374.875C403.842 371.509 402.97 367.909 401.444 364.077C398.909 357.709 395.773 353.239 392.037 350.668C390.704 349.741 389.205 349.16 387.542 348.925C385.871 348.671 384.165 348.89 382.423 349.584C380.681 350.277 379.252 351.25 378.135 352.501C377.039 353.745 376.27 355.139 375.83 356.681C375.402 358.197 375.216 359.897 375.271 361.781ZM413.692 372.117L417.115 369.14C417.135 369.132 417.239 369.281 417.428 369.587C417.636 369.886 417.932 370.261 418.314 370.715C418.715 371.16 419.198 371.641 419.762 372.156C420.326 372.672 421.016 373.137 421.831 373.552C422.666 373.96 423.565 374.275 424.528 374.497C426.663 375.015 429.095 374.731 431.824 373.645C434.553 372.558 436.289 371.004 437.031 368.982C437.774 366.96 437.713 364.865 436.85 362.697C435.98 360.51 434.872 358.966 433.527 358.066C432.194 357.14 430.299 356.661 427.843 356.629C427.123 356.624 426.191 356.648 425.046 356.7L421.906 356.84C416.493 357.156 412.471 356.402 409.839 354.58C408.012 353.312 406.639 351.526 405.723 349.223C404.636 346.493 404.707 343.516 405.935 340.292C406.529 338.8 407.485 337.399 408.803 336.09C410.12 334.78 411.65 333.779 413.392 333.086C415.154 332.385 416.798 332.01 418.327 331.962C419.866 331.888 421.182 332.037 422.272 332.41C423.382 332.776 424.447 333.282 425.467 333.93C426.487 334.578 427.285 335.202 427.86 335.803L429.557 337.616C430.079 338.193 430.392 338.528 430.496 338.621L427.299 341.576C427.222 341.494 427.006 341.233 426.651 340.791C426.307 340.322 426.012 339.947 425.765 339.664C425.537 339.373 425.172 338.992 424.67 338.519C424.187 338.038 423.723 337.662 423.279 337.391C422.846 337.092 422.305 336.803 421.656 336.523C421.018 336.217 420.38 336.022 419.742 335.94C418.187 335.751 416.606 335.977 414.999 336.617C412.619 337.564 410.964 339.041 410.036 341.048C409.101 343.034 409.095 345.189 410.02 347.512C411.029 350.048 412.396 351.567 414.121 352.068C415.06 352.345 415.822 352.512 416.406 352.571C417.009 352.623 417.69 352.643 418.449 352.633C419.219 352.595 419.785 352.583 420.149 352.595C420.505 352.588 421.192 352.539 422.209 352.448L424.949 352.232C429.986 351.818 433.886 352.632 436.649 354.671C438.523 356.055 439.98 358.054 441.02 360.667C441.775 362.564 441.965 364.787 441.589 367.336C441.147 370.562 439.576 373.205 436.876 375.266C435.857 376.031 434.583 376.717 433.054 377.326C431.544 377.927 429.973 378.317 428.34 378.496C426.707 378.675 425.256 378.636 423.988 378.378C422.739 378.113 421.55 377.746 420.421 377.276C419.311 376.798 418.357 376.259 417.557 375.658C416.089 374.56 414.959 373.553 414.167 372.634L413.692 372.117Z" fill="white"/>
</g>
</svg>
