<svg xmlns="http://www.w3.org/2000/svg" viewBox="0 0 313.45 252.24"><defs><style>.cls-1{fill:#4bc3b5;}.cls-2{fill:#cdf0ea;}.cls-3{fill:none;stroke:#4bc3b5;stroke-miterlimit:10;}</style></defs><g id="Layer_2" data-name="Layer 2"><g id="Layer_2-2" data-name="Layer 2"><path class="cls-1" d="M16.23,88.6h0L4.17,33.12,58.51,21.31l.08.39a21.66,21.66,0,0,0,.77,4.14,22.5,22.5,0,0,0,43.29-12.27l-.27-1.79L156.61,0l32.13,147.83-.3.07c-8.4,32.55-30.85,58.4-61.86,66.29-33,8.39-67.19-5.7-90.3-33.53h0L25.73,132.36l-1.18.26a22.5,22.5,0,0,1-8.32-44Z"/></g><g id="Layer_5" data-name="Layer 5"><path class="cls-2" d="M109.92,120.75S91,119.38,84.3,134.85s-23,7.66-23,7.66S85,153,89.84,148.08,116,140.05,109.92,120.75Z"/><path class="cls-2" d="M111,120.49s18.23-5.19,28,8.58S163,131.89,163,131.89,142,147,136.18,143.15,109,140.61,111,120.49Z"/></g><g id="Layer_3" data-name="Layer 3"><path class="cls-2" d="M296.44,121h0L306.49,65.1l-54.74-9.84-.06.39a23.11,23.11,0,0,1-.62,4.16,22.5,22.5,0,0,1-43.72-10.69l.21-1.8-54.62-9.81-26.76,148.9.31.06c9.57,32.22,32.94,57.25,64.22,64,33.27,7.19,66.93-8.13,89-36.78h0l8.75-48.66,1.18.22A22.5,22.5,0,0,0,296.44,121Z"/></g><g id="Layer_4" data-name="Layer 4"><ellipse class="cls-3" cx="183.11" cy="119.03" rx="14.92" ry="19" transform="translate(19.89 264.14) rotate(-74.66)"/><ellipse class="cls-3" cx="242.43" cy="135.3" rx="14.93" ry="19" transform="translate(47.83 333.31) rotate(-74.66)"/><path class="cls-3" d="M202.51,120.13s16-6.88,22.68,6.22"/><path class="cls-1" d="M206.13,153.15s18.83,2.17,22.55,18.61,21.22,11.82,21.22,11.82-25.24,5.91-29.12.15S196.6,171,206.13,153.15Z"/><path class="cls-1" d="M205.16,152.69s-16.95-8.49-29.06,3.24-24.23-1.72-24.23-1.72,17.89,18.76,24.29,16.06S203.37,172.83,205.16,152.69Z"/></g></g></svg>