<svg xmlns="http://www.w3.org/2000/svg" viewBox="0 0 207.5 207.5"><defs><style>.cls-1{fill:#fff;}.cls-2{fill:#4ebab1;}.cls-3{fill:#cfe8e1;}.cls-4{fill:none;stroke:#cfe8e1;stroke-miterlimit:10;}</style></defs><g id="Layer_2" data-name="Layer 2"><g id="Layer_1-2" data-name="Layer 1"><rect class="cls-1" width="207.5" height="207.5"/><path class="cls-2" d="M34.75,207.5s-2-82,68-85,70,85,70,85Z"/><circle class="cls-2" cx="103.75" cy="77.44" r="50"/><path class="cls-3" d="M61.91,98S77.65,111.45,94,103.25s10.08-17.89,3.78-16.4-6,9.61-14.63,11.14S61.91,98,61.91,98Z"/><path class="cls-3" d="M145.91,97.68s-17,14-34.74,5.47-10.9-18.6-4.09-17.05,6.45,10,15.83,11.58S145.91,97.68,145.91,97.68Z"/><ellipse class="cls-4" cx="81.5" cy="77.44" rx="14.5" ry="8.5"/><ellipse class="cls-4" cx="126" cy="77.44" rx="14.5" ry="8.5"/><path class="cls-4" d="M93.27,80.89s11.1-17.06,21.27,0"/></g></g></svg>