<svg width="50" height="50" viewBox="0 0 50 50" fill="none" xmlns="http://www.w3.org/2000/svg">
<circle cx="25" cy="25" r="25" fill="#FADA5E"/>
<path d="M6 24.0677C10.9561 21.941 21.6947 18.3258 25 20.8777V24.0677V28.9693C18.8243 29.3635 9.76013 25.8658 6 24.0677Z" fill="#CDF0EA"/>
<path d="M6 24.0677C10.9561 21.941 21.6947 18.3258 25 20.8777V24.0677M6 24.0677H25M6 24.0677C9.76013 25.8658 18.8243 29.3635 25 28.9693V24.0677" stroke="#4BC3B5"/>
<path d="M44 24.5196C39.0439 22.1567 28.3053 18.1398 25 20.9753V24.5196V29.9659C31.1757 30.4039 40.2399 26.5176 44 24.5196Z" fill="#CDF0EA"/>
<path d="M44 24.5196C39.0439 22.1567 28.3053 18.1398 25 20.9753V24.5196M44 24.5196H25M44 24.5196C40.2399 26.5176 31.1757 30.4039 25 29.9659V24.5196" stroke="#4BC3B5"/>
<circle cx="25" cy="25" r="18.5" stroke="#010402" stroke-width="5"/>
<path d="M10 40L40 12" stroke="#010402" stroke-width="5"/>
</svg>
